<svg width="397" height="156" viewBox="0 0 397 156" fill="none" xmlns="http://www.w3.org/2000/svg">
<rect x="210.5" y="12.5" width="185" height="136" rx="38.5" fill="white" stroke="#860321" stroke-width="3"/>
<rect x="1.5" y="12.4412" width="185.407" height="135.569" rx="38.5" fill="white" stroke="#860321" stroke-width="3"/>
<path d="M275.9 62.179C274.945 62.179 274.095 62.0149 273.349 61.6868C272.608 61.3544 272.022 60.8984 271.592 60.3189C271.165 59.7351 270.946 59.0618 270.933 58.299H273.72C273.737 58.6186 273.842 58.8999 274.033 59.1428C274.229 59.3814 274.489 59.5668 274.813 59.6989C275.137 59.831 275.501 59.897 275.906 59.897C276.328 59.897 276.701 59.8224 277.025 59.6733C277.349 59.5241 277.602 59.3175 277.786 59.0533C277.969 58.7891 278.06 58.4844 278.06 58.1392C278.06 57.7898 277.962 57.4808 277.766 57.2124C277.575 56.9396 277.298 56.7266 276.935 56.5732C276.577 56.4197 276.151 56.343 275.657 56.343H274.436V54.3104H275.657C276.075 54.3104 276.443 54.2379 276.763 54.093C277.087 53.9482 277.338 53.7479 277.517 53.4922C277.696 53.2322 277.786 52.9297 277.786 52.5845C277.786 52.2564 277.707 51.9688 277.549 51.7216C277.396 51.4702 277.178 51.2741 276.897 51.1335C276.62 50.9929 276.296 50.9226 275.925 50.9226C275.55 50.9226 275.207 50.9908 274.896 51.1271C274.585 51.2592 274.336 51.4489 274.148 51.696C273.961 51.9432 273.861 52.233 273.848 52.5653H271.195C271.208 51.8111 271.423 51.1463 271.841 50.571C272.259 49.9957 272.821 49.5462 273.528 49.2223C274.24 48.8942 275.043 48.7301 275.938 48.7301C276.842 48.7301 277.632 48.8942 278.31 49.2223C278.987 49.5504 279.513 49.9936 279.888 50.5518C280.268 51.1058 280.455 51.728 280.451 52.4183C280.455 53.1513 280.227 53.7628 279.767 54.2528C279.311 54.7429 278.717 55.054 277.984 55.1861V55.2884C278.947 55.4119 279.68 55.7464 280.183 56.2919C280.69 56.8331 280.941 57.5107 280.937 58.3246C280.941 59.0703 280.726 59.733 280.291 60.3125C279.861 60.892 279.266 61.348 278.508 61.6804C277.749 62.0128 276.88 62.179 275.9 62.179ZM288.059 62.2876C286.96 62.2834 286.014 62.0128 285.221 61.4759C284.433 60.9389 283.825 60.1612 283.399 59.1428C282.977 58.1243 282.769 56.8991 282.773 55.4673C282.773 54.0398 282.984 52.8232 283.406 51.8175C283.832 50.8118 284.439 50.0469 285.227 49.5227C286.02 48.9943 286.964 48.7301 288.059 48.7301C289.154 48.7301 290.096 48.9943 290.884 49.5227C291.677 50.0511 292.286 50.8182 292.713 51.8239C293.139 52.8253 293.35 54.0398 293.345 55.4673C293.345 56.9034 293.132 58.1307 292.706 59.1491C292.284 60.1676 291.679 60.9453 290.891 61.4822C290.102 62.0192 289.159 62.2876 288.059 62.2876ZM288.059 59.9929C288.809 59.9929 289.408 59.6158 289.855 58.8615C290.303 58.1072 290.524 56.9759 290.52 55.4673C290.52 54.4744 290.418 53.6477 290.213 52.9872C290.013 52.3267 289.727 51.8303 289.357 51.4979C288.99 51.1655 288.558 50.9993 288.059 50.9993C287.313 50.9993 286.717 51.3722 286.269 52.1179C285.822 52.8636 285.596 53.9801 285.592 55.4673C285.592 56.473 285.692 57.3125 285.892 57.9858C286.097 58.6548 286.384 59.1577 286.755 59.4943C287.126 59.8267 287.561 59.9929 288.059 59.9929ZM303.128 62.1598C302.383 62.1598 301.707 61.968 301.102 61.5845C300.501 61.1967 300.024 60.6278 299.67 59.8778C299.321 59.1236 299.146 58.1989 299.146 57.1037C299.146 55.9787 299.327 55.0433 299.689 54.2976C300.052 53.5476 300.533 52.9872 301.134 52.6165C301.739 52.2415 302.402 52.054 303.122 52.054C303.672 52.054 304.13 52.1477 304.496 52.3352C304.867 52.5185 305.165 52.7486 305.391 53.0256C305.621 53.2983 305.796 53.5668 305.915 53.831H305.998V48.9091H308.715V62H306.03V60.4276H305.915C305.787 60.7003 305.606 60.9709 305.372 61.2393C305.142 61.5036 304.841 61.723 304.471 61.8977C304.104 62.0724 303.657 62.1598 303.128 62.1598ZM303.991 59.9929C304.43 59.9929 304.801 59.8736 305.104 59.6349C305.41 59.392 305.645 59.0533 305.807 58.6186C305.973 58.1839 306.056 57.6747 306.056 57.0909C306.056 56.5071 305.975 56 305.813 55.5696C305.651 55.1392 305.417 54.8068 305.11 54.5724C304.803 54.3381 304.43 54.2209 303.991 54.2209C303.544 54.2209 303.167 54.3423 302.86 54.5852C302.553 54.8281 302.321 55.1648 302.163 55.5952C302.006 56.0256 301.927 56.5241 301.927 57.0909C301.927 57.6619 302.006 58.1669 302.163 58.6058C302.325 59.0405 302.557 59.3814 302.86 59.6286C303.167 59.8714 303.544 59.9929 303.991 59.9929ZM310.954 62V52.1818H313.677V62H310.954ZM312.322 50.9162C311.917 50.9162 311.57 50.782 311.28 50.5135C310.994 50.2408 310.852 49.9148 310.852 49.5355C310.852 49.1605 310.994 48.8388 311.28 48.5703C311.57 48.2976 311.917 48.1612 312.322 48.1612C312.727 48.1612 313.072 48.2976 313.357 48.5703C313.647 48.8388 313.792 49.1605 313.792 49.5355C313.792 49.9148 313.647 50.2408 313.357 50.5135C313.072 50.782 312.727 50.9162 312.322 50.9162ZM318.658 62.1854C318.031 62.1854 317.473 62.0767 316.983 61.8594C316.493 61.6378 316.105 61.3118 315.82 60.8814C315.539 60.4467 315.398 59.9055 315.398 59.2578C315.398 58.7124 315.498 58.2543 315.698 57.8835C315.899 57.5128 316.171 57.2145 316.517 56.9886C316.862 56.7628 317.254 56.5923 317.693 56.4773C318.136 56.3622 318.6 56.2812 319.086 56.2344C319.657 56.1747 320.117 56.1193 320.467 56.0682C320.816 56.0128 321.07 55.9318 321.227 55.8253C321.385 55.7187 321.464 55.5611 321.464 55.3523V55.3139C321.464 54.9091 321.336 54.5959 321.08 54.3743C320.829 54.1527 320.471 54.0419 320.007 54.0419C319.517 54.0419 319.127 54.1506 318.837 54.3679C318.547 54.581 318.355 54.8494 318.262 55.1733L315.743 54.9688C315.871 54.3722 316.122 53.8565 316.497 53.4219C316.872 52.983 317.356 52.6463 317.948 52.4119C318.545 52.1733 319.235 52.054 320.019 52.054C320.565 52.054 321.087 52.1179 321.585 52.2457C322.088 52.3736 322.534 52.5717 322.921 52.8402C323.313 53.1087 323.622 53.4538 323.848 53.8757C324.074 54.2933 324.187 54.794 324.187 55.3778V62H321.605V60.6385H321.528C321.37 60.9453 321.159 61.2159 320.895 61.4503C320.631 61.6804 320.313 61.8615 319.943 61.9936C319.572 62.1214 319.144 62.1854 318.658 62.1854ZM319.438 60.3061C319.838 60.3061 320.192 60.2273 320.499 60.0696C320.806 59.9077 321.046 59.6903 321.221 59.4176C321.396 59.1449 321.483 58.8359 321.483 58.4908V57.4489C321.398 57.5043 321.281 57.5554 321.132 57.6023C320.987 57.6449 320.823 57.6854 320.639 57.7237C320.456 57.7578 320.273 57.7898 320.09 57.8196C319.906 57.8452 319.74 57.8686 319.591 57.8899C319.271 57.9368 318.992 58.0114 318.754 58.1136C318.515 58.2159 318.33 58.3544 318.198 58.5291C318.066 58.6996 317.999 58.9126 317.999 59.1683C317.999 59.5391 318.134 59.8224 318.402 60.0185C318.675 60.2102 319.02 60.3061 319.438 60.3061ZM334.469 54.9815L331.976 55.1349C331.933 54.9219 331.841 54.7301 331.701 54.5597C331.56 54.3849 331.375 54.2464 331.145 54.1442C330.919 54.0376 330.648 53.9844 330.333 53.9844C329.911 53.9844 329.555 54.0739 329.265 54.2528C328.976 54.4276 328.831 54.6619 328.831 54.956C328.831 55.1903 328.925 55.3885 329.112 55.5504C329.3 55.7124 329.621 55.8423 330.077 55.9403L331.854 56.2983C332.809 56.4943 333.52 56.8097 333.989 57.2443C334.458 57.679 334.692 58.25 334.692 58.9574C334.692 59.6009 334.503 60.1655 334.123 60.6513C333.748 61.1371 333.233 61.5163 332.577 61.7891C331.925 62.0575 331.172 62.1918 330.32 62.1918C329.02 62.1918 327.985 61.9212 327.214 61.38C326.447 60.8345 325.997 60.093 325.865 59.1555L328.543 59.0149C328.624 59.4112 328.82 59.7138 329.131 59.9226C329.442 60.1271 329.841 60.2294 330.327 60.2294C330.804 60.2294 331.187 60.1378 331.477 59.9545C331.771 59.767 331.92 59.5263 331.925 59.2322C331.92 58.9851 331.816 58.7827 331.611 58.625C331.407 58.4631 331.091 58.3395 330.665 58.2543L328.965 57.9155C328.006 57.7237 327.292 57.3913 326.824 56.9183C326.359 56.4453 326.127 55.8423 326.127 55.1094C326.127 54.4787 326.297 53.9354 326.638 53.4794C326.983 53.0234 327.467 52.6719 328.089 52.4247C328.716 52.1776 329.449 52.054 330.288 52.054C331.528 52.054 332.504 52.3161 333.216 52.8402C333.932 53.3643 334.349 54.0781 334.469 54.9815Z" fill="black"/>
<path d="M46.8251 91.1534C46.4103 91.1534 46.0339 91.0753 45.6958 90.919C45.3578 90.7599 45.0893 90.5312 44.8904 90.233C44.6916 89.9318 44.5922 89.5682 44.5922 89.142C44.5922 88.767 44.666 88.4631 44.8137 88.2301C44.9615 87.9943 45.1589 87.8097 45.4061 87.6761C45.6532 87.5426 45.926 87.4432 46.2243 87.3778C46.5254 87.3097 46.8279 87.2557 47.1319 87.2159C47.5297 87.1648 47.8521 87.1264 48.0993 87.1009C48.3493 87.0724 48.5311 87.0256 48.6447 86.9602C48.7612 86.8949 48.8194 86.7812 48.8194 86.6193V86.5852C48.8194 86.1648 48.7044 85.8381 48.4743 85.6051C48.247 85.3722 47.9018 85.2557 47.4387 85.2557C46.9586 85.2557 46.5822 85.3608 46.3095 85.571C46.0368 85.7812 45.845 86.0057 45.7342 86.2443L44.7797 85.9034C44.9501 85.5057 45.1774 85.196 45.4615 84.9744C45.7484 84.75 46.0609 84.5937 46.399 84.5057C46.7399 84.4148 47.0751 84.3693 47.4047 84.3693C47.6149 84.3693 47.8564 84.3949 48.1291 84.446C48.4047 84.4943 48.6703 84.5952 48.926 84.7486C49.1845 84.902 49.399 85.1335 49.5694 85.4432C49.7399 85.7528 49.8251 86.1676 49.8251 86.6875V91H48.8194V90.1136H48.7683C48.7001 90.2557 48.5865 90.4077 48.4274 90.5696C48.2683 90.7315 48.0566 90.8693 47.7924 90.983C47.5282 91.0966 47.2058 91.1534 46.8251 91.1534ZM46.9785 90.25C47.3762 90.25 47.7115 90.1719 47.9842 90.0156C48.2598 89.8594 48.4672 89.6577 48.6064 89.4105C48.7484 89.1634 48.8194 88.9034 48.8194 88.6307V87.7102C48.7768 87.7614 48.6831 87.8082 48.5382 87.8509C48.3961 87.8906 48.2314 87.9261 48.0439 87.9574C47.8592 87.9858 47.6788 88.0114 47.5027 88.0341C47.3294 88.054 47.1887 88.071 47.0808 88.0852C46.8194 88.1193 46.5751 88.1747 46.3478 88.2514C46.1234 88.3253 45.9416 88.4375 45.8024 88.5881C45.666 88.7358 45.5978 88.9375 45.5978 89.1932C45.5978 89.5426 45.7271 89.8068 45.9856 89.9858C46.247 90.1619 46.5779 90.25 46.9785 90.25ZM51.6607 93.4545V84.4545H52.6323V85.4943H52.7516C52.8255 85.3807 52.9277 85.2358 53.0584 85.0597C53.1919 84.8807 53.3823 84.7216 53.6294 84.5824C53.8794 84.4403 54.2175 84.3693 54.6436 84.3693C55.1948 84.3693 55.6806 84.5071 56.101 84.7827C56.5215 85.0582 56.8496 85.4489 57.0854 85.9545C57.3212 86.4602 57.4391 87.0568 57.4391 87.7443C57.4391 88.4375 57.3212 89.0384 57.0854 89.5469C56.8496 90.0526 56.5229 90.4446 56.1053 90.723C55.6877 90.9986 55.2061 91.1364 54.6607 91.1364C54.2402 91.1364 53.9036 91.0668 53.6507 90.9276C53.3979 90.7855 53.2033 90.625 53.0669 90.446C52.9306 90.2642 52.8255 90.1136 52.7516 89.9943H52.6664V93.4545H51.6607ZM52.6493 87.7273C52.6493 88.2216 52.7218 88.6577 52.8667 89.0355C53.0115 89.4105 53.2232 89.7045 53.5016 89.9176C53.78 90.1278 54.1209 90.233 54.5243 90.233C54.9448 90.233 55.2956 90.1222 55.5769 89.9006C55.861 89.6761 56.074 89.375 56.2161 88.9972C56.361 88.6165 56.4334 88.1932 56.4334 87.7273C56.4334 87.267 56.3624 86.8523 56.2203 86.483C56.0811 86.1108 55.8695 85.8168 55.5854 85.6009C55.3042 85.3821 54.9505 85.2727 54.5243 85.2727C54.1152 85.2727 53.7715 85.3764 53.4931 85.5838C53.2147 85.7884 53.0044 86.0753 52.8624 86.4446C52.7203 86.8111 52.6493 87.2386 52.6493 87.7273ZM61.7175 91.1364C61.0868 91.1364 60.5428 90.9972 60.0854 90.7188C59.6309 90.4375 59.28 90.0455 59.0328 89.5426C58.7885 89.0369 58.6664 88.4489 58.6664 87.7784C58.6664 87.108 58.7885 86.517 59.0328 86.0057C59.28 85.4915 59.6238 85.0909 60.0641 84.804C60.5073 84.5142 61.0243 84.3693 61.6152 84.3693C61.9561 84.3693 62.2928 84.4261 62.6252 84.5398C62.9576 84.6534 63.2601 84.8381 63.5328 85.0938C63.8056 85.3466 64.0229 85.6818 64.1848 86.0994C64.3468 86.517 64.4277 87.0312 64.4277 87.642V88.0682H59.3823V87.1989H63.405C63.405 86.8295 63.3311 86.5 63.1834 86.2102C63.0385 85.9205 62.8311 85.6918 62.5613 85.5241C62.2942 85.3565 61.9789 85.2727 61.6152 85.2727C61.2147 85.2727 60.8681 85.3722 60.5755 85.571C60.2857 85.767 60.0627 86.0227 59.9064 86.3381C59.7502 86.6534 59.6721 86.9915 59.6721 87.3523V87.9318C59.6721 88.4261 59.7573 88.8452 59.9277 89.1889C60.101 89.5298 60.3411 89.7898 60.6479 89.9688C60.9547 90.1449 61.3113 90.233 61.7175 90.233C61.9817 90.233 62.2203 90.196 62.4334 90.1222C62.6493 90.0455 62.8354 89.9318 62.9917 89.7812C63.1479 89.6278 63.2686 89.4375 63.3539 89.2102L64.3255 89.483C64.2232 89.8125 64.0513 90.1023 63.8098 90.3523C63.5684 90.5994 63.2701 90.7926 62.915 90.9318C62.5598 91.0682 62.1607 91.1364 61.7175 91.1364ZM66.9632 87.0625V91H65.9576V84.4545H66.9292V85.4773H67.0144C67.1678 85.1449 67.4007 84.8778 67.7132 84.6761C68.0257 84.4716 68.4292 84.3693 68.9235 84.3693C69.3667 84.3693 69.7544 84.4602 70.0868 84.642C70.4192 84.821 70.6777 85.0938 70.8624 85.4602C71.0471 85.8239 71.1394 86.2841 71.1394 86.8409V91H70.1337V86.9091C70.1337 86.3949 70.0002 85.9943 69.7331 85.7074C69.4661 85.4176 69.0996 85.2727 68.6337 85.2727C68.3127 85.2727 68.0257 85.3423 67.7729 85.4815C67.5229 85.6207 67.3255 85.8239 67.1806 86.0909C67.0357 86.358 66.9632 86.6818 66.9632 87.0625ZM74.9032 91.1534C74.4885 91.1534 74.112 91.0753 73.774 90.919C73.4359 90.7599 73.1674 90.5312 72.9686 90.233C72.7697 89.9318 72.6703 89.5682 72.6703 89.142C72.6703 88.767 72.7441 88.4631 72.8919 88.2301C73.0396 87.9943 73.237 87.8097 73.4842 87.6761C73.7314 87.5426 74.0041 87.4432 74.3024 87.3778C74.6035 87.3097 74.9061 87.2557 75.21 87.2159C75.6078 87.1648 75.9302 87.1264 76.1774 87.1009C76.4274 87.0724 76.6092 87.0256 76.7228 86.9602C76.8393 86.8949 76.8975 86.7812 76.8975 86.6193V86.5852C76.8975 86.1648 76.7825 85.8381 76.5524 85.6051C76.3251 85.3722 75.9799 85.2557 75.5169 85.2557C75.0368 85.2557 74.6603 85.3608 74.3876 85.571C74.1149 85.7812 73.9231 86.0057 73.8123 86.2443L72.8578 85.9034C73.0282 85.5057 73.2555 85.196 73.5396 84.9744C73.8265 84.75 74.139 84.5937 74.4771 84.5057C74.818 84.4148 75.1532 84.3693 75.4828 84.3693C75.693 84.3693 75.9345 84.3949 76.2072 84.446C76.4828 84.4943 76.7484 84.5952 77.0041 84.7486C77.2626 84.902 77.4771 85.1335 77.6475 85.4432C77.818 85.7528 77.9032 86.1676 77.9032 86.6875V91H76.8975V90.1136H76.8464C76.7782 90.2557 76.6646 90.4077 76.5055 90.5696C76.3464 90.7315 76.1348 90.8693 75.8706 90.983C75.6064 91.0966 75.2839 91.1534 74.9032 91.1534ZM75.0566 90.25C75.4544 90.25 75.7896 90.1719 76.0623 90.0156C76.3379 89.8594 76.5453 89.6577 76.6845 89.4105C76.8265 89.1634 76.8975 88.9034 76.8975 88.6307V87.7102C76.8549 87.7614 76.7612 87.8082 76.6163 87.8509C76.4743 87.8906 76.3095 87.9261 76.122 87.9574C75.9373 87.9858 75.7569 88.0114 75.5808 88.0341C75.4075 88.054 75.2669 88.071 75.1589 88.0852C74.8975 88.1193 74.6532 88.1747 74.426 88.2514C74.2015 88.3253 74.0197 88.4375 73.8805 88.5881C73.7441 88.7358 73.676 88.9375 73.676 89.1932C73.676 89.5426 73.8052 89.8068 74.0637 89.9858C74.3251 90.1619 74.6561 90.25 75.0566 90.25ZM84.3752 85.9205L83.4718 86.1761C83.415 86.0256 83.3311 85.8793 83.2203 85.7372C83.1124 85.5923 82.9647 85.473 82.7772 85.3793C82.5897 85.2855 82.3496 85.2386 82.057 85.2386C81.6564 85.2386 81.3226 85.331 81.0556 85.5156C80.7914 85.6974 80.6593 85.929 80.6593 86.2102C80.6593 86.4602 80.7502 86.6577 80.932 86.8026C81.1138 86.9474 81.3979 87.0682 81.7843 87.1648L82.7559 87.4034C83.3411 87.5455 83.7772 87.7628 84.0641 88.0554C84.351 88.3452 84.4945 88.7187 84.4945 89.1761C84.4945 89.5511 84.3865 89.8864 84.1706 90.1818C83.9576 90.4773 83.6593 90.7102 83.2757 90.8807C82.8922 91.0511 82.4462 91.1364 81.9377 91.1364C81.2701 91.1364 80.7175 90.9915 80.28 90.7017C79.8425 90.4119 79.5655 89.9886 79.449 89.4318L80.4036 89.1932C80.4945 89.5455 80.6664 89.8097 80.9192 89.9858C81.1749 90.1619 81.5087 90.25 81.9206 90.25C82.3894 90.25 82.7615 90.1506 83.0371 89.9517C83.3155 89.75 83.4547 89.5085 83.4547 89.2273C83.4547 89 83.3752 88.8097 83.2161 88.6562C83.057 88.5 82.8127 88.3835 82.4831 88.3068L81.3922 88.0511C80.7928 87.9091 80.3525 87.6889 80.0712 87.3906C79.7928 87.0895 79.6536 86.7131 79.6536 86.2614C79.6536 85.892 79.7573 85.5653 79.9647 85.2812C80.1749 84.9972 80.4604 84.7741 80.8212 84.6122C81.1848 84.4503 81.5968 84.3693 82.057 84.3693C82.7047 84.3693 83.2132 84.5114 83.5826 84.7955C83.9547 85.0795 84.2189 85.4545 84.3752 85.9205ZM92.4345 82.2727V91H91.3777V83.3807H91.3265L89.1958 84.7955V83.7216L91.3777 82.2727H92.4345ZM95.9458 89.8068L95.8777 90.267C95.8294 90.5909 95.7555 90.9375 95.6561 91.3068C95.5595 91.6761 95.4586 92.0241 95.3535 92.3509C95.2484 92.6776 95.1618 92.9375 95.0936 93.1307H94.3265C94.3635 92.9489 94.4118 92.7088 94.4714 92.4105C94.5311 92.1122 94.5907 91.7784 94.6504 91.4091C94.7129 91.0426 94.764 90.6676 94.8038 90.2841L94.8549 89.8068H95.9458ZM100.318 91.1193C99.7328 91.1193 99.2157 91.0156 98.7669 90.8082C98.3208 90.598 97.9728 90.3097 97.7228 89.9432C97.4728 89.5739 97.3493 89.1534 97.3521 88.6818C97.3493 88.3125 97.4217 87.9716 97.5694 87.6591C97.7172 87.3437 97.9189 87.081 98.1745 86.8707C98.4331 86.6577 98.7214 86.5227 99.0396 86.4659V86.4148C98.622 86.3068 98.2896 86.0724 98.0424 85.7116C97.7953 85.348 97.6731 84.9347 97.676 84.4716C97.6731 84.0284 97.7853 83.6321 98.0126 83.2827C98.2399 82.9332 98.5524 82.6577 98.9501 82.456C99.3507 82.2543 99.8066 82.1534 100.318 82.1534C100.824 82.1534 101.275 82.2543 101.673 82.456C102.071 82.6577 102.383 82.9332 102.611 83.2827C102.841 83.6321 102.957 84.0284 102.96 84.4716C102.957 84.9347 102.831 85.348 102.581 85.7116C102.334 86.0724 102.006 86.3068 101.596 86.4148V86.4659C101.912 86.5227 102.196 86.6577 102.449 86.8707C102.702 87.081 102.903 87.3437 103.054 87.6591C103.204 87.9716 103.281 88.3125 103.284 88.6818C103.281 89.1534 103.153 89.5739 102.9 89.9432C102.65 90.3097 102.302 90.598 101.856 90.8082C101.413 91.0156 100.9 91.1193 100.318 91.1193ZM100.318 90.1818C100.713 90.1818 101.054 90.1179 101.341 89.9901C101.628 89.8622 101.849 89.6818 102.006 89.4489C102.162 89.2159 102.241 88.9432 102.244 88.6307C102.241 88.3011 102.156 88.0099 101.988 87.7571C101.821 87.5043 101.592 87.3054 101.302 87.1605C101.015 87.0156 100.687 86.9432 100.318 86.9432C99.9458 86.9432 99.6135 87.0156 99.3208 87.1605C99.0311 87.3054 98.8024 87.5043 98.6348 87.7571C98.47 88.0099 98.389 88.3011 98.3919 88.6307C98.389 88.9432 98.4643 89.2159 98.6177 89.4489C98.774 89.6818 98.997 89.8622 99.2868 89.9901C99.5765 90.1179 99.9203 90.1818 100.318 90.1818ZM100.318 86.0398C100.631 86.0398 100.907 85.9773 101.149 85.8523C101.393 85.7273 101.585 85.5526 101.724 85.3281C101.863 85.1037 101.934 84.8409 101.937 84.5398C101.934 84.2443 101.865 83.9872 101.729 83.7685C101.592 83.5469 101.403 83.3764 101.162 83.2571C100.92 83.1349 100.639 83.0739 100.318 83.0739C99.9913 83.0739 99.7058 83.1349 99.4615 83.2571C99.2172 83.3764 99.0282 83.5469 98.8947 83.7685C98.7612 83.9872 98.6958 84.2443 98.6987 84.5398C98.6958 84.8409 98.7626 85.1037 98.899 85.3281C99.0382 85.5526 99.2299 85.7273 99.4743 85.8523C99.7186 85.9773 99.9998 86.0398 100.318 86.0398ZM109.366 89.3636V88.9034C109.366 88.5852 109.431 88.294 109.562 88.0298C109.695 87.7628 109.889 87.5497 110.142 87.3906C110.397 87.2287 110.707 87.1477 111.07 87.1477C111.44 87.1477 111.749 87.2287 111.999 87.3906C112.249 87.5497 112.438 87.7628 112.566 88.0298C112.694 88.294 112.758 88.5852 112.758 88.9034V89.3636C112.758 89.6818 112.693 89.9744 112.562 90.2415C112.434 90.5057 112.244 90.7187 111.991 90.8807C111.741 91.0398 111.434 91.1193 111.07 91.1193C110.701 91.1193 110.39 91.0398 110.137 90.8807C109.884 90.7187 109.693 90.5057 109.562 90.2415C109.431 89.9744 109.366 89.6818 109.366 89.3636ZM110.235 88.9034V89.3636C110.235 89.6278 110.298 89.8651 110.423 90.0753C110.548 90.2827 110.764 90.3864 111.07 90.3864C111.369 90.3864 111.579 90.2827 111.701 90.0753C111.826 89.8651 111.889 89.6278 111.889 89.3636V88.9034C111.889 88.6392 111.829 88.4034 111.71 88.196C111.59 87.9858 111.377 87.8807 111.07 87.8807C110.772 87.8807 110.558 87.9858 110.427 88.196C110.299 88.4034 110.235 88.6392 110.235 88.9034ZM105.019 84.3693V83.9091C105.019 83.5909 105.085 83.2997 105.215 83.0355C105.349 82.7685 105.542 82.5554 105.795 82.3963C106.051 82.2344 106.36 82.1534 106.724 82.1534C107.093 82.1534 107.403 82.2344 107.653 82.3963C107.903 82.5554 108.092 82.7685 108.22 83.0355C108.347 83.2997 108.411 83.5909 108.411 83.9091V84.3693C108.411 84.6875 108.346 84.9801 108.215 85.2472C108.088 85.5114 107.897 85.7244 107.644 85.8864C107.394 86.0455 107.088 86.125 106.724 86.125C106.355 86.125 106.044 86.0455 105.791 85.8864C105.538 85.7244 105.346 85.5114 105.215 85.2472C105.085 84.9801 105.019 84.6875 105.019 84.3693ZM105.889 83.9091V84.3693C105.889 84.6335 105.951 84.8707 106.076 85.081C106.201 85.2884 106.417 85.392 106.724 85.392C107.022 85.392 107.232 85.2884 107.355 85.081C107.48 84.8707 107.542 84.6335 107.542 84.3693V83.9091C107.542 83.6449 107.482 83.4091 107.363 83.2017C107.244 82.9915 107.031 82.8864 106.724 82.8864C106.426 82.8864 106.211 82.9915 106.08 83.2017C105.953 83.4091 105.889 83.6449 105.889 83.9091ZM105.343 91L111.343 82.2727H112.315L106.315 91H105.343ZM120.531 91.1364C119.985 91.1364 119.504 90.9986 119.086 90.723C118.669 90.4446 118.342 90.0526 118.106 89.5469C117.87 89.0384 117.752 88.4375 117.752 87.7443C117.752 87.0568 117.87 86.4602 118.106 85.9545C118.342 85.4489 118.67 85.0582 119.09 84.7827C119.511 84.5071 119.997 84.3693 120.548 84.3693C120.974 84.3693 121.311 84.4403 121.558 84.5824C121.808 84.7216 121.998 84.8807 122.129 85.0597C122.262 85.2358 122.366 85.3807 122.44 85.4943H122.525V82.2727H123.531V91H122.559V89.9943H122.44C122.366 90.1136 122.261 90.2642 122.124 90.446C121.988 90.625 121.794 90.7855 121.541 90.9276C121.288 91.0668 120.951 91.1364 120.531 91.1364ZM120.667 90.233C121.07 90.233 121.411 90.1278 121.69 89.9176C121.968 89.7045 122.18 89.4105 122.325 89.0355C122.47 88.6577 122.542 88.2216 122.542 87.7273C122.542 87.2386 122.471 86.8111 122.329 86.4446C122.187 86.0753 121.977 85.7884 121.698 85.5838C121.42 85.3764 121.076 85.2727 120.667 85.2727C120.241 85.2727 119.886 85.3821 119.602 85.6009C119.32 85.8168 119.109 86.1108 118.967 86.483C118.828 86.8523 118.758 87.267 118.758 87.7273C118.758 88.1932 118.829 88.6165 118.971 88.9972C119.116 89.375 119.329 89.6761 119.61 89.9006C119.894 90.1222 120.247 90.233 120.667 90.233ZM128.171 91.1364C127.58 91.1364 127.062 90.9957 126.616 90.7145C126.173 90.4332 125.826 90.0398 125.576 89.5341C125.329 89.0284 125.205 88.4375 125.205 87.7614C125.205 87.0795 125.329 86.4844 125.576 85.9759C125.826 85.4673 126.173 85.0724 126.616 84.7912C127.062 84.5099 127.58 84.3693 128.171 84.3693C128.762 84.3693 129.279 84.5099 129.722 84.7912C130.169 85.0724 130.515 85.4673 130.762 85.9759C131.012 86.4844 131.137 87.0795 131.137 87.7614C131.137 88.4375 131.012 89.0284 130.762 89.5341C130.515 90.0398 130.169 90.4332 129.722 90.7145C129.279 90.9957 128.762 91.1364 128.171 91.1364ZM128.171 90.233C128.62 90.233 128.99 90.1179 129.279 89.8878C129.569 89.6577 129.784 89.3551 129.923 88.9801C130.062 88.6051 130.132 88.1989 130.132 87.7614C130.132 87.3239 130.062 86.9162 129.923 86.5384C129.784 86.1605 129.569 85.8551 129.279 85.6222C128.99 85.3892 128.62 85.2727 128.171 85.2727C127.722 85.2727 127.353 85.3892 127.063 85.6222C126.774 85.8551 126.559 86.1605 126.42 86.5384C126.281 86.9162 126.211 87.3239 126.211 87.7614C126.211 88.1989 126.281 88.6051 126.42 88.9801C126.559 89.3551 126.774 89.6577 127.063 89.8878C127.353 90.1179 127.722 90.233 128.171 90.233ZM137.309 85.9205L136.405 86.1761C136.349 86.0256 136.265 85.8793 136.154 85.7372C136.046 85.5923 135.898 85.473 135.711 85.3793C135.523 85.2855 135.283 85.2386 134.991 85.2386C134.59 85.2386 134.256 85.331 133.989 85.5156C133.725 85.6974 133.593 85.929 133.593 86.2102C133.593 86.4602 133.684 86.6577 133.866 86.8026C134.047 86.9474 134.331 87.0682 134.718 87.1648L135.689 87.4034C136.275 87.5455 136.711 87.7628 136.998 88.0554C137.285 88.3452 137.428 88.7187 137.428 89.1761C137.428 89.5511 137.32 89.8864 137.104 90.1818C136.891 90.4773 136.593 90.7102 136.209 90.8807C135.826 91.0511 135.38 91.1364 134.871 91.1364C134.204 91.1364 133.651 90.9915 133.214 90.7017C132.776 90.4119 132.499 89.9886 132.383 89.4318L133.337 89.1932C133.428 89.5455 133.6 89.8097 133.853 89.9858C134.108 90.1619 134.442 90.25 134.854 90.25C135.323 90.25 135.695 90.1506 135.971 89.9517C136.249 89.75 136.388 89.5085 136.388 89.2273C136.388 89 136.309 88.8097 136.15 88.6562C135.991 88.5 135.746 88.3835 135.417 88.3068L134.326 88.0511C133.726 87.9091 133.286 87.6889 133.005 87.3906C132.726 87.0895 132.587 86.7131 132.587 86.2614C132.587 85.892 132.691 85.5653 132.898 85.2812C133.108 84.9972 133.394 84.7741 133.755 84.6122C134.118 84.4503 134.53 84.3693 134.991 84.3693C135.638 84.3693 136.147 84.5114 136.516 84.7955C136.888 85.0795 137.153 85.4545 137.309 85.9205ZM26.7631 106.136C26.1495 106.136 25.6211 105.991 25.1779 105.702C24.7347 105.412 24.3938 105.013 24.1552 104.504C23.9165 103.996 23.7972 103.415 23.7972 102.761C23.7972 102.097 23.9194 101.51 24.1637 101.001C24.4109 100.49 24.7546 100.091 25.195 99.804C25.6381 99.5142 26.1552 99.3693 26.7461 99.3693C27.2063 99.3693 27.6211 99.4545 27.9904 99.625C28.3597 99.7955 28.6623 100.034 28.8981 100.341C29.1339 100.648 29.2802 101.006 29.337 101.415H28.3313C28.2546 101.116 28.0842 100.852 27.82 100.622C27.5586 100.389 27.2063 100.273 26.7631 100.273C26.3711 100.273 26.0273 100.375 25.7319 100.58C25.4393 100.781 25.2106 101.067 25.0458 101.436C24.8839 101.803 24.8029 102.233 24.8029 102.727C24.8029 103.233 24.8825 103.673 25.0415 104.048C25.2035 104.423 25.4308 104.714 25.7234 104.922C26.0188 105.129 26.3654 105.233 26.7631 105.233C27.0245 105.233 27.2617 105.188 27.4748 105.097C27.6879 105.006 27.8683 104.875 28.016 104.705C28.1637 104.534 28.2688 104.33 28.3313 104.091H29.337C29.2802 104.477 29.1396 104.825 28.9151 105.135C28.6935 105.442 28.3995 105.686 28.033 105.868C27.6694 106.047 27.2461 106.136 26.7631 106.136ZM31.8129 97.2727V106H30.8072V97.2727H31.8129ZM33.6548 106V99.4545H34.6605V106H33.6548ZM34.1662 98.3636C33.9702 98.3636 33.8011 98.2969 33.6591 98.1634C33.5199 98.0298 33.4503 97.8693 33.4503 97.6818C33.4503 97.4943 33.5199 97.3338 33.6591 97.2003C33.8011 97.0668 33.9702 97 34.1662 97C34.3622 97 34.5298 97.0668 34.669 97.2003C34.8111 97.3338 34.8821 97.4943 34.8821 97.6818C34.8821 97.8693 34.8111 98.0298 34.669 98.1634C34.5298 98.2969 34.3622 98.3636 34.1662 98.3636ZM39.2468 106.136C38.6161 106.136 38.0721 105.997 37.6147 105.719C37.1602 105.438 36.8093 105.045 36.5621 104.543C36.3178 104.037 36.1957 103.449 36.1957 102.778C36.1957 102.108 36.3178 101.517 36.5621 101.006C36.8093 100.491 37.1531 100.091 37.5934 99.804C38.0366 99.5142 38.5536 99.3693 39.1445 99.3693C39.4854 99.3693 39.8221 99.4261 40.1545 99.5398C40.4869 99.6534 40.7894 99.8381 41.0621 100.094C41.3349 100.347 41.5522 100.682 41.7141 101.099C41.8761 101.517 41.957 102.031 41.957 102.642V103.068H36.9116V102.199H40.9343C40.9343 101.83 40.8604 101.5 40.7127 101.21C40.5678 100.92 40.3604 100.692 40.0906 100.524C39.8235 100.357 39.5082 100.273 39.1445 100.273C38.744 100.273 38.3974 100.372 38.1048 100.571C37.815 100.767 37.592 101.023 37.4357 101.338C37.2795 101.653 37.2013 101.991 37.2013 102.352V102.932C37.2013 103.426 37.2866 103.845 37.457 104.189C37.6303 104.53 37.8704 104.79 38.1772 104.969C38.484 105.145 38.8406 105.233 39.2468 105.233C39.511 105.233 39.7496 105.196 39.9627 105.122C40.1786 105.045 40.3647 104.932 40.521 104.781C40.6772 104.628 40.7979 104.437 40.8832 104.21L41.8548 104.483C41.7525 104.812 41.5806 105.102 41.3391 105.352C41.0977 105.599 40.7994 105.793 40.4442 105.932C40.0891 106.068 39.69 106.136 39.2468 106.136ZM44.4925 102.062V106H43.4869V99.4545H44.4585V100.477H44.5437C44.6971 100.145 44.93 99.8778 45.2425 99.6761C45.555 99.4716 45.9585 99.3693 46.4528 99.3693C46.896 99.3693 47.2837 99.4602 47.6161 99.642C47.9485 99.821 48.207 100.094 48.3917 100.46C48.5763 100.824 48.6687 101.284 48.6687 101.841V106H47.663V101.909C47.663 101.395 47.5295 100.994 47.2624 100.707C46.9954 100.418 46.6289 100.273 46.163 100.273C45.842 100.273 45.555 100.342 45.3022 100.482C45.0522 100.621 44.8548 100.824 44.7099 101.091C44.565 101.358 44.4925 101.682 44.4925 102.062ZM53.353 99.4545V100.307H49.9609V99.4545H53.353ZM50.9496 97.8864H51.9553V104.125C51.9553 104.409 51.9964 104.622 52.0788 104.764C52.1641 104.903 52.272 104.997 52.4027 105.045C52.5362 105.091 52.6768 105.114 52.8246 105.114C52.9354 105.114 53.0263 105.108 53.0973 105.097C53.1683 105.082 53.2251 105.071 53.2678 105.062L53.4723 105.966C53.4041 105.991 53.3089 106.017 53.1868 106.043C53.0646 106.071 52.9098 106.085 52.7223 106.085C52.4382 106.085 52.1598 106.024 51.8871 105.902C51.6172 105.78 51.3928 105.594 51.2138 105.344C51.0376 105.094 50.9496 104.778 50.9496 104.398V97.8864ZM57.5398 106.136C56.9091 106.136 56.3651 105.997 55.9077 105.719C55.4531 105.438 55.1023 105.045 54.8551 104.543C54.6108 104.037 54.4886 103.449 54.4886 102.778C54.4886 102.108 54.6108 101.517 54.8551 101.006C55.1023 100.491 55.446 100.091 55.8864 99.804C56.3295 99.5142 56.8466 99.3693 57.4375 99.3693C57.7784 99.3693 58.1151 99.4261 58.4474 99.5398C58.7798 99.6534 59.0824 99.8381 59.3551 100.094C59.6278 100.347 59.8452 100.682 60.0071 101.099C60.169 101.517 60.25 102.031 60.25 102.642V103.068H55.2045V102.199H59.2273C59.2273 101.83 59.1534 101.5 59.0057 101.21C58.8608 100.92 58.6534 100.692 58.3835 100.524C58.1165 100.357 57.8011 100.273 57.4375 100.273C57.0369 100.273 56.6903 100.372 56.3977 100.571C56.108 100.767 55.8849 101.023 55.7287 101.338C55.5724 101.653 55.4943 101.991 55.4943 102.352V102.932C55.4943 103.426 55.5795 103.845 55.75 104.189C55.9233 104.53 56.1634 104.79 56.4702 104.969C56.777 105.145 57.1335 105.233 57.5398 105.233C57.804 105.233 58.0426 105.196 58.2557 105.122C58.4716 105.045 58.6577 104.932 58.8139 104.781C58.9702 104.628 59.0909 104.437 59.1761 104.21L60.1477 104.483C60.0455 104.812 59.8736 105.102 59.6321 105.352C59.3906 105.599 59.0923 105.793 58.7372 105.932C58.3821 106.068 57.983 106.136 57.5398 106.136ZM66.4162 100.92L65.5128 101.176C65.456 101.026 65.3722 100.879 65.2614 100.737C65.1534 100.592 65.0057 100.473 64.8182 100.379C64.6307 100.286 64.3906 100.239 64.098 100.239C63.6974 100.239 63.3636 100.331 63.0966 100.516C62.8324 100.697 62.7003 100.929 62.7003 101.21C62.7003 101.46 62.7912 101.658 62.973 101.803C63.1548 101.947 63.4389 102.068 63.8253 102.165L64.7969 102.403C65.3821 102.545 65.8182 102.763 66.1051 103.055C66.392 103.345 66.5355 103.719 66.5355 104.176C66.5355 104.551 66.4276 104.886 66.2116 105.182C65.9986 105.477 65.7003 105.71 65.3168 105.881C64.9332 106.051 64.4872 106.136 63.9787 106.136C63.3111 106.136 62.7585 105.991 62.321 105.702C61.8835 105.412 61.6065 104.989 61.4901 104.432L62.4446 104.193C62.5355 104.545 62.7074 104.81 62.9602 104.986C63.2159 105.162 63.5497 105.25 63.9616 105.25C64.4304 105.25 64.8026 105.151 65.0781 104.952C65.3565 104.75 65.4957 104.509 65.4957 104.227C65.4957 104 65.4162 103.81 65.2571 103.656C65.098 103.5 64.8537 103.384 64.5241 103.307L63.4332 103.051C62.8338 102.909 62.3935 102.689 62.1122 102.391C61.8338 102.089 61.6946 101.713 61.6946 101.261C61.6946 100.892 61.7983 100.565 62.0057 100.281C62.2159 99.9972 62.5014 99.7741 62.8622 99.6122C63.2259 99.4503 63.6378 99.3693 64.098 99.3693C64.7457 99.3693 65.2543 99.5114 65.6236 99.7955C65.9957 100.08 66.2599 100.455 66.4162 100.92ZM71.4244 108.455V99.4545H72.396V100.494H72.5153C72.5891 100.381 72.6914 100.236 72.8221 100.06C72.9556 99.8807 73.146 99.7216 73.3931 99.5824C73.6431 99.4403 73.9812 99.3693 74.4073 99.3693C74.9585 99.3693 75.4442 99.5071 75.8647 99.7827C76.2852 100.058 76.6133 100.449 76.8491 100.955C77.0849 101.46 77.2028 102.057 77.2028 102.744C77.2028 103.438 77.0849 104.038 76.8491 104.547C76.6133 105.053 76.2866 105.445 75.869 105.723C75.4513 105.999 74.9698 106.136 74.4244 106.136C74.0039 106.136 73.6673 106.067 73.4144 105.928C73.1616 105.786 72.967 105.625 72.8306 105.446C72.6942 105.264 72.5891 105.114 72.5153 104.994H72.43V108.455H71.4244ZM72.413 102.727C72.413 103.222 72.4854 103.658 72.6303 104.036C72.7752 104.411 72.9869 104.705 73.2653 104.918C73.5437 105.128 73.8846 105.233 74.288 105.233C74.7085 105.233 75.0593 105.122 75.3406 104.901C75.6246 104.676 75.8377 104.375 75.9798 103.997C76.1246 103.616 76.1971 103.193 76.1971 102.727C76.1971 102.267 76.1261 101.852 75.984 101.483C75.8448 101.111 75.6332 100.817 75.3491 100.601C75.0678 100.382 74.7141 100.273 74.288 100.273C73.8789 100.273 73.5352 100.376 73.2567 100.584C72.9783 100.788 72.7681 101.075 72.6261 101.445C72.484 101.811 72.413 102.239 72.413 102.727ZM81.4812 106.136C80.8505 106.136 80.3065 105.997 79.8491 105.719C79.3945 105.438 79.0437 105.045 78.7965 104.543C78.5522 104.037 78.43 103.449 78.43 102.778C78.43 102.108 78.5522 101.517 78.7965 101.006C79.0437 100.491 79.3874 100.091 79.8278 99.804C80.271 99.5142 80.788 99.3693 81.3789 99.3693C81.7198 99.3693 82.0565 99.4261 82.3888 99.5398C82.7212 99.6534 83.0238 99.8381 83.2965 100.094C83.5692 100.347 83.7866 100.682 83.9485 101.099C84.1104 101.517 84.1914 102.031 84.1914 102.642V103.068H79.146V102.199H83.1687C83.1687 101.83 83.0948 101.5 82.9471 101.21C82.8022 100.92 82.5948 100.692 82.3249 100.524C82.0579 100.357 81.7425 100.273 81.3789 100.273C80.9783 100.273 80.6317 100.372 80.3391 100.571C80.0494 100.767 79.8263 101.023 79.6701 101.338C79.5138 101.653 79.4357 101.991 79.4357 102.352V102.932C79.4357 103.426 79.521 103.845 79.6914 104.189C79.8647 104.53 80.1048 104.79 80.4116 104.969C80.7184 105.145 81.0749 105.233 81.4812 105.233C81.7454 105.233 81.984 105.196 82.1971 105.122C82.413 105.045 82.5991 104.932 82.7553 104.781C82.9116 104.628 83.0323 104.437 83.1175 104.21L84.0891 104.483C83.9869 104.812 83.815 105.102 83.5735 105.352C83.332 105.599 83.0337 105.793 82.6786 105.932C82.3235 106.068 81.9244 106.136 81.4812 106.136ZM88.1928 106.136C87.6474 106.136 87.1658 105.999 86.7482 105.723C86.3306 105.445 86.0039 105.053 85.7681 104.547C85.5323 104.038 85.4144 103.438 85.4144 102.744C85.4144 102.057 85.5323 101.46 85.7681 100.955C86.0039 100.449 86.332 100.058 86.7525 99.7827C87.1729 99.5071 87.6587 99.3693 88.2099 99.3693C88.636 99.3693 88.9727 99.4403 89.2198 99.5824C89.4698 99.7216 89.6602 99.8807 89.7908 100.06C89.9244 100.236 90.0281 100.381 90.1019 100.494H90.1871V97.2727H91.1928V106H90.2212V104.994H90.1019C90.0281 105.114 89.9229 105.264 89.7866 105.446C89.6502 105.625 89.4556 105.786 89.2028 105.928C88.9499 106.067 88.6133 106.136 88.1928 106.136ZM88.3292 105.233C88.7326 105.233 89.0735 105.128 89.3519 104.918C89.6303 104.705 89.842 104.411 89.9869 104.036C90.1317 103.658 90.2042 103.222 90.2042 102.727C90.2042 102.239 90.1332 101.811 89.9911 101.445C89.8491 101.075 89.6388 100.788 89.3604 100.584C89.082 100.376 88.7383 100.273 88.3292 100.273C87.9031 100.273 87.5479 100.382 87.2638 100.601C86.9826 100.817 86.771 101.111 86.6289 101.483C86.4897 101.852 86.4201 102.267 86.4201 102.727C86.4201 103.193 86.4911 103.616 86.6332 103.997C86.7781 104.375 86.9911 104.676 87.2724 104.901C87.5565 105.122 87.9087 105.233 88.3292 105.233ZM95.9187 106.136C95.288 106.136 94.744 105.997 94.2866 105.719C93.832 105.438 93.4812 105.045 93.234 104.543C92.9897 104.037 92.8675 103.449 92.8675 102.778C92.8675 102.108 92.9897 101.517 93.234 101.006C93.4812 100.491 93.8249 100.091 94.2653 99.804C94.7085 99.5142 95.2255 99.3693 95.8164 99.3693C96.1573 99.3693 96.494 99.4261 96.8263 99.5398C97.1587 99.6534 97.4613 99.8381 97.734 100.094C98.0067 100.347 98.2241 100.682 98.386 101.099C98.5479 101.517 98.6289 102.031 98.6289 102.642V103.068H93.5835V102.199H97.6062C97.6062 101.83 97.5323 101.5 97.3846 101.21C97.2397 100.92 97.0323 100.692 96.7624 100.524C96.4954 100.357 96.18 100.273 95.8164 100.273C95.4158 100.273 95.0692 100.372 94.7766 100.571C94.4869 100.767 94.2638 101.023 94.1076 101.338C93.9513 101.653 93.8732 101.991 93.8732 102.352V102.932C93.8732 103.426 93.9585 103.845 94.1289 104.189C94.3022 104.53 94.5423 104.79 94.8491 104.969C95.1559 105.145 95.5124 105.233 95.9187 105.233C96.1829 105.233 96.4215 105.196 96.6346 105.122C96.8505 105.045 97.0366 104.932 97.1928 104.781C97.3491 104.628 97.4698 104.437 97.555 104.21L98.5266 104.483C98.4244 104.812 98.2525 105.102 98.011 105.352C97.7695 105.599 97.4712 105.793 97.1161 105.932C96.761 106.068 96.3619 106.136 95.9187 106.136ZM106.193 106.136C105.602 106.136 105.083 105.996 104.637 105.714C104.194 105.433 103.848 105.04 103.598 104.534C103.35 104.028 103.227 103.437 103.227 102.761C103.227 102.08 103.35 101.484 103.598 100.976C103.848 100.467 104.194 100.072 104.637 99.7912C105.083 99.5099 105.602 99.3693 106.193 99.3693C106.784 99.3693 107.301 99.5099 107.744 99.7912C108.19 100.072 108.537 100.467 108.784 100.976C109.034 101.484 109.159 102.08 109.159 102.761C109.159 103.437 109.034 104.028 108.784 104.534C108.537 105.04 108.19 105.433 107.744 105.714C107.301 105.996 106.784 106.136 106.193 106.136ZM106.193 105.233C106.642 105.233 107.011 105.118 107.301 104.888C107.591 104.658 107.805 104.355 107.944 103.98C108.083 103.605 108.153 103.199 108.153 102.761C108.153 102.324 108.083 101.916 107.944 101.538C107.805 101.161 107.591 100.855 107.301 100.622C107.011 100.389 106.642 100.273 106.193 100.273C105.744 100.273 105.375 100.389 105.085 100.622C104.795 100.855 104.581 101.161 104.441 101.538C104.302 101.916 104.233 102.324 104.233 102.761C104.233 103.199 104.302 103.605 104.441 103.98C104.581 104.355 104.795 104.658 105.085 104.888C105.375 105.118 105.744 105.233 106.193 105.233ZM116.54 106.136C115.995 106.136 115.513 105.999 115.096 105.723C114.678 105.445 114.352 105.053 114.116 104.547C113.88 104.038 113.762 103.438 113.762 102.744C113.762 102.057 113.88 101.46 114.116 100.955C114.352 100.449 114.68 100.058 115.1 99.7827C115.521 99.5071 116.006 99.3693 116.558 99.3693C116.984 99.3693 117.32 99.4403 117.567 99.5824C117.817 99.7216 118.008 99.8807 118.138 100.06C118.272 100.236 118.376 100.381 118.45 100.494H118.535V97.2727H119.54V106H118.569V104.994H118.45C118.376 105.114 118.271 105.264 118.134 105.446C117.998 105.625 117.803 105.786 117.55 105.928C117.298 106.067 116.961 106.136 116.54 106.136ZM116.677 105.233C117.08 105.233 117.421 105.128 117.7 104.918C117.978 104.705 118.19 104.411 118.335 104.036C118.479 103.658 118.552 103.222 118.552 102.727C118.552 102.239 118.481 101.811 118.339 101.445C118.197 101.075 117.987 100.788 117.708 100.584C117.43 100.376 117.086 100.273 116.677 100.273C116.251 100.273 115.896 100.382 115.612 100.601C115.33 100.817 115.119 101.111 114.977 101.483C114.837 101.852 114.768 102.267 114.768 102.727C114.768 103.193 114.839 103.616 114.981 103.997C115.126 104.375 115.339 104.676 115.62 104.901C115.904 105.122 116.256 105.233 116.677 105.233ZM121.522 106V99.4545H122.528V106H121.522ZM122.033 98.3636C121.837 98.3636 121.668 98.2969 121.526 98.1634C121.387 98.0298 121.317 97.8693 121.317 97.6818C121.317 97.4943 121.387 97.3338 121.526 97.2003C121.668 97.0668 121.837 97 122.033 97C122.229 97 122.397 97.0668 122.536 97.2003C122.678 97.3338 122.749 97.4943 122.749 97.6818C122.749 97.8693 122.678 98.0298 122.536 98.1634C122.397 98.2969 122.229 98.3636 122.033 98.3636ZM125.375 102.062V106H124.37V99.4545H125.341V100.477H125.426C125.58 100.145 125.813 99.8778 126.125 99.6761C126.438 99.4716 126.841 99.3693 127.336 99.3693C127.779 99.3693 128.167 99.4602 128.499 99.642C128.831 99.821 129.09 100.094 129.275 100.46C129.459 100.824 129.551 101.284 129.551 101.841V106H128.546V101.909C128.546 101.395 128.412 100.994 128.145 100.707C127.878 100.418 127.512 100.273 127.046 100.273C126.725 100.273 126.438 100.342 126.185 100.482C125.935 100.621 125.738 100.824 125.593 101.091C125.448 101.358 125.375 101.682 125.375 102.062ZM132.395 102.062V106H131.389V97.2727H132.395V100.477H132.48C132.634 100.139 132.864 99.8707 133.17 99.6719C133.48 99.4702 133.892 99.3693 134.406 99.3693C134.852 99.3693 135.243 99.4588 135.578 99.6378C135.913 99.8139 136.173 100.085 136.358 100.452C136.545 100.815 136.639 101.278 136.639 101.841V106H135.634V101.909C135.634 101.389 135.499 100.987 135.229 100.703C134.962 100.416 134.591 100.273 134.116 100.273C133.787 100.273 133.491 100.342 133.23 100.482C132.972 100.621 132.767 100.824 132.616 101.091C132.469 101.358 132.395 101.682 132.395 102.062ZM141.223 106.136C140.593 106.136 140.049 105.997 139.591 105.719C139.137 105.438 138.786 105.045 138.539 104.543C138.294 104.037 138.172 103.449 138.172 102.778C138.172 102.108 138.294 101.517 138.539 101.006C138.786 100.491 139.13 100.091 139.57 99.804C140.013 99.5142 140.53 99.3693 141.121 99.3693C141.462 99.3693 141.799 99.4261 142.131 99.5398C142.463 99.6534 142.766 99.8381 143.039 100.094C143.311 100.347 143.529 100.682 143.691 101.099C143.853 101.517 143.934 102.031 143.934 102.642V103.068H138.888V102.199H142.911C142.911 101.83 142.837 101.5 142.689 101.21C142.544 100.92 142.337 100.692 142.067 100.524C141.8 100.357 141.485 100.273 141.121 100.273C140.721 100.273 140.374 100.372 140.081 100.571C139.792 100.767 139.569 101.023 139.412 101.338C139.256 101.653 139.178 101.991 139.178 102.352V102.932C139.178 103.426 139.263 103.845 139.434 104.189C139.607 104.53 139.847 104.79 140.154 104.969C140.461 105.145 140.817 105.233 141.223 105.233C141.488 105.233 141.726 105.196 141.939 105.122C142.155 105.045 142.341 104.932 142.498 104.781C142.654 104.628 142.775 104.437 142.86 104.21L143.831 104.483C143.729 104.812 143.557 105.102 143.316 105.352C143.074 105.599 142.776 105.793 142.421 105.932C142.066 106.068 141.667 106.136 141.223 106.136ZM145.463 106V99.4545H146.469V106H145.463ZM145.975 98.3636C145.779 98.3636 145.61 98.2969 145.468 98.1634C145.328 98.0298 145.259 97.8693 145.259 97.6818C145.259 97.4943 145.328 97.3338 145.468 97.2003C145.61 97.0668 145.779 97 145.975 97C146.171 97 146.338 97.0668 146.478 97.2003C146.62 97.3338 146.691 97.4943 146.691 97.6818C146.691 97.8693 146.62 98.0298 146.478 98.1634C146.338 98.2969 146.171 98.3636 145.975 98.3636ZM148.311 106V99.4545H149.283V100.443H149.351C149.47 100.119 149.686 99.8565 149.999 99.6548C150.311 99.4531 150.663 99.3523 151.055 99.3523C151.129 99.3523 151.222 99.3537 151.332 99.3565C151.443 99.3594 151.527 99.3636 151.584 99.3693V100.392C151.55 100.384 151.472 100.371 151.349 100.354C151.23 100.334 151.104 100.324 150.97 100.324C150.652 100.324 150.368 100.391 150.118 100.524C149.871 100.655 149.675 100.837 149.53 101.07C149.388 101.3 149.317 101.562 149.317 101.858V106H148.311ZM155.236 106.136C154.645 106.136 154.126 105.996 153.68 105.714C153.237 105.433 152.891 105.04 152.641 104.534C152.393 104.028 152.27 103.437 152.27 102.761C152.27 102.08 152.393 101.484 152.641 100.976C152.891 100.467 153.237 100.072 153.68 99.7912C154.126 99.5099 154.645 99.3693 155.236 99.3693C155.827 99.3693 156.344 99.5099 156.787 99.7912C157.233 100.072 157.58 100.467 157.827 100.976C158.077 101.484 158.202 102.08 158.202 102.761C158.202 103.437 158.077 104.028 157.827 104.534C157.58 105.04 157.233 105.433 156.787 105.714C156.344 105.996 155.827 106.136 155.236 106.136ZM155.236 105.233C155.685 105.233 156.054 105.118 156.344 104.888C156.634 104.658 156.848 104.355 156.987 103.98C157.126 103.605 157.196 103.199 157.196 102.761C157.196 102.324 157.126 101.916 156.987 101.538C156.848 101.161 156.634 100.855 156.344 100.622C156.054 100.389 155.685 100.273 155.236 100.273C154.787 100.273 154.418 100.389 154.128 100.622C153.838 100.855 153.624 101.161 153.484 101.538C153.345 101.916 153.276 102.324 153.276 102.761C153.276 103.199 153.345 103.605 153.484 103.98C153.624 104.355 153.838 104.658 154.128 104.888C154.418 105.118 154.787 105.233 155.236 105.233ZM71.6987 121.136C71.1532 121.136 70.6717 120.999 70.2541 120.723C69.8365 120.445 69.5098 120.053 69.274 119.547C69.0382 119.038 68.9203 118.438 68.9203 117.744C68.9203 117.057 69.0382 116.46 69.274 115.955C69.5098 115.449 69.8379 115.058 70.2583 114.783C70.6788 114.507 71.1646 114.369 71.7157 114.369C72.1419 114.369 72.4785 114.44 72.7257 114.582C72.9757 114.722 73.166 114.881 73.2967 115.06C73.4302 115.236 73.5339 115.381 73.6078 115.494H73.693V112.273H74.6987V121H73.7271V119.994H73.6078C73.5339 120.114 73.4288 120.264 73.2924 120.446C73.1561 120.625 72.9615 120.786 72.7086 120.928C72.4558 121.067 72.1191 121.136 71.6987 121.136ZM71.835 120.233C72.2385 120.233 72.5794 120.128 72.8578 119.918C73.1362 119.705 73.3478 119.411 73.4927 119.036C73.6376 118.658 73.71 118.222 73.71 117.727C73.71 117.239 73.639 116.811 73.497 116.445C73.3549 116.075 73.1447 115.788 72.8663 115.584C72.5879 115.376 72.2441 115.273 71.835 115.273C71.4089 115.273 71.0538 115.382 70.7697 115.601C70.4885 115.817 70.2768 116.111 70.1348 116.483C69.9956 116.852 69.926 117.267 69.926 117.727C69.926 118.193 69.997 118.616 70.139 118.997C70.2839 119.375 70.497 119.676 70.7782 119.901C71.0623 120.122 71.4146 120.233 71.835 120.233ZM79.4245 121.136C78.7939 121.136 78.2498 120.997 77.7924 120.719C77.3379 120.438 76.987 120.045 76.7399 119.543C76.4956 119.037 76.3734 118.449 76.3734 117.778C76.3734 117.108 76.4956 116.517 76.7399 116.006C76.987 115.491 77.3308 115.091 77.7711 114.804C78.2143 114.514 78.7314 114.369 79.3223 114.369C79.6632 114.369 79.9998 114.426 80.3322 114.54C80.6646 114.653 80.9672 114.838 81.2399 115.094C81.5126 115.347 81.7299 115.682 81.8919 116.099C82.0538 116.517 82.1348 117.031 82.1348 117.642V118.068H77.0893V117.199H81.112C81.112 116.83 81.0382 116.5 80.8904 116.21C80.7456 115.92 80.5382 115.692 80.2683 115.524C80.0012 115.357 79.6859 115.273 79.3223 115.273C78.9217 115.273 78.5751 115.372 78.2825 115.571C77.9927 115.767 77.7697 116.023 77.6135 116.338C77.4572 116.653 77.3791 116.991 77.3791 117.352V117.932C77.3791 118.426 77.4643 118.845 77.6348 119.189C77.8081 119.53 78.0481 119.79 78.3549 119.969C78.6618 120.145 79.0183 120.233 79.4245 120.233C79.6887 120.233 79.9274 120.196 80.1404 120.122C80.3564 120.045 80.5424 119.932 80.6987 119.781C80.8549 119.628 80.9757 119.437 81.0609 119.21L82.0325 119.483C81.9302 119.812 81.7583 120.102 81.5169 120.352C81.2754 120.599 80.9771 120.793 80.622 120.932C80.2669 121.068 79.8677 121.136 79.4245 121.136ZM92.3919 114.455L89.9714 121H88.9487L86.5282 114.455H87.6191L89.426 119.67H89.4941L91.301 114.455H92.3919ZM96.144 121.136C95.5531 121.136 95.0346 120.996 94.5886 120.714C94.1454 120.433 93.7988 120.04 93.5488 119.534C93.3017 119.028 93.1781 118.437 93.1781 117.761C93.1781 117.08 93.3017 116.484 93.5488 115.976C93.7988 115.467 94.1454 115.072 94.5886 114.791C95.0346 114.51 95.5531 114.369 96.144 114.369C96.7349 114.369 97.252 114.51 97.6951 114.791C98.1412 115.072 98.4877 115.467 98.7349 115.976C98.9849 116.484 99.1099 117.08 99.1099 117.761C99.1099 118.437 98.9849 119.028 98.7349 119.534C98.4877 120.04 98.1412 120.433 97.6951 120.714C97.252 120.996 96.7349 121.136 96.144 121.136ZM96.144 120.233C96.5929 120.233 96.9622 120.118 97.252 119.888C97.5417 119.658 97.7562 119.355 97.8954 118.98C98.0346 118.605 98.1042 118.199 98.1042 117.761C98.1042 117.324 98.0346 116.916 97.8954 116.538C97.7562 116.161 97.5417 115.855 97.252 115.622C96.9622 115.389 96.5929 115.273 96.144 115.273C95.6951 115.273 95.3258 115.389 95.036 115.622C94.7463 115.855 94.5318 116.161 94.3926 116.538C94.2534 116.916 94.1838 117.324 94.1838 117.761C94.1838 118.199 94.2534 118.605 94.3926 118.98C94.5318 119.355 94.7463 119.658 95.036 119.888C95.3258 120.118 95.6951 120.233 96.144 120.233ZM101.651 112.273V121H100.645V112.273H101.651ZM106.339 114.455V115.307H102.947V114.455H106.339ZM103.936 112.886H104.942V119.125C104.942 119.409 104.983 119.622 105.065 119.764C105.15 119.903 105.258 119.997 105.389 120.045C105.523 120.091 105.663 120.114 105.811 120.114C105.922 120.114 106.013 120.108 106.084 120.097C106.155 120.082 106.211 120.071 106.254 120.062L106.459 120.966C106.39 120.991 106.295 121.017 106.173 121.043C106.051 121.071 105.896 121.085 105.709 121.085C105.425 121.085 105.146 121.024 104.873 120.902C104.604 120.78 104.379 120.594 104.2 120.344C104.024 120.094 103.936 119.778 103.936 119.398V112.886ZM109.778 121.153C109.363 121.153 108.987 121.075 108.649 120.919C108.311 120.76 108.042 120.531 107.844 120.233C107.645 119.932 107.545 119.568 107.545 119.142C107.545 118.767 107.619 118.463 107.767 118.23C107.915 117.994 108.112 117.81 108.359 117.676C108.606 117.543 108.879 117.443 109.177 117.378C109.479 117.31 109.781 117.256 110.085 117.216C110.483 117.165 110.805 117.126 111.052 117.101C111.302 117.072 111.484 117.026 111.598 116.96C111.714 116.895 111.773 116.781 111.773 116.619V116.585C111.773 116.165 111.657 115.838 111.427 115.605C111.2 115.372 110.855 115.256 110.392 115.256C109.912 115.256 109.535 115.361 109.263 115.571C108.99 115.781 108.798 116.006 108.687 116.244L107.733 115.903C107.903 115.506 108.131 115.196 108.415 114.974C108.702 114.75 109.014 114.594 109.352 114.506C109.693 114.415 110.028 114.369 110.358 114.369C110.568 114.369 110.809 114.395 111.082 114.446C111.358 114.494 111.623 114.595 111.879 114.749C112.138 114.902 112.352 115.134 112.523 115.443C112.693 115.753 112.778 116.168 112.778 116.688V121H111.773V120.114H111.721C111.653 120.256 111.54 120.408 111.381 120.57C111.221 120.732 111.01 120.869 110.746 120.983C110.481 121.097 110.159 121.153 109.778 121.153ZM109.932 120.25C110.329 120.25 110.665 120.172 110.937 120.016C111.213 119.859 111.42 119.658 111.559 119.411C111.702 119.163 111.773 118.903 111.773 118.631V117.71C111.73 117.761 111.636 117.808 111.491 117.851C111.349 117.891 111.184 117.926 110.997 117.957C110.812 117.986 110.632 118.011 110.456 118.034C110.282 118.054 110.142 118.071 110.034 118.085C109.773 118.119 109.528 118.175 109.301 118.251C109.077 118.325 108.895 118.437 108.756 118.588C108.619 118.736 108.551 118.937 108.551 119.193C108.551 119.543 108.68 119.807 108.939 119.986C109.2 120.162 109.531 120.25 109.932 120.25Z" fill="black"/>
<path d="M240.623 94.1364C240.077 94.1364 239.596 93.9986 239.178 93.723C238.76 93.4446 238.434 93.0526 238.198 92.5469C237.962 92.0384 237.844 91.4375 237.844 90.7443C237.844 90.0568 237.962 89.4602 238.198 88.9545C238.434 88.4489 238.762 88.0582 239.182 87.7827C239.603 87.5071 240.088 87.3693 240.64 87.3693C241.066 87.3693 241.402 87.4403 241.65 87.5824C241.9 87.7216 242.09 87.8807 242.221 88.0597C242.354 88.2358 242.458 88.3807 242.532 88.4943H242.617V85.2727H243.623V94H242.651V92.9943H242.532C242.458 93.1136 242.353 93.2642 242.216 93.446C242.08 93.625 241.885 93.7855 241.632 93.9276C241.38 94.0668 241.043 94.1364 240.623 94.1364ZM240.759 93.233C241.162 93.233 241.503 93.1278 241.782 92.9176C242.06 92.7045 242.272 92.4105 242.417 92.0355C242.561 91.6577 242.634 91.2216 242.634 90.7273C242.634 90.2386 242.563 89.8111 242.421 89.4446C242.279 89.0753 242.069 88.7884 241.79 88.5838C241.512 88.3764 241.168 88.2727 240.759 88.2727C240.333 88.2727 239.978 88.3821 239.694 88.6009C239.412 88.8168 239.201 89.1108 239.059 89.483C238.919 89.8523 238.85 90.267 238.85 90.7273C238.85 91.1932 238.921 91.6165 239.063 91.9972C239.208 92.375 239.421 92.6761 239.702 92.9006C239.986 93.1222 240.338 93.233 240.759 93.233ZM248.348 94.1364C247.718 94.1364 247.174 93.9972 246.716 93.7188C246.262 93.4375 245.911 93.0455 245.664 92.5426C245.419 92.0369 245.297 91.4489 245.297 90.7784C245.297 90.108 245.419 89.517 245.664 89.0057C245.911 88.4915 246.255 88.0909 246.695 87.804C247.138 87.5142 247.655 87.3693 248.246 87.3693C248.587 87.3693 248.924 87.4261 249.256 87.5398C249.588 87.6534 249.891 87.8381 250.164 88.0938C250.436 88.3466 250.654 88.6818 250.816 89.0994C250.978 89.517 251.059 90.0312 251.059 90.642V91.0682H246.013V90.1989H250.036C250.036 89.8295 249.962 89.5 249.814 89.2102C249.669 88.9205 249.462 88.6918 249.192 88.5241C248.925 88.3565 248.61 88.2727 248.246 88.2727C247.846 88.2727 247.499 88.3722 247.206 88.571C246.917 88.767 246.694 89.0227 246.537 89.3381C246.381 89.6534 246.303 89.9915 246.303 90.3523V90.9318C246.303 91.4261 246.388 91.8452 246.559 92.1889C246.732 92.5298 246.972 92.7898 247.279 92.9688C247.586 93.1449 247.942 93.233 248.348 93.233C248.613 93.233 248.851 93.196 249.064 93.1222C249.28 93.0455 249.466 92.9318 249.623 92.7812C249.779 92.6278 249.9 92.4375 249.985 92.2102L250.956 92.483C250.854 92.8125 250.682 93.1023 250.441 93.3523C250.199 93.5994 249.901 93.7926 249.546 93.9318C249.191 94.0682 248.792 94.1364 248.348 94.1364ZM258.605 96.5909C258.12 96.5909 257.702 96.5284 257.353 96.4034C257.003 96.2812 256.712 96.1193 256.479 95.9176C256.249 95.7188 256.066 95.5057 255.929 95.2784L256.73 94.7159C256.821 94.8352 256.936 94.9716 257.076 95.125C257.215 95.2812 257.405 95.4162 257.647 95.5298C257.891 95.6463 258.211 95.7045 258.605 95.7045C259.134 95.7045 259.57 95.5767 259.914 95.321C260.257 95.0653 260.429 94.6648 260.429 94.1193V92.7898H260.344C260.27 92.9091 260.165 93.0568 260.029 93.233C259.895 93.4062 259.702 93.5611 259.449 93.6974C259.199 93.831 258.861 93.8977 258.435 93.8977C257.907 93.8977 257.432 93.7727 257.012 93.5227C256.594 93.2727 256.263 92.9091 256.019 92.4318C255.777 91.9545 255.657 91.375 255.657 90.6932C255.657 90.0227 255.775 89.4389 256.01 88.9418C256.246 88.4418 256.574 88.0554 256.995 87.7827C257.415 87.5071 257.901 87.3693 258.452 87.3693C258.878 87.3693 259.216 87.4403 259.466 87.5824C259.719 87.7216 259.912 87.8807 260.046 88.0597C260.182 88.2358 260.287 88.3807 260.361 88.4943H260.463V87.4545H261.435V94.1875C261.435 94.75 261.307 95.2074 261.051 95.5597C260.799 95.9148 260.458 96.1747 260.029 96.3395C259.603 96.5071 259.128 96.5909 258.605 96.5909ZM258.571 92.9943C258.975 92.9943 259.316 92.902 259.594 92.7173C259.873 92.5327 260.084 92.267 260.229 91.9205C260.374 91.5739 260.446 91.1591 260.446 90.6761C260.446 90.2045 260.375 89.7884 260.233 89.4276C260.091 89.0668 259.881 88.7841 259.603 88.5795C259.324 88.375 258.98 88.2727 258.571 88.2727C258.145 88.2727 257.79 88.3807 257.506 88.5966C257.225 88.8125 257.013 89.1023 256.871 89.4659C256.732 89.8295 256.662 90.233 256.662 90.6761C256.662 91.1307 256.733 91.5327 256.875 91.8821C257.02 92.2287 257.233 92.5014 257.515 92.7003C257.799 92.8963 258.151 92.9943 258.571 92.9943ZM265.202 94.1534C264.787 94.1534 264.411 94.0753 264.073 93.919C263.735 93.7599 263.466 93.5312 263.267 93.233C263.069 92.9318 262.969 92.5682 262.969 92.142C262.969 91.767 263.043 91.4631 263.191 91.2301C263.338 90.9943 263.536 90.8097 263.783 90.6761C264.03 90.5426 264.303 90.4432 264.601 90.3778C264.902 90.3097 265.205 90.2557 265.509 90.2159C265.907 90.1648 266.229 90.1264 266.476 90.1009C266.726 90.0724 266.908 90.0256 267.022 89.9602C267.138 89.8949 267.196 89.7812 267.196 89.6193V89.5852C267.196 89.1648 267.081 88.8381 266.851 88.6051C266.624 88.3722 266.279 88.2557 265.816 88.2557C265.336 88.2557 264.959 88.3608 264.686 88.571C264.414 88.7812 264.222 89.0057 264.111 89.2443L263.157 88.9034C263.327 88.5057 263.554 88.196 263.838 87.9744C264.125 87.75 264.438 87.5937 264.776 87.5057C265.117 87.4148 265.452 87.3693 265.782 87.3693C265.992 87.3693 266.233 87.3949 266.506 87.446C266.782 87.4943 267.047 87.5952 267.303 87.7486C267.561 87.902 267.776 88.1335 267.946 88.4432C268.117 88.7528 268.202 89.1676 268.202 89.6875V94H267.196V93.1136H267.145C267.077 93.2557 266.963 93.4077 266.804 93.5696C266.645 93.7315 266.434 93.8693 266.169 93.983C265.905 94.0966 265.583 94.1534 265.202 94.1534ZM265.355 93.25C265.753 93.25 266.088 93.1719 266.361 93.0156C266.637 92.8594 266.844 92.6577 266.983 92.4105C267.125 92.1634 267.196 91.9034 267.196 91.6307V90.7102C267.154 90.7614 267.06 90.8082 266.915 90.8509C266.773 90.8906 266.608 90.9261 266.421 90.9574C266.236 90.9858 266.056 91.0114 265.88 91.0341C265.706 91.054 265.566 91.071 265.458 91.0852C265.196 91.1193 264.952 91.1747 264.725 91.2514C264.5 91.3253 264.319 91.4375 264.179 91.5881C264.043 91.7358 263.975 91.9375 263.975 92.1932C263.975 92.5426 264.104 92.8068 264.363 92.9858C264.624 93.1619 264.955 93.25 265.355 93.25ZM270.038 94V87.4545H271.009V88.4432H271.077C271.197 88.1193 271.413 87.8565 271.725 87.6548C272.038 87.4531 272.39 87.3523 272.782 87.3523C272.856 87.3523 272.948 87.3537 273.059 87.3565C273.17 87.3594 273.254 87.3636 273.31 87.3693V88.392C273.276 88.3835 273.198 88.3707 273.076 88.3537C272.957 88.3338 272.83 88.3239 272.697 88.3239C272.379 88.3239 272.094 88.3906 271.844 88.5241C271.597 88.6548 271.401 88.8366 271.256 89.0696C271.114 89.2997 271.043 89.5625 271.043 89.858V94H270.038ZM276.429 94.1534C276.014 94.1534 275.637 94.0753 275.299 93.919C274.961 93.7599 274.693 93.5312 274.494 93.233C274.295 92.9318 274.196 92.5682 274.196 92.142C274.196 91.767 274.27 91.4631 274.417 91.2301C274.565 90.9943 274.762 90.8097 275.01 90.6761C275.257 90.5426 275.529 90.4432 275.828 90.3778C276.129 90.3097 276.431 90.2557 276.735 90.2159C277.133 90.1648 277.456 90.1264 277.703 90.1009C277.953 90.0724 278.135 90.0256 278.248 89.9602C278.365 89.8949 278.423 89.7812 278.423 89.6193V89.5852C278.423 89.1648 278.308 88.8381 278.078 88.6051C277.85 88.3722 277.505 88.2557 277.042 88.2557C276.562 88.2557 276.186 88.3608 275.913 88.571C275.64 88.7812 275.449 89.0057 275.338 89.2443L274.383 88.9034C274.554 88.5057 274.781 88.196 275.065 87.9744C275.352 87.75 275.664 87.5937 276.002 87.5057C276.343 87.4148 276.679 87.3693 277.008 87.3693C277.218 87.3693 277.46 87.3949 277.733 87.446C278.008 87.4943 278.274 87.5952 278.529 87.7486C278.788 87.902 279.002 88.1335 279.173 88.4432C279.343 88.7528 279.429 89.1676 279.429 89.6875V94H278.423V93.1136H278.372C278.304 93.2557 278.19 93.4077 278.031 93.5696C277.872 93.7315 277.66 93.8693 277.396 93.983C277.132 94.0966 276.809 94.1534 276.429 94.1534ZM276.582 93.25C276.98 93.25 277.315 93.1719 277.588 93.0156C277.863 92.8594 278.071 92.6577 278.21 92.4105C278.352 92.1634 278.423 91.9034 278.423 91.6307V90.7102C278.38 90.7614 278.287 90.8082 278.142 90.8509C278 90.8906 277.835 90.9261 277.647 90.9574C277.463 90.9858 277.282 91.0114 277.106 91.0341C276.933 91.054 276.792 91.071 276.684 91.0852C276.423 91.1193 276.179 91.1747 275.951 91.2514C275.727 91.3253 275.545 91.4375 275.406 91.5881C275.27 91.7358 275.201 91.9375 275.201 92.1932C275.201 92.5426 275.331 92.8068 275.589 92.9858C275.85 93.1619 276.181 93.25 276.582 93.25ZM282.27 90.0625V94H281.264V87.4545H282.236V88.4773H282.321C282.474 88.1449 282.707 87.8778 283.02 87.6761C283.332 87.4716 283.736 87.3693 284.23 87.3693C284.673 87.3693 285.061 87.4602 285.393 87.642C285.726 87.821 285.984 88.0938 286.169 88.4602C286.354 88.8239 286.446 89.2841 286.446 89.8409V94H285.44V89.9091C285.44 89.3949 285.307 88.9943 285.04 88.7074C284.773 88.4176 284.406 88.2727 283.94 88.2727C283.619 88.2727 283.332 88.3423 283.08 88.4815C282.83 88.6207 282.632 88.8239 282.487 89.0909C282.342 89.358 282.27 89.6818 282.27 90.0625ZM291.13 87.4545V88.3068H287.738V87.4545H291.13ZM288.727 85.8864H289.733V92.125C289.733 92.4091 289.774 92.6222 289.856 92.7642C289.941 92.9034 290.049 92.9972 290.18 93.0455C290.314 93.0909 290.454 93.1136 290.602 93.1136C290.713 93.1136 290.804 93.108 290.875 93.0966C290.946 93.0824 291.002 93.071 291.045 93.0625L291.25 93.9659C291.181 93.9915 291.086 94.017 290.964 94.0426C290.842 94.071 290.687 94.0852 290.5 94.0852C290.216 94.0852 289.937 94.0241 289.664 93.902C289.395 93.7798 289.17 93.5938 288.991 93.3438C288.815 93.0938 288.727 92.7784 288.727 92.3977V85.8864ZM292.643 94V87.4545H293.649V94H292.643ZM293.154 86.3636C292.958 86.3636 292.789 86.2969 292.647 86.1634C292.508 86.0298 292.439 85.8693 292.439 85.6818C292.439 85.4943 292.508 85.3338 292.647 85.2003C292.789 85.0668 292.958 85 293.154 85C293.35 85 293.518 85.0668 293.657 85.2003C293.799 85.3338 293.87 85.4943 293.87 85.6818C293.87 85.8693 293.799 86.0298 293.657 86.1634C293.518 86.2969 293.35 86.3636 293.154 86.3636ZM297.417 94.1534C297.002 94.1534 296.626 94.0753 296.288 93.919C295.95 93.7599 295.681 93.5312 295.482 93.233C295.283 92.9318 295.184 92.5682 295.184 92.142C295.184 91.767 295.258 91.4631 295.406 91.2301C295.553 90.9943 295.751 90.8097 295.998 90.6761C296.245 90.5426 296.518 90.4432 296.816 90.3778C297.117 90.3097 297.42 90.2557 297.724 90.2159C298.121 90.1648 298.444 90.1264 298.691 90.1009C298.941 90.0724 299.123 90.0256 299.237 89.9602C299.353 89.8949 299.411 89.7812 299.411 89.6193V89.5852C299.411 89.1648 299.296 88.8381 299.066 88.6051C298.839 88.3722 298.494 88.2557 298.031 88.2557C297.55 88.2557 297.174 88.3608 296.901 88.571C296.629 88.7812 296.437 89.0057 296.326 89.2443L295.371 88.9034C295.542 88.5057 295.769 88.196 296.053 87.9744C296.34 87.75 296.653 87.5937 296.991 87.5057C297.332 87.4148 297.667 87.3693 297.996 87.3693C298.207 87.3693 298.448 87.3949 298.721 87.446C298.996 87.4943 299.262 87.5952 299.518 87.7486C299.776 87.902 299.991 88.1335 300.161 88.4432C300.332 88.7528 300.417 89.1676 300.417 89.6875V94H299.411V93.1136H299.36C299.292 93.2557 299.178 93.4077 299.019 93.5696C298.86 93.7315 298.648 93.8693 298.384 93.983C298.12 94.0966 297.798 94.1534 297.417 94.1534ZM297.57 93.25C297.968 93.25 298.303 93.1719 298.576 93.0156C298.852 92.8594 299.059 92.6577 299.198 92.4105C299.34 92.1634 299.411 91.9034 299.411 91.6307V90.7102C299.369 90.7614 299.275 90.8082 299.13 90.8509C298.988 90.8906 298.823 90.9261 298.636 90.9574C298.451 90.9858 298.271 91.0114 298.094 91.0341C297.921 91.054 297.781 91.071 297.673 91.0852C297.411 91.1193 297.167 91.1747 296.94 91.2514C296.715 91.3253 296.533 91.4375 296.394 91.5881C296.258 91.7358 296.19 91.9375 296.19 92.1932C296.19 92.5426 296.319 92.8068 296.577 92.9858C296.839 93.1619 297.17 93.25 297.57 93.25ZM308.372 94.1364C307.741 94.1364 307.197 93.9972 306.74 93.7188C306.285 93.4375 305.934 93.0455 305.687 92.5426C305.443 92.0369 305.321 91.4489 305.321 90.7784C305.321 90.108 305.443 89.517 305.687 89.0057C305.934 88.4915 306.278 88.0909 306.718 87.804C307.162 87.5142 307.679 87.3693 308.27 87.3693C308.61 87.3693 308.947 87.4261 309.279 87.5398C309.612 87.6534 309.914 87.8381 310.187 88.0938C310.46 88.3466 310.677 88.6818 310.839 89.0994C311.001 89.517 311.082 90.0312 311.082 90.642V91.0682H306.037V90.1989H310.059C310.059 89.8295 309.985 89.5 309.838 89.2102C309.693 88.9205 309.485 88.6918 309.216 88.5241C308.949 88.3565 308.633 88.2727 308.27 88.2727C307.869 88.2727 307.522 88.3722 307.23 88.571C306.94 88.767 306.717 89.0227 306.561 89.3381C306.404 89.6534 306.326 89.9915 306.326 90.3523V90.9318C306.326 91.4261 306.412 91.8452 306.582 92.1889C306.755 92.5298 306.995 92.7898 307.302 92.9688C307.609 93.1449 307.966 93.233 308.372 93.233C308.636 93.233 308.875 93.196 309.088 93.1222C309.304 93.0455 309.49 92.9318 309.646 92.7812C309.802 92.6278 309.923 92.4375 310.008 92.2102L310.98 92.483C310.877 92.8125 310.706 93.1023 310.464 93.3523C310.223 93.5994 309.924 93.7926 309.569 93.9318C309.214 94.0682 308.815 94.1364 308.372 94.1364ZM317.248 88.9205L316.345 89.1761C316.288 89.0256 316.204 88.8793 316.093 88.7372C315.985 88.5923 315.838 88.473 315.65 88.3793C315.463 88.2855 315.223 88.2386 314.93 88.2386C314.529 88.2386 314.196 88.331 313.929 88.5156C313.664 88.6974 313.532 88.929 313.532 89.2102C313.532 89.4602 313.623 89.6577 313.805 89.8026C313.987 89.9474 314.271 90.0682 314.657 90.1648L315.629 90.4034C316.214 90.5455 316.65 90.7628 316.937 91.0554C317.224 91.3452 317.368 91.7187 317.368 92.1761C317.368 92.5511 317.26 92.8864 317.044 93.1818C316.831 93.4773 316.532 93.7102 316.149 93.8807C315.765 94.0511 315.319 94.1364 314.811 94.1364C314.143 94.1364 313.591 93.9915 313.153 93.7017C312.716 93.4119 312.439 92.9886 312.322 92.4318L313.277 92.1932C313.368 92.5455 313.539 92.8097 313.792 92.9858C314.048 93.1619 314.382 93.25 314.794 93.25C315.262 93.25 315.635 93.1506 315.91 92.9517C316.189 92.75 316.328 92.5085 316.328 92.2273C316.328 92 316.248 91.8097 316.089 91.6562C315.93 91.5 315.686 91.3835 315.356 91.3068L314.265 91.0511C313.666 90.9091 313.225 90.6889 312.944 90.3906C312.666 90.0895 312.527 89.7131 312.527 89.2614C312.527 88.892 312.63 88.5653 312.838 88.2812C313.048 87.9972 313.333 87.7741 313.694 87.6122C314.058 87.4503 314.47 87.3693 314.93 87.3693C315.578 87.3693 316.086 87.5114 316.456 87.7955C316.828 88.0795 317.092 88.4545 317.248 88.9205ZM321.728 87.4545V88.3068H318.336V87.4545H321.728ZM319.325 85.8864H320.33V92.125C320.33 92.4091 320.371 92.6222 320.454 92.7642C320.539 92.9034 320.647 92.9972 320.778 93.0455C320.911 93.0909 321.052 93.1136 321.2 93.1136C321.31 93.1136 321.401 93.108 321.472 93.0966C321.543 93.0824 321.6 93.071 321.643 93.0625L321.847 93.9659C321.779 93.9915 321.684 94.017 321.562 94.0426C321.44 94.071 321.285 94.0852 321.097 94.0852C320.813 94.0852 320.535 94.0241 320.262 93.902C319.992 93.7798 319.768 93.5938 319.589 93.3438C319.413 93.0938 319.325 92.7784 319.325 92.3977V85.8864ZM325.915 94.1364C325.284 94.1364 324.74 93.9972 324.283 93.7188C323.828 93.4375 323.477 93.0455 323.23 92.5426C322.986 92.0369 322.864 91.4489 322.864 90.7784C322.864 90.108 322.986 89.517 323.23 89.0057C323.477 88.4915 323.821 88.0909 324.261 87.804C324.705 87.5142 325.222 87.3693 325.812 87.3693C326.153 87.3693 326.49 87.4261 326.822 87.5398C327.155 87.6534 327.457 87.8381 327.73 88.0938C328.003 88.3466 328.22 88.6818 328.382 89.0994C328.544 89.517 328.625 90.0312 328.625 90.642V91.0682H323.58V90.1989H327.602C327.602 89.8295 327.528 89.5 327.381 89.2102C327.236 88.9205 327.028 88.6918 326.759 88.5241C326.491 88.3565 326.176 88.2727 325.812 88.2727C325.412 88.2727 325.065 88.3722 324.773 88.571C324.483 88.767 324.26 89.0227 324.104 89.3381C323.947 89.6534 323.869 89.9915 323.869 90.3523V90.9318C323.869 91.4261 323.955 91.8452 324.125 92.1889C324.298 92.5298 324.538 92.7898 324.845 92.9688C325.152 93.1449 325.509 93.233 325.915 93.233C326.179 93.233 326.418 93.196 326.631 93.1222C326.847 93.0455 327.033 92.9318 327.189 92.7812C327.345 92.6278 327.466 92.4375 327.551 92.2102L328.523 92.483C328.42 92.8125 328.249 93.1023 328.007 93.3523C327.766 93.5994 327.467 93.7926 327.112 93.9318C326.757 94.0682 326.358 94.1364 325.915 94.1364ZM331.161 90.0625V94H330.155V87.4545H331.126V88.4773H331.212C331.365 88.1449 331.598 87.8778 331.911 87.6761C332.223 87.4716 332.626 87.3693 333.121 87.3693C333.564 87.3693 333.952 87.4602 334.284 87.642C334.616 87.821 334.875 88.0938 335.06 88.4602C335.244 88.8239 335.337 89.2841 335.337 89.8409V94H334.331V89.9091C334.331 89.3949 334.197 88.9943 333.93 88.7074C333.663 88.4176 333.297 88.2727 332.831 88.2727C332.51 88.2727 332.223 88.3423 331.97 88.4815C331.72 88.6207 331.523 88.8239 331.378 89.0909C331.233 89.358 331.161 89.6818 331.161 90.0625ZM339.646 94.1364C339.1 94.1364 338.619 93.9986 338.201 93.723C337.784 93.4446 337.457 93.0526 337.221 92.5469C336.985 92.0384 336.868 91.4375 336.868 90.7443C336.868 90.0568 336.985 89.4602 337.221 88.9545C337.457 88.4489 337.785 88.0582 338.206 87.7827C338.626 87.5071 339.112 87.3693 339.663 87.3693C340.089 87.3693 340.426 87.4403 340.673 87.5824C340.923 87.7216 341.113 87.8807 341.244 88.0597C341.377 88.2358 341.481 88.3807 341.555 88.4943H341.64V85.2727H342.646V94H341.674V92.9943H341.555C341.481 93.1136 341.376 93.2642 341.24 93.446C341.103 93.625 340.909 93.7855 340.656 93.9276C340.403 94.0668 340.066 94.1364 339.646 94.1364ZM339.782 93.233C340.186 93.233 340.527 93.1278 340.805 92.9176C341.083 92.7045 341.295 92.4105 341.44 92.0355C341.585 91.6577 341.657 91.2216 341.657 90.7273C341.657 90.2386 341.586 89.8111 341.444 89.4446C341.302 89.0753 341.092 88.7884 340.814 88.5838C340.535 88.3764 340.191 88.2727 339.782 88.2727C339.356 88.2727 339.001 88.3821 338.717 88.6009C338.436 88.8168 338.224 89.1108 338.082 89.483C337.943 89.8523 337.873 90.267 337.873 90.7273C337.873 91.1932 337.944 91.6165 338.086 91.9972C338.231 92.375 338.444 92.6761 338.725 92.9006C339.01 93.1222 339.362 93.233 339.782 93.233ZM344.627 94V87.4545H345.633V94H344.627ZM345.139 86.3636C344.943 86.3636 344.774 86.2969 344.632 86.1634C344.493 86.0298 344.423 85.8693 344.423 85.6818C344.423 85.4943 344.493 85.3338 344.632 85.2003C344.774 85.0668 344.943 85 345.139 85C345.335 85 345.502 85.0668 345.642 85.2003C345.784 85.3338 345.855 85.4943 345.855 85.6818C345.855 85.8693 345.784 86.0298 345.642 86.1634C345.502 86.2969 345.335 86.3636 345.139 86.3636ZM349.947 94.1364C349.401 94.1364 348.92 93.9986 348.502 93.723C348.085 93.4446 347.758 93.0526 347.522 92.5469C347.286 92.0384 347.168 91.4375 347.168 90.7443C347.168 90.0568 347.286 89.4602 347.522 88.9545C347.758 88.4489 348.086 88.0582 348.506 87.7827C348.927 87.5071 349.413 87.3693 349.964 87.3693C350.39 87.3693 350.727 87.4403 350.974 87.5824C351.224 87.7216 351.414 87.8807 351.545 88.0597C351.678 88.2358 351.782 88.3807 351.856 88.4943H351.941V85.2727H352.947V94H351.975V92.9943H351.856C351.782 93.1136 351.677 93.2642 351.54 93.446C351.404 93.625 351.21 93.7855 350.957 93.9276C350.704 94.0668 350.367 94.1364 349.947 94.1364ZM350.083 93.233C350.487 93.233 350.827 93.1278 351.106 92.9176C351.384 92.7045 351.596 92.4105 351.741 92.0355C351.886 91.6577 351.958 91.2216 351.958 90.7273C351.958 90.2386 351.887 89.8111 351.745 89.4446C351.603 89.0753 351.393 88.7884 351.114 88.5838C350.836 88.3764 350.492 88.2727 350.083 88.2727C349.657 88.2727 349.302 88.3821 349.018 88.6009C348.737 88.8168 348.525 89.1108 348.383 89.483C348.244 89.8523 348.174 90.267 348.174 90.7273C348.174 91.1932 348.245 91.6165 348.387 91.9972C348.532 92.375 348.745 92.6761 349.026 92.9006C349.31 93.1222 349.663 93.233 350.083 93.233ZM356.854 94.1534C356.44 94.1534 356.063 94.0753 355.725 93.919C355.387 93.7599 355.119 93.5312 354.92 93.233C354.721 92.9318 354.621 92.5682 354.621 92.142C354.621 91.767 354.695 91.4631 354.843 91.2301C354.991 90.9943 355.188 90.8097 355.435 90.6761C355.683 90.5426 355.955 90.4432 356.254 90.3778C356.555 90.3097 356.857 90.2557 357.161 90.2159C357.559 90.1648 357.881 90.1264 358.129 90.1009C358.379 90.0724 358.56 90.0256 358.674 89.9602C358.79 89.8949 358.849 89.7812 358.849 89.6193V89.5852C358.849 89.1648 358.734 88.8381 358.504 88.6051C358.276 88.3722 357.931 88.2557 357.468 88.2557C356.988 88.2557 356.612 88.3608 356.339 88.571C356.066 88.7812 355.874 89.0057 355.763 89.2443L354.809 88.9034C354.979 88.5057 355.207 88.196 355.491 87.9744C355.778 87.75 356.09 87.5937 356.428 87.5057C356.769 87.4148 357.104 87.3693 357.434 87.3693C357.644 87.3693 357.886 87.3949 358.158 87.446C358.434 87.4943 358.7 87.5952 358.955 87.7486C359.214 87.902 359.428 88.1335 359.599 88.4432C359.769 88.7528 359.854 89.1676 359.854 89.6875V94H358.849V93.1136H358.798C358.729 93.2557 358.616 93.4077 358.457 93.5696C358.298 93.7315 358.086 93.8693 357.822 93.983C357.558 94.0966 357.235 94.1534 356.854 94.1534ZM357.008 93.25C357.406 93.25 357.741 93.1719 358.013 93.0156C358.289 92.8594 358.496 92.6577 358.636 92.4105C358.778 92.1634 358.849 91.9034 358.849 91.6307V90.7102C358.806 90.7614 358.712 90.8082 358.567 90.8509C358.425 90.8906 358.261 90.9261 358.073 90.9574C357.888 90.9858 357.708 91.0114 357.532 91.0341C357.359 91.054 357.218 91.071 357.11 91.0852C356.849 91.1193 356.604 91.1747 356.377 91.2514C356.153 91.3253 355.971 91.4375 355.832 91.5881C355.695 91.7358 355.627 91.9375 355.627 92.1932C355.627 92.5426 355.756 92.8068 356.015 92.9858C356.276 93.1619 356.607 93.25 357.008 93.25Z" fill="black"/>
<path d="M42.7564 48.9091V62H39.9886V51.5362H39.9119L36.9141 53.4155V50.9609L40.1548 48.9091H42.7564ZM48.1497 60.2102L48.0794 60.9134C48.024 61.4759 47.9174 62.0362 47.7598 62.5945C47.6064 63.157 47.4444 63.6662 47.274 64.1222C47.1078 64.5781 46.9735 64.9361 46.8713 65.196H45.1071C45.171 64.9446 45.2583 64.593 45.3691 64.1413C45.4799 63.6939 45.5843 63.1911 45.6824 62.6328C45.7804 62.0746 45.8422 61.5057 45.8677 60.9261L45.8997 60.2102H48.1497ZM54.97 62.179C53.9856 62.179 53.1099 62.0192 52.3429 61.6996C51.5801 61.3757 50.9814 60.9347 50.5467 60.3764C50.112 59.8182 49.8947 59.1854 49.8947 58.478C49.8947 57.9325 50.0183 57.4318 50.2654 56.9759C50.5169 56.5156 50.8578 56.1342 51.2882 55.8317C51.7186 55.5249 52.2001 55.3288 52.7328 55.2436V55.1541C52.0339 55.0135 51.4672 54.6747 51.0325 54.1378C50.5978 53.5966 50.3805 52.968 50.3805 52.2521C50.3805 51.5746 50.5787 50.9716 50.975 50.4432C51.3713 49.9105 51.9146 49.4929 52.6049 49.1903C53.2995 48.8835 54.0879 48.7301 54.97 48.7301C55.8521 48.7301 56.6383 48.8835 57.3287 49.1903C58.0233 49.4972 58.5687 49.9169 58.965 50.4496C59.3613 50.978 59.5616 51.5788 59.5659 52.2521C59.5616 52.9723 59.34 53.6009 58.9011 54.1378C58.4622 54.6747 57.8997 55.0135 57.2136 55.1541V55.2436C57.7377 55.3288 58.2129 55.5249 58.639 55.8317C59.0694 56.1342 59.4103 56.5156 59.6618 56.9759C59.9174 57.4318 60.0474 57.9325 60.0517 58.478C60.0474 59.1854 59.8279 59.8182 59.3933 60.3764C58.9586 60.9347 58.3578 61.3757 57.5907 61.6996C56.8279 62.0192 55.9544 62.179 54.97 62.179ZM54.97 60.1463C55.4089 60.1463 55.7924 60.0675 56.1206 59.9098C56.4487 59.7479 56.7044 59.5263 56.8876 59.245C57.0751 58.9595 57.1689 58.6314 57.1689 58.2607C57.1689 57.8814 57.073 57.5469 56.8812 57.2571C56.6895 56.9631 56.4295 56.733 56.1014 56.5668C55.7733 56.3963 55.3961 56.3111 54.97 56.3111C54.5481 56.3111 54.171 56.3963 53.8386 56.5668C53.5062 56.733 53.2441 56.9631 53.0524 57.2571C52.8649 57.5469 52.7711 57.8814 52.7711 58.2607C52.7711 58.6314 52.8627 58.9595 53.046 59.245C53.2292 59.5263 53.487 59.7479 53.8194 59.9098C54.1518 60.0675 54.5353 60.1463 54.97 60.1463ZM54.97 54.2976C55.3365 54.2976 55.6625 54.223 55.948 54.0739C56.2335 53.9247 56.4572 53.718 56.6191 53.4538C56.7811 53.1896 56.862 52.8849 56.862 52.5398C56.862 52.1989 56.7811 51.9006 56.6191 51.6449C56.4572 51.3849 56.2356 51.1825 55.9544 51.0376C55.6731 50.8885 55.345 50.8139 54.97 50.8139C54.5993 50.8139 54.2711 50.8885 53.9856 51.0376C53.7001 51.1825 53.4764 51.3849 53.3145 51.6449C53.1568 51.9006 53.0779 52.1989 53.0779 52.5398C53.0779 52.8849 53.1589 53.1896 53.3208 53.4538C53.4828 53.718 53.7065 53.9247 53.992 54.0739C54.2775 54.223 54.6035 54.2976 54.97 54.2976ZM69.1523 59.5455V58.8551C69.1523 58.331 69.2631 57.8494 69.4847 57.4105C69.7106 56.9673 70.0366 56.6136 70.4627 56.3494C70.8931 56.081 71.4173 55.9467 72.0352 55.9467C72.6616 55.9467 73.1879 56.0788 73.614 56.343C74.0444 56.6072 74.3683 56.9609 74.5856 57.4041C74.8072 57.843 74.918 58.3267 74.918 58.8551V59.5455C74.918 60.0696 74.8072 60.5533 74.5856 60.9964C74.364 61.4354 74.038 61.7869 73.6076 62.0511C73.1772 62.3196 72.6531 62.4538 72.0352 62.4538C71.4087 62.4538 70.8825 62.3196 70.4563 62.0511C70.0302 61.7869 69.7063 61.4354 69.4847 60.9964C69.2631 60.5533 69.1523 60.0696 69.1523 59.5455ZM71.0124 58.8551V59.5455C71.0124 59.848 71.0849 60.1335 71.2298 60.402C71.3789 60.6705 71.6474 60.8047 72.0352 60.8047C72.4229 60.8047 72.6871 60.6726 72.8278 60.4084C72.9727 60.1442 73.0451 59.8565 73.0451 59.5455V58.8551C73.0451 58.544 72.9769 58.2543 72.8406 57.9858C72.7042 57.7173 72.4357 57.5831 72.0352 57.5831C71.6516 57.5831 71.3853 57.7173 71.2362 57.9858C71.087 58.2543 71.0124 58.544 71.0124 58.8551ZM62.4343 52.054V51.3636C62.4343 50.8352 62.5472 50.3516 62.7731 49.9126C62.9989 49.4695 63.3249 49.1158 63.7511 48.8516C64.1815 48.5874 64.7013 48.4553 65.3107 48.4553C65.9414 48.4553 66.4698 48.5874 66.896 48.8516C67.3221 49.1158 67.646 49.4695 67.8675 49.9126C68.0891 50.3516 68.1999 50.8352 68.1999 51.3636V52.054C68.1999 52.5824 68.087 53.0661 67.8612 53.505C67.6396 53.9439 67.3136 54.2955 66.8832 54.5597C66.457 54.8196 65.9329 54.9496 65.3107 54.9496C64.6886 54.9496 64.1623 54.8175 63.7319 54.5533C63.3058 54.2848 62.9819 53.9332 62.7603 53.4986C62.543 53.0597 62.4343 52.5781 62.4343 52.054ZM64.3072 51.3636V52.054C64.3072 52.3651 64.3796 52.6527 64.5245 52.9169C64.6737 53.1811 64.9357 53.3132 65.3107 53.3132C65.7028 53.3132 65.9691 53.1811 66.1097 52.9169C66.2546 52.6527 66.3271 52.3651 66.3271 52.054V51.3636C66.3271 51.0526 66.2589 50.7628 66.1225 50.4943C65.9862 50.2259 65.7156 50.0916 65.3107 50.0916C64.9315 50.0916 64.6694 50.228 64.5245 50.5007C64.3796 50.7734 64.3072 51.0611 64.3072 51.3636ZM63.2781 62L72.2781 48.9091H73.9528L64.9528 62H63.2781ZM84.4469 62.1854C83.8205 62.1854 83.2623 62.0767 82.7722 61.8594C82.2821 61.6378 81.8944 61.3118 81.6088 60.8814C81.3276 60.4467 81.187 59.9055 81.187 59.2578C81.187 58.7124 81.2871 58.2543 81.4874 57.8835C81.6877 57.5128 81.9604 57.2145 82.3056 56.9886C82.6507 56.7628 83.0428 56.5923 83.4817 56.4773C83.9249 56.3622 84.3894 56.2812 84.8752 56.2344C85.4462 56.1747 85.9064 56.1193 86.2559 56.0682C86.6053 56.0128 86.8588 55.9318 87.0165 55.8253C87.1742 55.7187 87.253 55.5611 87.253 55.3523V55.3139C87.253 54.9091 87.1252 54.5959 86.8695 54.3743C86.6181 54.1527 86.2601 54.0419 85.7956 54.0419C85.3056 54.0419 84.9157 54.1506 84.6259 54.3679C84.3361 54.581 84.1444 54.8494 84.0506 55.1733L81.5321 54.9688C81.66 54.3722 81.9114 53.8565 82.2864 53.4219C82.6614 52.983 83.1451 52.6463 83.7374 52.4119C84.334 52.1733 85.0243 52.054 85.8084 52.054C86.3539 52.054 86.8759 52.1179 87.3745 52.2457C87.8773 52.3736 88.3226 52.5717 88.7104 52.8402C89.1025 53.1087 89.4114 53.4538 89.6373 53.8757C89.8631 54.2933 89.976 54.794 89.976 55.3778V62H87.3936V60.6385H87.3169C87.1593 60.9453 86.9483 61.2159 86.6841 61.4503C86.4199 61.6804 86.1025 61.8615 85.7317 61.9936C85.361 62.1214 84.9327 62.1854 84.4469 62.1854ZM85.2267 60.3061C85.6273 60.3061 85.981 60.2273 86.2878 60.0696C86.5946 59.9077 86.8354 59.6903 87.0101 59.4176C87.1848 59.1449 87.2722 58.8359 87.2722 58.4908V57.4489C87.187 57.5043 87.0698 57.5554 86.9206 57.6023C86.7757 57.6449 86.6117 57.6854 86.4284 57.7237C86.2452 57.7578 86.062 57.7898 85.8787 57.8196C85.6955 57.8452 85.5293 57.8686 85.3801 57.8899C85.0605 57.9368 84.7814 58.0114 84.5428 58.1136C84.3042 58.2159 84.1188 58.3544 83.9867 58.5291C83.8546 58.6996 83.7885 58.9126 83.7885 59.1683C83.7885 59.5391 83.9228 59.8224 84.1912 60.0185C84.464 60.2102 84.8091 60.3061 85.2267 60.3061ZM92.0886 65.6818V52.1818H94.7733V53.831H94.8947C95.014 53.5668 95.1866 53.2983 95.4125 53.0256C95.6426 52.7486 95.9409 52.5185 96.3074 52.3352C96.6781 52.1477 97.1383 52.054 97.688 52.054C98.4039 52.054 99.0645 52.2415 99.6696 52.6165C100.275 52.9872 100.758 53.5476 101.121 54.2976C101.483 55.0433 101.664 55.9787 101.664 57.1037C101.664 58.1989 101.487 59.1236 101.133 59.8778C100.784 60.6278 100.307 61.1967 99.7015 61.5845C99.1007 61.968 98.4274 62.1598 97.6816 62.1598C97.1532 62.1598 96.7037 62.0724 96.3329 61.8977C95.9664 61.723 95.666 61.5036 95.4316 61.2393C95.1973 60.9709 95.0183 60.7003 94.8947 60.4276H94.8116V65.6818H92.0886ZM94.7541 57.0909C94.7541 57.6747 94.835 58.1839 94.997 58.6186C95.1589 59.0533 95.3933 59.392 95.7001 59.6349C96.0069 59.8736 96.3798 59.9929 96.8187 59.9929C97.2619 59.9929 97.6369 59.8714 97.9437 59.6286C98.2505 59.3814 98.4828 59.0405 98.6404 58.6058C98.8024 58.1669 98.8833 57.6619 98.8833 57.0909C98.8833 56.5241 98.8045 56.0256 98.6468 55.5952C98.4892 55.1648 98.2569 54.8281 97.9501 54.5852C97.6433 54.3423 97.2662 54.2209 96.8187 54.2209C96.3755 54.2209 96.0005 54.3381 95.6937 54.5724C95.3912 54.8068 95.1589 55.1392 94.997 55.5696C94.835 56 94.7541 56.5071 94.7541 57.0909ZM107.954 62.1918C106.944 62.1918 106.074 61.9872 105.346 61.5781C104.621 61.1648 104.063 60.581 103.671 59.8267C103.279 59.0682 103.083 58.1712 103.083 57.1357C103.083 56.1257 103.279 55.2393 103.671 54.4766C104.063 53.7138 104.615 53.1193 105.327 52.6932C106.042 52.267 106.882 52.054 107.845 52.054C108.493 52.054 109.096 52.1584 109.654 52.3672C110.216 52.5717 110.706 52.8807 111.124 53.294C111.546 53.7074 111.874 54.2273 112.108 54.8537C112.343 55.4759 112.46 56.2045 112.46 57.0398V57.7876H104.17V56.1001H109.897C109.897 55.7081 109.812 55.3608 109.641 55.0582C109.471 54.7557 109.234 54.5192 108.932 54.3487C108.633 54.174 108.286 54.0866 107.89 54.0866C107.476 54.0866 107.11 54.1825 106.79 54.3743C106.475 54.5618 106.228 54.8153 106.049 55.1349C105.87 55.4503 105.778 55.8018 105.774 56.1896V57.794C105.774 58.2798 105.863 58.6996 106.042 59.0533C106.226 59.407 106.483 59.6797 106.816 59.8714C107.148 60.0632 107.542 60.1591 107.998 60.1591C108.301 60.1591 108.578 60.1165 108.829 60.0312C109.081 59.946 109.296 59.8182 109.475 59.6477C109.654 59.4773 109.79 59.2685 109.884 59.0213L112.403 59.1875C112.275 59.7926 112.013 60.321 111.616 60.7727C111.224 61.2202 110.717 61.5696 110.095 61.821C109.477 62.0682 108.763 62.1918 107.954 62.1918ZM116.96 56.3239V62H114.237V52.1818H116.832V53.9141H116.947C117.165 53.343 117.529 52.8913 118.04 52.5589C118.552 52.2223 119.172 52.054 119.9 52.054C120.582 52.054 121.177 52.2031 121.684 52.5014C122.191 52.7997 122.585 53.2259 122.866 53.7798C123.148 54.3295 123.288 54.9858 123.288 55.7486V62H120.565V56.2344C120.569 55.6335 120.416 55.1648 120.105 54.8281C119.794 54.4872 119.366 54.3168 118.82 54.3168C118.454 54.3168 118.13 54.3956 117.849 54.5533C117.572 54.7109 117.354 54.9411 117.197 55.2436C117.043 55.5419 116.964 55.902 116.96 56.3239ZM128.234 62.1854C127.608 62.1854 127.049 62.0767 126.559 61.8594C126.069 61.6378 125.681 61.3118 125.396 60.8814C125.115 60.4467 124.974 59.9055 124.974 59.2578C124.974 58.7124 125.074 58.2543 125.275 57.8835C125.475 57.5128 125.748 57.2145 126.093 56.9886C126.438 56.7628 126.83 56.5923 127.269 56.4773C127.712 56.3622 128.176 56.2812 128.662 56.2344C129.233 56.1747 129.694 56.1193 130.043 56.0682C130.392 56.0128 130.646 55.9318 130.804 55.8253C130.961 55.7187 131.04 55.5611 131.04 55.3523V55.3139C131.04 54.9091 130.912 54.5959 130.657 54.3743C130.405 54.1527 130.047 54.0419 129.583 54.0419C129.093 54.0419 128.703 54.1506 128.413 54.3679C128.123 54.581 127.931 54.8494 127.838 55.1733L125.319 54.9688C125.447 54.3722 125.699 53.8565 126.074 53.4219C126.449 52.983 126.932 52.6463 127.525 52.4119C128.121 52.1733 128.811 52.054 129.596 52.054C130.141 52.054 130.663 52.1179 131.162 52.2457C131.664 52.3736 132.11 52.5717 132.498 52.8402C132.89 53.1087 133.199 53.4538 133.424 53.8757C133.65 54.2933 133.763 54.794 133.763 55.3778V62H131.181V60.6385H131.104C130.946 60.9453 130.735 61.2159 130.471 61.4503C130.207 61.6804 129.89 61.8615 129.519 61.9936C129.148 62.1214 128.72 62.1854 128.234 62.1854ZM129.014 60.3061C129.414 60.3061 129.768 60.2273 130.075 60.0696C130.382 59.9077 130.623 59.6903 130.797 59.4176C130.972 59.1449 131.059 58.8359 131.059 58.4908V57.4489C130.974 57.5043 130.857 57.5554 130.708 57.6023C130.563 57.6449 130.399 57.6854 130.216 57.7237C130.032 57.7578 129.849 57.7898 129.666 57.8196C129.483 57.8452 129.316 57.8686 129.167 57.8899C128.848 57.9368 128.569 58.0114 128.33 58.1136C128.091 58.2159 127.906 58.3544 127.774 58.5291C127.642 58.6996 127.576 58.9126 127.576 59.1683C127.576 59.5391 127.71 59.8224 127.978 60.0185C128.251 60.2102 128.596 60.3061 129.014 60.3061ZM144.045 54.9815L141.552 55.1349C141.509 54.9219 141.418 54.7301 141.277 54.5597C141.136 54.3849 140.951 54.2464 140.721 54.1442C140.495 54.0376 140.224 53.9844 139.909 53.9844C139.487 53.9844 139.131 54.0739 138.842 54.2528C138.552 54.4276 138.407 54.6619 138.407 54.956C138.407 55.1903 138.501 55.3885 138.688 55.5504C138.876 55.7124 139.197 55.8423 139.653 55.9403L141.43 56.2983C142.385 56.4943 143.097 56.8097 143.565 57.2443C144.034 57.679 144.268 58.25 144.268 58.9574C144.268 59.6009 144.079 60.1655 143.7 60.6513C143.325 61.1371 142.809 61.5163 142.153 61.7891C141.501 62.0575 140.749 62.1918 139.896 62.1918C138.597 62.1918 137.561 61.9212 136.79 61.38C136.023 60.8345 135.573 60.093 135.441 59.1555L138.119 59.0149C138.2 59.4112 138.396 59.7138 138.707 59.9226C139.018 60.1271 139.417 60.2294 139.903 60.2294C140.38 60.2294 140.763 60.1378 141.053 59.9545C141.347 59.767 141.496 59.5263 141.501 59.2322C141.496 58.9851 141.392 58.7827 141.188 58.625C140.983 58.4631 140.668 58.3395 140.241 58.2543L138.541 57.9155C137.582 57.7237 136.869 57.3913 136.4 56.9183C135.935 56.4453 135.703 55.8423 135.703 55.1094C135.703 54.4787 135.874 53.9354 136.214 53.4794C136.56 53.0234 137.043 52.6719 137.665 52.4247C138.292 52.1776 139.025 52.054 139.864 52.054C141.104 52.054 142.08 52.3161 142.792 52.8402C143.508 53.3643 143.925 54.0781 144.045 54.9815Z" fill="black"/>
</svg>
