<svg width="390" height="142" viewBox="0 0 390 142" fill="none" xmlns="http://www.w3.org/2000/svg">
<rect x="1.5" y="1.71851" width="179.831" height="138.782" rx="38.5" fill="white" stroke="#860321" stroke-width="3"/>
<rect x="208.5" y="1.5" width="180" height="139" rx="38.5" fill="white" stroke="#860321" stroke-width="3"/>
<path d="M55.8912 57V55.0057L60.551 50.6911C60.9473 50.3075 61.2797 49.9624 61.5481 49.6555C61.8208 49.3487 62.0275 49.0483 62.1681 48.7543C62.3088 48.456 62.3791 48.1342 62.3791 47.7891C62.3791 47.4055 62.2917 47.0753 62.117 46.7983C61.9423 46.517 61.7037 46.3018 61.4011 46.1527C61.0985 45.9993 60.7555 45.9226 60.372 45.9226C59.9714 45.9226 59.622 46.0036 59.3237 46.1655C59.0254 46.3274 58.7953 46.5597 58.6333 46.8622C58.4714 47.1648 58.3904 47.5249 58.3904 47.9425H55.7633C55.7633 47.0859 55.9572 46.3423 56.345 45.7116C56.7328 45.081 57.2761 44.593 57.975 44.2479C58.6738 43.9027 59.4792 43.7301 60.3912 43.7301C61.3287 43.7301 62.1447 43.8963 62.8393 44.2287C63.5382 44.5568 64.0815 45.0128 64.4693 45.5966C64.8571 46.1804 65.051 46.8494 65.051 47.6037C65.051 48.098 64.9529 48.5859 64.7569 49.0675C64.5652 49.549 64.2221 50.0838 63.7278 50.6719C63.2335 51.2557 62.5368 51.9567 61.6376 52.7749L59.7264 54.6477V54.7372H65.2235V57H55.8912ZM72.3619 57.2876C71.2624 57.2834 70.3164 57.0128 69.5238 56.4759C68.7354 55.9389 68.1282 55.1612 67.7021 54.1428C67.2802 53.1243 67.0714 51.8991 67.0756 50.4673C67.0756 49.0398 67.2866 47.8232 67.7085 46.8175C68.1346 45.8118 68.7418 45.0469 69.5302 44.5227C70.3228 43.9943 71.2667 43.7301 72.3619 43.7301C73.457 43.7301 74.3988 43.9943 75.1871 44.5227C75.9798 45.0511 76.5891 45.8182 77.0153 46.8239C77.4414 47.8253 77.6523 49.0398 77.6481 50.4673C77.6481 51.9034 77.435 53.1307 77.0089 54.1491C76.587 55.1676 75.9819 55.9453 75.1935 56.4822C74.4052 57.0192 73.4613 57.2876 72.3619 57.2876ZM72.3619 54.9929C73.1119 54.9929 73.7106 54.6158 74.158 53.8615C74.6055 53.1072 74.8271 51.9759 74.8228 50.4673C74.8228 49.4744 74.7205 48.6477 74.516 47.9872C74.3157 47.3267 74.0302 46.8303 73.6594 46.4979C73.293 46.1655 72.8604 45.9993 72.3619 45.9993C71.6161 45.9993 71.0195 46.3722 70.5721 47.1179C70.1246 47.8636 69.8988 48.9801 69.8945 50.4673C69.8945 51.473 69.9947 52.3125 70.195 52.9858C70.3995 53.6548 70.6871 54.1577 71.0579 54.4943C71.4286 54.8267 71.8633 54.9929 72.3619 54.9929ZM80.7115 57.1662C80.2896 57.1662 79.9274 57.017 79.6248 56.7188C79.3265 56.4162 79.1774 56.054 79.1774 55.6321C79.1774 55.2145 79.3265 54.8565 79.6248 54.5582C79.9274 54.2599 80.2896 54.1108 80.7115 54.1108C81.1206 54.1108 81.4785 54.2599 81.7853 54.5582C82.0922 54.8565 82.2456 55.2145 82.2456 55.6321C82.2456 55.9134 82.1731 56.1712 82.0282 56.4055C81.8876 56.6357 81.7022 56.821 81.4721 56.9616C81.242 57.098 80.9885 57.1662 80.7115 57.1662ZM89.0611 57.2876C87.9616 57.2834 87.0156 57.0128 86.223 56.4759C85.4347 55.9389 84.8274 55.1612 84.4013 54.1428C83.9794 53.1243 83.7706 51.8991 83.7749 50.4673C83.7749 49.0398 83.9858 47.8232 84.4077 46.8175C84.8338 45.8118 85.4411 45.0469 86.2294 44.5227C87.022 43.9943 87.9659 43.7301 89.0611 43.7301C90.1563 43.7301 91.098 43.9943 91.8864 44.5227C92.679 45.0511 93.2884 45.8182 93.7145 46.8239C94.1406 47.8253 94.3516 49.0398 94.3473 50.4673C94.3473 51.9034 94.1342 53.1307 93.7081 54.1491C93.2862 55.1676 92.6811 55.9453 91.8928 56.4822C91.1044 57.0192 90.1605 57.2876 89.0611 57.2876ZM89.0611 54.9929C89.8111 54.9929 90.4098 54.6158 90.8572 53.8615C91.3047 53.1072 91.5263 51.9759 91.522 50.4673C91.522 49.4744 91.4197 48.6477 91.2152 47.9872C91.0149 47.3267 90.7294 46.8303 90.3587 46.4979C89.9922 46.1655 89.5597 45.9993 89.0611 45.9993C88.3153 45.9993 87.7188 46.3722 87.2713 47.1179C86.8239 47.8636 86.598 48.9801 86.5938 50.4673C86.5938 51.473 86.6939 52.3125 86.8942 52.9858C87.0987 53.6548 87.3864 54.1577 87.7571 54.4943C88.1278 54.8267 88.5625 54.9929 89.0611 54.9929ZM101.454 57.2876C100.354 57.2834 99.4082 57.0128 98.6156 56.4759C97.8272 55.9389 97.22 55.1612 96.7939 54.1428C96.372 53.1243 96.1632 51.8991 96.1674 50.4673C96.1674 49.0398 96.3784 47.8232 96.8002 46.8175C97.2264 45.8118 97.8336 45.0469 98.622 44.5227C99.4146 43.9943 100.358 43.7301 101.454 43.7301C102.549 43.7301 103.491 43.9943 104.279 44.5227C105.072 45.0511 105.681 45.8182 106.107 46.8239C106.533 47.8253 106.744 49.0398 106.74 50.4673C106.74 51.9034 106.527 53.1307 106.101 54.1491C105.679 55.1676 105.074 55.9453 104.285 56.4822C103.497 57.0192 102.553 57.2876 101.454 57.2876ZM101.454 54.9929C102.204 54.9929 102.802 54.6158 103.25 53.8615C103.697 53.1072 103.919 51.9759 103.915 50.4673C103.915 49.4744 103.812 48.6477 103.608 47.9872C103.407 47.3267 103.122 46.8303 102.751 46.4979C102.385 46.1655 101.952 45.9993 101.454 45.9993C100.708 45.9993 100.111 46.3722 99.6639 47.1179C99.2164 47.8636 98.9906 48.9801 98.9863 50.4673C98.9863 51.473 99.0865 52.3125 99.2868 52.9858C99.4913 53.6548 99.7789 54.1577 100.15 54.4943C100.52 54.8267 100.955 54.9929 101.454 54.9929ZM113.846 57.2876C112.747 57.2834 111.801 57.0128 111.008 56.4759C110.22 55.9389 109.613 55.1612 109.186 54.1428C108.765 53.1243 108.556 51.8991 108.56 50.4673C108.56 49.0398 108.771 47.8232 109.193 46.8175C109.619 45.8118 110.226 45.0469 111.015 44.5227C111.807 43.9943 112.751 43.7301 113.846 43.7301C114.941 43.7301 115.883 43.9943 116.672 44.5227C117.464 45.0511 118.074 45.8182 118.5 46.8239C118.926 47.8253 119.137 49.0398 119.132 50.4673C119.132 51.9034 118.919 53.1307 118.493 54.1491C118.071 55.1676 117.466 55.9453 116.678 56.4822C115.89 57.0192 114.946 57.2876 113.846 57.2876ZM113.846 54.9929C114.596 54.9929 115.195 54.6158 115.642 53.8615C116.09 53.1072 116.311 51.9759 116.307 50.4673C116.307 49.4744 116.205 48.6477 116 47.9872C115.8 47.3267 115.515 46.8303 115.144 46.4979C114.777 46.1655 114.345 45.9993 113.846 45.9993C113.1 45.9993 112.504 46.3722 112.056 47.1179C111.609 47.8636 111.383 48.9801 111.379 50.4673C111.379 51.473 111.479 52.3125 111.679 52.9858C111.884 53.6548 112.172 54.1577 112.542 54.4943C112.913 54.8267 113.348 54.9929 113.846 54.9929ZM129.184 55.0057V45.9545H131.472V55.0057H129.184ZM125.803 51.6243V49.3359H134.854V51.6243H125.803Z" fill="black"/>
<path d="M284.756 43.9091V57H281.989V46.5362H281.912L278.914 48.4155V45.9609L282.155 43.9091H284.756ZM287.868 57V55.0057L292.528 50.6911C292.924 50.3075 293.256 49.9624 293.525 49.6555C293.797 49.3487 294.004 49.0483 294.145 48.7543C294.285 48.456 294.356 48.1342 294.356 47.7891C294.356 47.4055 294.268 47.0753 294.094 46.7983C293.919 46.517 293.68 46.3018 293.378 46.1527C293.075 45.9993 292.732 45.9226 292.349 45.9226C291.948 45.9226 291.599 46.0036 291.3 46.1655C291.002 46.3274 290.772 46.5597 290.61 46.8622C290.448 47.1648 290.367 47.5249 290.367 47.9425H287.74C287.74 47.0859 287.934 46.3423 288.322 45.7116C288.709 45.081 289.253 44.593 289.952 44.2479C290.65 43.9027 291.456 43.7301 292.368 43.7301C293.305 43.7301 294.121 43.8963 294.816 44.2287C295.515 44.5568 296.058 45.0128 296.446 45.5966C296.834 46.1804 297.028 46.8494 297.028 47.6037C297.028 48.098 296.93 48.5859 296.733 49.0675C296.542 49.549 296.199 50.0838 295.704 50.6719C295.21 51.2557 294.513 51.9567 293.614 52.7749L291.703 54.6477V54.7372H297.2V57H287.868ZM301.699 54.1747L301.705 50.9084H302.101L305.246 47.1818H308.372L304.147 52.1165H303.501L301.699 54.1747ZM299.231 57V43.9091H301.954V57H299.231ZM305.368 57L302.478 52.7237L304.294 50.7997L308.557 57H305.368ZM313.727 60.8864C312.845 60.8864 312.088 60.7649 311.458 60.522C310.831 60.2834 310.333 59.9574 309.962 59.544C309.591 59.1307 309.35 58.6662 309.24 58.1506L311.758 57.8118C311.835 58.0078 311.956 58.1911 312.122 58.3615C312.289 58.532 312.508 58.6683 312.781 58.7706C313.058 58.8771 313.394 58.9304 313.791 58.9304C314.383 58.9304 314.871 58.7855 315.254 58.4957C315.642 58.2102 315.836 57.7308 315.836 57.0575V55.2614H315.721C315.602 55.5341 315.423 55.7919 315.184 56.0348C314.945 56.2777 314.639 56.4759 314.264 56.6293C313.889 56.7827 313.441 56.8594 312.921 56.8594C312.184 56.8594 311.513 56.6889 310.908 56.348C310.307 56.0028 309.828 55.4766 309.47 54.7692C309.116 54.0575 308.939 53.1584 308.939 52.0717C308.939 50.9595 309.12 50.0305 309.482 49.2848C309.845 48.5391 310.326 47.9808 310.927 47.6101C311.532 47.2393 312.195 47.054 312.915 47.054C313.465 47.054 313.925 47.1477 314.296 47.3352C314.666 47.5185 314.965 47.7486 315.191 48.0256C315.421 48.2983 315.597 48.5668 315.721 48.831H315.823V47.1818H318.527V57.0959C318.527 57.9311 318.323 58.63 317.914 59.1925C317.504 59.755 316.938 60.1768 316.213 60.4581C315.493 60.7436 314.664 60.8864 313.727 60.8864ZM313.784 54.8139C314.223 54.8139 314.594 54.7053 314.896 54.4879C315.203 54.2663 315.438 53.951 315.6 53.5419C315.766 53.1286 315.849 52.6342 315.849 52.0589C315.849 51.4837 315.768 50.9851 315.606 50.5632C315.444 50.1371 315.21 49.8068 314.903 49.5724C314.596 49.3381 314.223 49.2209 313.784 49.2209C313.337 49.2209 312.96 49.3423 312.653 49.5852C312.346 49.8239 312.114 50.1562 311.956 50.5824C311.798 51.0085 311.72 51.5007 311.72 52.0589C311.72 52.6257 311.798 53.1158 311.956 53.5291C312.118 53.9382 312.35 54.2557 312.653 54.4815C312.96 54.7031 313.337 54.8139 313.784 54.8139Z" fill="black"/>
<path d="M247.213 73.2727H248.475L251.44 80.517H251.543L254.509 73.2727H255.77V82H254.781V75.3693H254.696L251.969 82H251.014L248.287 75.3693H248.202V82H247.213V73.2727ZM260.497 82.1364C259.866 82.1364 259.322 81.9972 258.865 81.7188C258.41 81.4375 258.059 81.0455 257.812 80.5426C257.568 80.0369 257.446 79.4489 257.446 78.7784C257.446 78.108 257.568 77.517 257.812 77.0057C258.059 76.4915 258.403 76.0909 258.844 75.804C259.287 75.5142 259.804 75.3693 260.395 75.3693C260.736 75.3693 261.072 75.4261 261.405 75.5398C261.737 75.6534 262.04 75.8381 262.312 76.0938C262.585 76.3466 262.802 76.6818 262.964 77.0994C263.126 77.517 263.207 78.0312 263.207 78.642V79.0682H258.162V78.1989H262.184C262.184 77.8295 262.111 77.5 261.963 77.2102C261.818 76.9205 261.611 76.6918 261.341 76.5241C261.074 76.3565 260.758 76.2727 260.395 76.2727C259.994 76.2727 259.648 76.3722 259.355 76.571C259.065 76.767 258.842 77.0227 258.686 77.3381C258.53 77.6534 258.451 77.9915 258.451 78.3523V78.9318C258.451 79.4261 258.537 79.8452 258.707 80.1889C258.88 80.5298 259.121 80.7898 259.427 80.9688C259.734 81.1449 260.091 81.233 260.497 81.233C260.761 81.233 261 81.196 261.213 81.1222C261.429 81.0455 261.615 80.9318 261.771 80.7812C261.927 80.6278 262.048 80.4375 262.133 80.2102L263.105 80.483C263.003 80.8125 262.831 81.1023 262.589 81.3523C262.348 81.5994 262.05 81.7926 261.694 81.9318C261.339 82.0682 260.94 82.1364 260.497 82.1364ZM259.883 74.5682L260.923 72.5909H262.099L260.77 74.5682H259.883ZM267.209 82.1364C266.663 82.1364 266.182 81.9986 265.764 81.723C265.346 81.4446 265.02 81.0526 264.784 80.5469C264.548 80.0384 264.43 79.4375 264.43 78.7443C264.43 78.0568 264.548 77.4602 264.784 76.9545C265.02 76.4489 265.348 76.0582 265.768 75.7827C266.189 75.5071 266.675 75.3693 267.226 75.3693C267.652 75.3693 267.988 75.4403 268.236 75.5824C268.486 75.7216 268.676 75.8807 268.807 76.0597C268.94 76.2358 269.044 76.3807 269.118 76.4943H269.203V73.2727H270.209V82H269.237V80.9943H269.118C269.044 81.1136 268.939 81.2642 268.802 81.446C268.666 81.625 268.471 81.7855 268.219 81.9276C267.966 82.0668 267.629 82.1364 267.209 82.1364ZM267.345 81.233C267.748 81.233 268.089 81.1278 268.368 80.9176C268.646 80.7045 268.858 80.4105 269.003 80.0355C269.148 79.6577 269.22 79.2216 269.22 78.7273C269.22 78.2386 269.149 77.8111 269.007 77.4446C268.865 77.0753 268.655 76.7884 268.376 76.5838C268.098 76.3764 267.754 76.2727 267.345 76.2727C266.919 76.2727 266.564 76.3821 266.28 76.6009C265.998 76.8168 265.787 77.1108 265.645 77.483C265.505 77.8523 265.436 78.267 265.436 78.7273C265.436 79.1932 265.507 79.6165 265.649 79.9972C265.794 80.375 266.007 80.6761 266.288 80.9006C266.572 81.1222 266.925 81.233 267.345 81.233ZM272.19 82V75.4545H273.196V82H272.19ZM272.701 74.3636C272.505 74.3636 272.336 74.2969 272.194 74.1634C272.055 74.0298 271.986 73.8693 271.986 73.6818C271.986 73.4943 272.055 73.3338 272.194 73.2003C272.336 73.0668 272.505 73 272.701 73C272.898 73 273.065 73.0668 273.204 73.2003C273.346 73.3338 273.417 73.4943 273.417 73.6818C273.417 73.8693 273.346 74.0298 273.204 74.1634C273.065 74.2969 272.898 74.3636 272.701 74.3636ZM276.964 82.1534C276.549 82.1534 276.173 82.0753 275.835 81.919C275.497 81.7599 275.228 81.5312 275.029 81.233C274.83 80.9318 274.731 80.5682 274.731 80.142C274.731 79.767 274.805 79.4631 274.953 79.2301C275.1 78.9943 275.298 78.8097 275.545 78.6761C275.792 78.5426 276.065 78.4432 276.363 78.3778C276.664 78.3097 276.967 78.2557 277.271 78.2159C277.668 78.1648 277.991 78.1264 278.238 78.1009C278.488 78.0724 278.67 78.0256 278.784 77.9602C278.9 77.8949 278.958 77.7812 278.958 77.6193V77.5852C278.958 77.1648 278.843 76.8381 278.613 76.6051C278.386 76.3722 278.041 76.2557 277.578 76.2557C277.097 76.2557 276.721 76.3608 276.448 76.571C276.176 76.7812 275.984 77.0057 275.873 77.2443L274.918 76.9034C275.089 76.5057 275.316 76.196 275.6 75.9744C275.887 75.75 276.2 75.5937 276.538 75.5057C276.879 75.4148 277.214 75.3693 277.543 75.3693C277.754 75.3693 277.995 75.3949 278.268 75.446C278.543 75.4943 278.809 75.5952 279.065 75.7486C279.323 75.902 279.538 76.1335 279.708 76.4432C279.879 76.7528 279.964 77.1676 279.964 77.6875V82H278.958V81.1136H278.907C278.839 81.2557 278.725 81.4077 278.566 81.5696C278.407 81.7315 278.195 81.8693 277.931 81.983C277.667 82.0966 277.345 82.1534 276.964 82.1534ZM277.117 81.25C277.515 81.25 277.85 81.1719 278.123 81.0156C278.399 80.8594 278.606 80.6577 278.745 80.4105C278.887 80.1634 278.958 79.9034 278.958 79.6307V78.7102C278.916 78.7614 278.822 78.8082 278.677 78.8509C278.535 78.8906 278.37 78.9261 278.183 78.9574C277.998 78.9858 277.818 79.0114 277.641 79.0341C277.468 79.054 277.328 79.071 277.22 79.0852C276.958 79.1193 276.714 79.1747 276.487 79.2514C276.262 79.3253 276.08 79.4375 275.941 79.5881C275.805 79.7358 275.737 79.9375 275.737 80.1932C275.737 80.5426 275.866 80.8068 276.124 80.9858C276.386 81.1619 276.717 81.25 277.117 81.25ZM287.646 82.1364C287.101 82.1364 286.619 81.9986 286.201 81.723C285.784 81.4446 285.457 81.0526 285.221 80.5469C284.986 80.0384 284.868 79.4375 284.868 78.7443C284.868 78.0568 284.986 77.4602 285.221 76.9545C285.457 76.4489 285.785 76.0582 286.206 75.7827C286.626 75.5071 287.112 75.3693 287.663 75.3693C288.089 75.3693 288.426 75.4403 288.673 75.5824C288.923 75.7216 289.113 75.8807 289.244 76.0597C289.378 76.2358 289.481 76.3807 289.555 76.4943H289.64V73.2727H290.646V82H289.675V80.9943H289.555C289.481 81.1136 289.376 81.2642 289.24 81.446C289.103 81.625 288.909 81.7855 288.656 81.9276C288.403 82.0668 288.067 82.1364 287.646 82.1364ZM287.782 81.233C288.186 81.233 288.527 81.1278 288.805 80.9176C289.084 80.7045 289.295 80.4105 289.44 80.0355C289.585 79.6577 289.657 79.2216 289.657 78.7273C289.657 78.2386 289.586 77.8111 289.444 77.4446C289.302 77.0753 289.092 76.7884 288.814 76.5838C288.535 76.3764 288.192 76.2727 287.782 76.2727C287.356 76.2727 287.001 76.3821 286.717 76.6009C286.436 76.8168 286.224 77.1108 286.082 77.483C285.943 77.8523 285.873 78.267 285.873 78.7273C285.873 79.1932 285.944 79.6165 286.086 79.9972C286.231 80.375 286.444 80.6761 286.726 80.9006C287.01 81.1222 287.362 81.233 287.782 81.233ZM295.372 82.1364C294.741 82.1364 294.197 81.9972 293.74 81.7188C293.285 81.4375 292.934 81.0455 292.687 80.5426C292.443 80.0369 292.321 79.4489 292.321 78.7784C292.321 78.108 292.443 77.517 292.687 77.0057C292.934 76.4915 293.278 76.0909 293.719 75.804C294.162 75.5142 294.679 75.3693 295.27 75.3693C295.611 75.3693 295.947 75.4261 296.28 75.5398C296.612 75.6534 296.915 75.8381 297.187 76.0938C297.46 76.3466 297.677 76.6818 297.839 77.0994C298.001 77.517 298.082 78.0312 298.082 78.642V79.0682H293.037V78.1989H297.059C297.059 77.8295 296.986 77.5 296.838 77.2102C296.693 76.9205 296.486 76.6918 296.216 76.5241C295.949 76.3565 295.633 76.2727 295.27 76.2727C294.869 76.2727 294.523 76.3722 294.23 76.571C293.94 76.767 293.717 77.0227 293.561 77.3381C293.405 77.6534 293.326 77.9915 293.326 78.3523V78.9318C293.326 79.4261 293.412 79.8452 293.582 80.1889C293.755 80.5298 293.996 80.7898 294.302 80.9688C294.609 81.1449 294.966 81.233 295.372 81.233C295.636 81.233 295.875 81.196 296.088 81.1222C296.304 81.0455 296.49 80.9318 296.646 80.7812C296.802 80.6278 296.923 80.4375 297.008 80.2102L297.98 80.483C297.878 80.8125 297.706 81.1023 297.464 81.3523C297.223 81.5994 296.925 81.7926 296.569 81.9318C296.214 82.0682 295.815 82.1364 295.372 82.1364ZM302.987 84.4545V75.4545H303.959V76.4943H304.078C304.152 76.3807 304.254 76.2358 304.385 76.0597C304.518 75.8807 304.709 75.7216 304.956 75.5824C305.206 75.4403 305.544 75.3693 305.97 75.3693C306.521 75.3693 307.007 75.5071 307.427 75.7827C307.848 76.0582 308.176 76.4489 308.412 76.9545C308.648 77.4602 308.765 78.0568 308.765 78.7443C308.765 79.4375 308.648 80.0384 308.412 80.5469C308.176 81.0526 307.849 81.4446 307.432 81.723C307.014 81.9986 306.532 82.1364 305.987 82.1364C305.567 82.1364 305.23 82.0668 304.977 81.9276C304.724 81.7855 304.53 81.625 304.393 81.446C304.257 81.2642 304.152 81.1136 304.078 80.9943H303.993V84.4545H302.987ZM303.976 78.7273C303.976 79.2216 304.048 79.6577 304.193 80.0355C304.338 80.4105 304.55 80.7045 304.828 80.9176C305.106 81.1278 305.447 81.233 305.851 81.233C306.271 81.233 306.622 81.1222 306.903 80.9006C307.187 80.6761 307.4 80.375 307.542 79.9972C307.687 79.6165 307.76 79.1932 307.76 78.7273C307.76 78.267 307.689 77.8523 307.547 77.483C307.407 77.1108 307.196 76.8168 306.912 76.6009C306.63 76.3821 306.277 76.2727 305.851 76.2727C305.442 76.2727 305.098 76.3764 304.819 76.5838C304.541 76.7884 304.331 77.0753 304.189 77.4446C304.047 77.8111 303.976 78.2386 303.976 78.7273ZM313.044 82.1364C312.413 82.1364 311.869 81.9972 311.412 81.7188C310.957 81.4375 310.606 81.0455 310.359 80.5426C310.115 80.0369 309.993 79.4489 309.993 78.7784C309.993 78.108 310.115 77.517 310.359 77.0057C310.606 76.4915 310.95 76.0909 311.39 75.804C311.834 75.5142 312.351 75.3693 312.942 75.3693C313.282 75.3693 313.619 75.4261 313.951 75.5398C314.284 75.6534 314.586 75.8381 314.859 76.0938C315.132 76.3466 315.349 76.6818 315.511 77.0994C315.673 77.517 315.754 78.0312 315.754 78.642V79.0682H310.709V78.1989H314.731C314.731 77.8295 314.657 77.5 314.51 77.2102C314.365 76.9205 314.157 76.6918 313.888 76.5241C313.621 76.3565 313.305 76.2727 312.942 76.2727C312.541 76.2727 312.194 76.3722 311.902 76.571C311.612 76.767 311.389 77.0227 311.233 77.3381C311.076 77.6534 310.998 77.9915 310.998 78.3523V78.9318C310.998 79.4261 311.084 79.8452 311.254 80.1889C311.427 80.5298 311.667 80.7898 311.974 80.9688C312.281 81.1449 312.638 81.233 313.044 81.233C313.308 81.233 313.547 81.196 313.76 81.1222C313.976 81.0455 314.162 80.9318 314.318 80.7812C314.474 80.6278 314.595 80.4375 314.68 80.2102L315.652 80.483C315.55 80.8125 315.378 81.1023 315.136 81.3523C314.895 81.5994 314.596 81.7926 314.241 81.9318C313.886 82.0682 313.487 82.1364 313.044 82.1364ZM317.284 82V75.4545H318.255V76.4432H318.324C318.443 76.1193 318.659 75.8565 318.971 75.6548C319.284 75.4531 319.636 75.3523 320.028 75.3523C320.102 75.3523 320.194 75.3537 320.305 75.3565C320.416 75.3594 320.5 75.3636 320.557 75.3693V76.392C320.523 76.3835 320.444 76.3707 320.322 76.3537C320.203 76.3338 320.076 76.3239 319.943 76.3239C319.625 76.3239 319.341 76.3906 319.091 76.5241C318.844 76.6548 318.648 76.8366 318.503 77.0696C318.361 77.2997 318.29 77.5625 318.29 77.858V82H317.284ZM324.021 82.1364C323.476 82.1364 322.994 81.9986 322.576 81.723C322.159 81.4446 321.832 81.0526 321.596 80.5469C321.361 80.0384 321.243 79.4375 321.243 78.7443C321.243 78.0568 321.361 77.4602 321.596 76.9545C321.832 76.4489 322.16 76.0582 322.581 75.7827C323.001 75.5071 323.487 75.3693 324.038 75.3693C324.464 75.3693 324.801 75.4403 325.048 75.5824C325.298 75.7216 325.488 75.8807 325.619 76.0597C325.753 76.2358 325.856 76.3807 325.93 76.4943H326.015V73.2727H327.021V82H326.05V80.9943H325.93C325.856 81.1136 325.751 81.2642 325.615 81.446C325.478 81.625 325.284 81.7855 325.031 81.9276C324.778 82.0668 324.442 82.1364 324.021 82.1364ZM324.157 81.233C324.561 81.233 324.902 81.1278 325.18 80.9176C325.459 80.7045 325.67 80.4105 325.815 80.0355C325.96 79.6577 326.032 79.2216 326.032 78.7273C326.032 78.2386 325.961 77.8111 325.819 77.4446C325.677 77.0753 325.467 76.7884 325.189 76.5838C324.91 76.3764 324.567 76.2727 324.157 76.2727C323.731 76.2727 323.376 76.3821 323.092 76.6009C322.811 76.8168 322.599 77.1108 322.457 77.483C322.318 77.8523 322.248 78.267 322.248 78.7273C322.248 79.1932 322.319 79.6165 322.461 79.9972C322.606 80.375 322.819 80.6761 323.101 80.9006C323.385 81.1222 323.737 81.233 324.157 81.233ZM330.929 82.1534C330.514 82.1534 330.138 82.0753 329.8 81.919C329.461 81.7599 329.193 81.5312 328.994 81.233C328.795 80.9318 328.696 80.5682 328.696 80.142C328.696 79.767 328.77 79.4631 328.917 79.2301C329.065 78.9943 329.263 78.8097 329.51 78.6761C329.757 78.5426 330.03 78.4432 330.328 78.3778C330.629 78.3097 330.932 78.2557 331.236 78.2159C331.633 78.1648 331.956 78.1264 332.203 78.1009C332.453 78.0724 332.635 78.0256 332.748 77.9602C332.865 77.8949 332.923 77.7812 332.923 77.6193V77.5852C332.923 77.1648 332.808 76.8381 332.578 76.6051C332.351 76.3722 332.005 76.2557 331.542 76.2557C331.062 76.2557 330.686 76.3608 330.413 76.571C330.14 76.7812 329.949 77.0057 329.838 77.2443L328.883 76.9034C329.054 76.5057 329.281 76.196 329.565 75.9744C329.852 75.75 330.165 75.5937 330.503 75.5057C330.844 75.4148 331.179 75.3693 331.508 75.3693C331.719 75.3693 331.96 75.3949 332.233 75.446C332.508 75.4943 332.774 75.5952 333.03 75.7486C333.288 75.902 333.503 76.1335 333.673 76.4432C333.844 76.7528 333.929 77.1676 333.929 77.6875V82H332.923V81.1136H332.872C332.804 81.2557 332.69 81.4077 332.531 81.5696C332.372 81.7315 332.16 81.8693 331.896 81.983C331.632 82.0966 331.309 82.1534 330.929 82.1534ZM331.082 81.25C331.48 81.25 331.815 81.1719 332.088 81.0156C332.363 80.8594 332.571 80.6577 332.71 80.4105C332.852 80.1634 332.923 79.9034 332.923 79.6307V78.7102C332.88 78.7614 332.787 78.8082 332.642 78.8509C332.5 78.8906 332.335 78.9261 332.148 78.9574C331.963 78.9858 331.782 79.0114 331.606 79.0341C331.433 79.054 331.292 79.071 331.184 79.0852C330.923 79.1193 330.679 79.1747 330.451 79.2514C330.227 79.3253 330.045 79.4375 329.906 79.5881C329.77 79.7358 329.701 79.9375 329.701 80.1932C329.701 80.5426 329.831 80.8068 330.089 80.9858C330.351 81.1619 330.682 81.25 331.082 81.25ZM341.611 82.1364C341.065 82.1364 340.584 81.9986 340.166 81.723C339.749 81.4446 339.422 81.0526 339.186 80.5469C338.95 80.0384 338.833 79.4375 338.833 78.7443C338.833 78.0568 338.95 77.4602 339.186 76.9545C339.422 76.4489 339.75 76.0582 340.171 75.7827C340.591 75.5071 341.077 75.3693 341.628 75.3693C342.054 75.3693 342.391 75.4403 342.638 75.5824C342.888 75.7216 343.078 75.8807 343.209 76.0597C343.342 76.2358 343.446 76.3807 343.52 76.4943H343.605V73.2727H344.611V82H343.639V80.9943H343.52C343.446 81.1136 343.341 81.2642 343.205 81.446C343.068 81.625 342.874 81.7855 342.621 81.9276C342.368 82.0668 342.031 82.1364 341.611 82.1364ZM341.747 81.233C342.151 81.233 342.492 81.1278 342.77 80.9176C343.048 80.7045 343.26 80.4105 343.405 80.0355C343.55 79.6577 343.622 79.2216 343.622 78.7273C343.622 78.2386 343.551 77.8111 343.409 77.4446C343.267 77.0753 343.057 76.7884 342.779 76.5838C342.5 76.3764 342.156 76.2727 341.747 76.2727C341.321 76.2727 340.966 76.3821 340.682 76.6009C340.401 76.8168 340.189 77.1108 340.047 77.483C339.908 77.8523 339.838 78.267 339.838 78.7273C339.838 79.1932 339.909 79.6165 340.051 79.9972C340.196 80.375 340.409 80.6761 340.69 80.9006C340.975 81.1222 341.327 81.233 341.747 81.233ZM349.337 82.1364C348.706 82.1364 348.162 81.9972 347.705 81.7188C347.25 81.4375 346.899 81.0455 346.652 80.5426C346.408 80.0369 346.286 79.4489 346.286 78.7784C346.286 78.108 346.408 77.517 346.652 77.0057C346.899 76.4915 347.243 76.0909 347.683 75.804C348.127 75.5142 348.644 75.3693 349.235 75.3693C349.575 75.3693 349.912 75.4261 350.244 75.5398C350.577 75.6534 350.879 75.8381 351.152 76.0938C351.425 76.3466 351.642 76.6818 351.804 77.0994C351.966 77.517 352.047 78.0312 352.047 78.642V79.0682H347.002V78.1989H351.024C351.024 77.8295 350.95 77.5 350.803 77.2102C350.658 76.9205 350.45 76.6918 350.181 76.5241C349.913 76.3565 349.598 76.2727 349.235 76.2727C348.834 76.2727 348.487 76.3722 348.195 76.571C347.905 76.767 347.682 77.0227 347.526 77.3381C347.369 77.6534 347.291 77.9915 347.291 78.3523V78.9318C347.291 79.4261 347.377 79.8452 347.547 80.1889C347.72 80.5298 347.96 80.7898 348.267 80.9688C348.574 81.1449 348.931 81.233 349.337 81.233C349.601 81.233 349.84 81.196 350.053 81.1222C350.269 81.0455 350.455 80.9318 350.611 80.7812C350.767 80.6278 350.888 80.4375 350.973 80.2102L351.945 80.483C351.842 80.8125 351.671 81.1023 351.429 81.3523C351.188 81.5994 350.889 81.7926 350.534 81.9318C350.179 82.0682 349.78 82.1364 349.337 82.1364ZM254.606 99.4545V90.4545H255.578V91.4943H255.697C255.771 91.3807 255.873 91.2358 256.004 91.0597C256.137 90.8807 256.328 90.7216 256.575 90.5824C256.825 90.4403 257.163 90.3693 257.589 90.3693C258.14 90.3693 258.626 90.5071 259.046 90.7827C259.467 91.0582 259.795 91.4489 260.031 91.9545C260.267 92.4602 260.385 93.0568 260.385 93.7443C260.385 94.4375 260.267 95.0384 260.031 95.5469C259.795 96.0526 259.468 96.4446 259.051 96.723C258.633 96.9986 258.152 97.1364 257.606 97.1364C257.186 97.1364 256.849 97.0668 256.596 96.9276C256.343 96.7855 256.149 96.625 256.012 96.446C255.876 96.2642 255.771 96.1136 255.697 95.9943H255.612V99.4545H254.606ZM255.595 93.7273C255.595 94.2216 255.667 94.6577 255.812 95.0355C255.957 95.4105 256.169 95.7045 256.447 95.9176C256.725 96.1278 257.066 96.233 257.47 96.233C257.89 96.233 258.241 96.1222 258.522 95.9006C258.806 95.6761 259.019 95.375 259.162 94.9972C259.306 94.6165 259.379 94.1932 259.379 93.7273C259.379 93.267 259.308 92.8523 259.166 92.483C259.027 92.1108 258.815 91.8168 258.531 91.6009C258.25 91.3821 257.896 91.2727 257.47 91.2727C257.061 91.2727 256.717 91.3764 256.439 91.5838C256.16 91.7884 255.95 92.0753 255.808 92.4446C255.666 92.8111 255.595 93.2386 255.595 93.7273ZM264.663 97.1364C264.032 97.1364 263.488 96.9972 263.031 96.7188C262.576 96.4375 262.225 96.0455 261.978 95.5426C261.734 95.0369 261.612 94.4489 261.612 93.7784C261.612 93.108 261.734 92.517 261.978 92.0057C262.225 91.4915 262.569 91.0909 263.01 90.804C263.453 90.5142 263.97 90.3693 264.561 90.3693C264.902 90.3693 265.238 90.4261 265.571 90.5398C265.903 90.6534 266.206 90.8381 266.478 91.0938C266.751 91.3466 266.968 91.6818 267.13 92.0994C267.292 92.517 267.373 93.0312 267.373 93.642V94.0682H262.328V93.1989H266.35C266.35 92.8295 266.277 92.5 266.129 92.2102C265.984 91.9205 265.777 91.6918 265.507 91.5241C265.24 91.3565 264.924 91.2727 264.561 91.2727C264.16 91.2727 263.814 91.3722 263.521 91.571C263.231 91.767 263.008 92.0227 262.852 92.3381C262.696 92.6534 262.618 92.9915 262.618 93.3523V93.9318C262.618 94.4261 262.703 94.8452 262.873 95.1889C263.046 95.5298 263.287 95.7898 263.593 95.9688C263.9 96.1449 264.257 96.233 264.663 96.233C264.927 96.233 265.166 96.196 265.379 96.1222C265.595 96.0455 265.781 95.9318 265.937 95.7812C266.093 95.6278 266.214 95.4375 266.299 95.2102L267.271 95.483C267.169 95.8125 266.997 96.1023 266.755 96.3523C266.514 96.5994 266.216 96.7926 265.86 96.9318C265.505 97.0682 265.106 97.1364 264.663 97.1364ZM273.539 91.9205L272.636 92.1761C272.579 92.0256 272.495 91.8793 272.385 91.7372C272.277 91.5923 272.129 91.473 271.941 91.3793C271.754 91.2855 271.514 91.2386 271.221 91.2386C270.821 91.2386 270.487 91.331 270.22 91.5156C269.956 91.6974 269.823 91.929 269.823 92.2102C269.823 92.4602 269.914 92.6577 270.096 92.8026C270.278 92.9474 270.562 93.0682 270.948 93.1648L271.92 93.4034C272.505 93.5455 272.941 93.7628 273.228 94.0554C273.515 94.3452 273.659 94.7187 273.659 95.1761C273.659 95.5511 273.551 95.8864 273.335 96.1818C273.122 96.4773 272.823 96.7102 272.44 96.8807C272.056 97.0511 271.61 97.1364 271.102 97.1364C270.434 97.1364 269.882 96.9915 269.444 96.7017C269.007 96.4119 268.73 95.9886 268.613 95.4318L269.568 95.1932C269.659 95.5455 269.831 95.8097 270.083 95.9858C270.339 96.1619 270.673 96.25 271.085 96.25C271.554 96.25 271.926 96.1506 272.201 95.9517C272.48 95.75 272.619 95.5085 272.619 95.2273C272.619 95 272.539 94.8097 272.38 94.6562C272.221 94.5 271.977 94.3835 271.647 94.3068L270.556 94.0511C269.957 93.9091 269.517 93.6889 269.235 93.3906C268.957 93.0895 268.818 92.7131 268.818 92.2614C268.818 91.892 268.921 91.5653 269.129 91.2812C269.339 90.9972 269.625 90.7741 269.985 90.6122C270.349 90.4503 270.761 90.3693 271.221 90.3693C271.869 90.3693 272.377 90.5114 272.747 90.7955C273.119 91.0795 273.383 91.4545 273.539 91.9205ZM277.832 97.1364C277.241 97.1364 276.722 96.9957 276.276 96.7145C275.833 96.4332 275.486 96.0398 275.236 95.5341C274.989 95.0284 274.866 94.4375 274.866 93.7614C274.866 93.0795 274.989 92.4844 275.236 91.9759C275.486 91.4673 275.833 91.0724 276.276 90.7912C276.722 90.5099 277.241 90.3693 277.832 90.3693C278.423 90.3693 278.94 90.5099 279.383 90.7912C279.829 91.0724 280.175 91.4673 280.423 91.9759C280.673 92.4844 280.798 93.0795 280.798 93.7614C280.798 94.4375 280.673 95.0284 280.423 95.5341C280.175 96.0398 279.829 96.4332 279.383 96.7145C278.94 96.9957 278.423 97.1364 277.832 97.1364ZM277.832 96.233C278.281 96.233 278.65 96.1179 278.94 95.8878C279.229 95.6577 279.444 95.3551 279.583 94.9801C279.722 94.6051 279.792 94.1989 279.792 93.7614C279.792 93.3239 279.722 92.9162 279.583 92.5384C279.444 92.1605 279.229 91.8551 278.94 91.6222C278.65 91.3892 278.281 91.2727 277.832 91.2727C277.383 91.2727 277.013 91.3892 276.724 91.6222C276.434 91.8551 276.219 92.1605 276.08 92.5384C275.941 92.9162 275.871 93.3239 275.871 93.7614C275.871 94.1989 275.941 94.6051 276.08 94.9801C276.219 95.3551 276.434 95.6577 276.724 95.8878C277.013 96.1179 277.383 96.233 277.832 96.233ZM288.452 97.1364C287.821 97.1364 287.277 96.9972 286.82 96.7188C286.365 96.4375 286.015 96.0455 285.767 95.5426C285.523 95.0369 285.401 94.4489 285.401 93.7784C285.401 93.108 285.523 92.517 285.767 92.0057C286.015 91.4915 286.358 91.0909 286.799 90.804C287.242 90.5142 287.759 90.3693 288.35 90.3693C288.691 90.3693 289.027 90.4261 289.36 90.5398C289.692 90.6534 289.995 90.8381 290.267 91.0938C290.54 91.3466 290.757 91.6818 290.919 92.0994C291.081 92.517 291.162 93.0312 291.162 93.642V94.0682H286.117V93.1989H290.14C290.14 92.8295 290.066 92.5 289.918 92.2102C289.773 91.9205 289.566 91.6918 289.296 91.5241C289.029 91.3565 288.713 91.2727 288.35 91.2727C287.949 91.2727 287.603 91.3722 287.31 91.571C287.02 91.767 286.797 92.0227 286.641 92.3381C286.485 92.6534 286.407 92.9915 286.407 93.3523V93.9318C286.407 94.4261 286.492 94.8452 286.662 95.1889C286.836 95.5298 287.076 95.7898 287.382 95.9688C287.689 96.1449 288.046 96.233 288.452 96.233C288.716 96.233 288.955 96.196 289.168 96.1222C289.384 96.0455 289.57 95.9318 289.726 95.7812C289.882 95.6278 290.003 95.4375 290.088 95.2102L291.06 95.483C290.958 95.8125 290.786 96.1023 290.544 96.3523C290.303 96.5994 290.005 96.7926 289.649 96.9318C289.294 97.0682 288.895 97.1364 288.452 97.1364ZM292.692 97V90.4545H293.664V91.4773H293.749C293.885 91.1278 294.105 90.8565 294.409 90.6634C294.713 90.4673 295.078 90.3693 295.505 90.3693C295.936 90.3693 296.296 90.4673 296.583 90.6634C296.872 90.8565 297.098 91.1278 297.26 91.4773H297.328C297.496 91.1392 297.747 90.8707 298.083 90.6719C298.418 90.4702 298.82 90.3693 299.289 90.3693C299.874 90.3693 300.353 90.5526 300.725 90.919C301.097 91.2827 301.283 91.8494 301.283 92.6193V97H300.277V92.6193C300.277 92.1364 300.145 91.7912 299.881 91.5838C299.617 91.3764 299.306 91.2727 298.948 91.2727C298.488 91.2727 298.131 91.4119 297.878 91.6903C297.625 91.9659 297.499 92.3153 297.499 92.7386V97H296.476V92.517C296.476 92.1449 296.355 91.8452 296.114 91.6179C295.872 91.3878 295.561 91.2727 295.181 91.2727C294.919 91.2727 294.675 91.3423 294.448 91.4815C294.223 91.6207 294.042 91.8139 293.902 92.0611C293.766 92.3054 293.698 92.5881 293.698 92.9091V97H292.692ZM306.48 97V96.233L309.36 93.0795C309.698 92.7102 309.977 92.3892 310.196 92.1165C310.414 91.8409 310.576 91.5824 310.681 91.3409C310.789 91.0966 310.843 90.8409 310.843 90.5739C310.843 90.267 310.769 90.0014 310.622 89.777C310.477 89.5526 310.278 89.3793 310.025 89.2571C309.772 89.1349 309.488 89.0739 309.173 89.0739C308.838 89.0739 308.545 89.1435 308.295 89.2827C308.048 89.419 307.856 89.6108 307.72 89.858C307.586 90.1051 307.519 90.3949 307.519 90.7273H306.514C306.514 90.2159 306.632 89.767 306.868 89.3807C307.103 88.9943 307.424 88.6932 307.831 88.4773C308.24 88.2614 308.698 88.1534 309.207 88.1534C309.718 88.1534 310.171 88.2614 310.566 88.4773C310.961 88.6932 311.271 88.9844 311.495 89.3509C311.72 89.7173 311.832 90.125 311.832 90.5739C311.832 90.8949 311.774 91.2088 311.657 91.5156C311.544 91.8196 311.345 92.1591 311.061 92.5341C310.779 92.9062 310.389 93.3608 309.889 93.8977L307.929 95.9943V96.0625H311.985V97H306.48ZM316.814 88.2727V97H315.757V89.3807H315.706L313.575 90.7955V89.7216L315.757 88.2727H316.814ZM325.187 97.1364C324.642 97.1364 324.16 96.9986 323.743 96.723C323.325 96.4446 322.998 96.0526 322.762 95.5469C322.527 95.0384 322.409 94.4375 322.409 93.7443C322.409 93.0568 322.527 92.4602 322.762 91.9545C322.998 91.4489 323.326 91.0582 323.747 90.7827C324.167 90.5071 324.653 90.3693 325.204 90.3693C325.63 90.3693 325.967 90.4403 326.214 90.5824C326.464 90.7216 326.654 90.8807 326.785 91.0597C326.919 91.2358 327.022 91.3807 327.096 91.4943H327.181V88.2727H328.187V97H327.216V95.9943H327.096C327.022 96.1136 326.917 96.2642 326.781 96.446C326.644 96.625 326.45 96.7855 326.197 96.9276C325.944 97.0668 325.608 97.1364 325.187 97.1364ZM325.323 96.233C325.727 96.233 326.068 96.1278 326.346 95.9176C326.625 95.7045 326.836 95.4105 326.981 95.0355C327.126 94.6577 327.198 94.2216 327.198 93.7273C327.198 93.2386 327.127 92.8111 326.985 92.4446C326.843 92.0753 326.633 91.7884 326.355 91.5838C326.076 91.3764 325.733 91.2727 325.323 91.2727C324.897 91.2727 324.542 91.3821 324.258 91.6009C323.977 91.8168 323.765 92.1108 323.623 92.483C323.484 92.8523 323.414 93.267 323.414 93.7273C323.414 94.1932 323.485 94.6165 323.627 94.9972C323.772 95.375 323.985 95.6761 324.267 95.9006C324.551 96.1222 324.903 96.233 325.323 96.233ZM330.169 97V90.4545H331.174V97H330.169ZM330.68 89.3636C330.484 89.3636 330.315 89.2969 330.173 89.1634C330.034 89.0298 329.964 88.8693 329.964 88.6818C329.964 88.4943 330.034 88.3338 330.173 88.2003C330.315 88.0668 330.484 88 330.68 88C330.876 88 331.044 88.0668 331.183 88.2003C331.325 88.3338 331.396 88.4943 331.396 88.6818C331.396 88.8693 331.325 89.0298 331.183 89.1634C331.044 89.2969 330.876 89.3636 330.68 89.3636ZM334.942 97.1534C334.528 97.1534 334.151 97.0753 333.813 96.919C333.475 96.7599 333.207 96.5312 333.008 96.233C332.809 95.9318 332.709 95.5682 332.709 95.142C332.709 94.767 332.783 94.4631 332.931 94.2301C333.079 93.9943 333.276 93.8097 333.523 93.6761C333.771 93.5426 334.043 93.4432 334.342 93.3778C334.643 93.3097 334.945 93.2557 335.249 93.2159C335.647 93.1648 335.969 93.1264 336.217 93.1009C336.467 93.0724 336.648 93.0256 336.762 92.9602C336.879 92.8949 336.937 92.7812 336.937 92.6193V92.5852C336.937 92.1648 336.822 91.8381 336.592 91.6051C336.364 91.3722 336.019 91.2557 335.556 91.2557C335.076 91.2557 334.7 91.3608 334.427 91.571C334.154 91.7812 333.962 92.0057 333.852 92.2443L332.897 91.9034C333.067 91.5057 333.295 91.196 333.579 90.9744C333.866 90.75 334.178 90.5937 334.516 90.5057C334.857 90.4148 335.192 90.3693 335.522 90.3693C335.732 90.3693 335.974 90.3949 336.246 90.446C336.522 90.4943 336.788 90.5952 337.043 90.7486C337.302 90.902 337.516 91.1335 337.687 91.4432C337.857 91.7528 337.942 92.1676 337.942 92.6875V97H336.937V96.1136H336.886C336.817 96.2557 336.704 96.4077 336.545 96.5696C336.386 96.7315 336.174 96.8693 335.91 96.983C335.646 97.0966 335.323 97.1534 334.942 97.1534ZM335.096 96.25C335.494 96.25 335.829 96.1719 336.102 96.0156C336.377 95.8594 336.584 95.6577 336.724 95.4105C336.866 95.1634 336.937 94.9034 336.937 94.6307V93.7102C336.894 93.7614 336.8 93.8082 336.656 93.8509C336.513 93.8906 336.349 93.9261 336.161 93.9574C335.977 93.9858 335.796 94.0114 335.62 94.0341C335.447 94.054 335.306 94.071 335.198 94.0852C334.937 94.1193 334.692 94.1747 334.465 94.2514C334.241 94.3253 334.059 94.4375 333.92 94.5881C333.783 94.7358 333.715 94.9375 333.715 95.1932C333.715 95.5426 333.844 95.8068 334.103 95.9858C334.364 96.1619 334.695 96.25 335.096 96.25ZM344.414 91.9205L343.511 92.1761C343.454 92.0256 343.37 91.8793 343.26 91.7372C343.152 91.5923 343.004 91.473 342.816 91.3793C342.629 91.2855 342.389 91.2386 342.096 91.2386C341.696 91.2386 341.362 91.331 341.095 91.5156C340.831 91.6974 340.698 91.929 340.698 92.2102C340.698 92.4602 340.789 92.6577 340.971 92.8026C341.153 92.9474 341.437 93.0682 341.823 93.1648L342.795 93.4034C343.38 93.5455 343.816 93.7628 344.103 94.0554C344.39 94.3452 344.534 94.7187 344.534 95.1761C344.534 95.5511 344.426 95.8864 344.21 96.1818C343.997 96.4773 343.698 96.7102 343.315 96.8807C342.931 97.0511 342.485 97.1364 341.977 97.1364C341.309 97.1364 340.757 96.9915 340.319 96.7017C339.882 96.4119 339.605 95.9886 339.488 95.4318L340.443 95.1932C340.534 95.5455 340.706 95.8097 340.958 95.9858C341.214 96.1619 341.548 96.25 341.96 96.25C342.429 96.25 342.801 96.1506 343.076 95.9517C343.355 95.75 343.494 95.5085 343.494 95.2273C343.494 95 343.414 94.8097 343.255 94.6562C343.096 94.5 342.852 94.3835 342.522 94.3068L341.431 94.0511C340.832 93.9091 340.392 93.6889 340.11 93.3906C339.832 93.0895 339.693 92.7131 339.693 92.2614C339.693 91.892 339.796 91.5653 340.004 91.2812C340.214 90.9972 340.5 90.7741 340.86 90.6122C341.224 90.4503 341.636 90.3693 342.096 90.3693C342.744 90.3693 343.252 90.5114 343.622 90.7955C343.994 91.0795 344.258 91.4545 344.414 91.9205Z" fill="black"/>
<path d="M44.1577 82H43.1009C43.0384 81.696 42.929 81.429 42.7727 81.1989C42.6193 80.9688 42.4318 80.7756 42.2102 80.6193C41.9915 80.4602 41.7486 80.3409 41.4815 80.2614C41.2145 80.1818 40.9361 80.142 40.6463 80.142C40.1179 80.142 39.6392 80.2756 39.2102 80.5426C38.7841 80.8097 38.4446 81.2031 38.1918 81.723C37.9418 82.2429 37.8168 82.8807 37.8168 83.6364C37.8168 84.392 37.9418 85.0298 38.1918 85.5497C38.4446 86.0696 38.7841 86.4631 39.2102 86.7301C39.6392 86.9972 40.1179 87.1307 40.6463 87.1307C40.9361 87.1307 41.2145 87.0909 41.4815 87.0114C41.7486 86.9318 41.9915 86.8139 42.2102 86.6577C42.4318 86.4986 42.6193 86.304 42.7727 86.0739C42.929 85.8409 43.0384 85.5739 43.1009 85.2727H44.1577C44.0781 85.7187 43.9332 86.1179 43.723 86.4702C43.5128 86.8224 43.2514 87.1222 42.9389 87.3693C42.6264 87.6136 42.2756 87.7997 41.8864 87.9276C41.5 88.0554 41.0866 88.1193 40.6463 88.1193C39.902 88.1193 39.2401 87.9375 38.6605 87.5739C38.081 87.2102 37.625 86.6932 37.2926 86.0227C36.9602 85.3523 36.794 84.5568 36.794 83.6364C36.794 82.7159 36.9602 81.9205 37.2926 81.25C37.625 80.5795 38.081 80.0625 38.6605 79.6989C39.2401 79.3352 39.902 79.1534 40.6463 79.1534C41.0866 79.1534 41.5 79.2173 41.8864 79.3452C42.2756 79.473 42.6264 79.6605 42.9389 79.9077C43.2514 80.152 43.5128 80.4503 43.723 80.8026C43.9332 81.152 44.0781 81.5511 44.1577 82ZM46.7347 79.2727V88H45.729V79.2727H46.7347ZM48.5767 88V81.4545H49.5824V88H48.5767ZM49.0881 80.3636C48.892 80.3636 48.723 80.2969 48.581 80.1634C48.4418 80.0298 48.3722 79.8693 48.3722 79.6818C48.3722 79.4943 48.4418 79.3338 48.581 79.2003C48.723 79.0668 48.892 79 49.0881 79C49.2841 79 49.4517 79.0668 49.5909 79.2003C49.733 79.3338 49.804 79.4943 49.804 79.6818C49.804 79.8693 49.733 80.0298 49.5909 80.1634C49.4517 80.2969 49.2841 80.3636 49.0881 80.3636ZM54.1687 88.1364C53.538 88.1364 52.994 87.9972 52.5366 87.7188C52.082 87.4375 51.7312 87.0455 51.484 86.5426C51.2397 86.0369 51.1175 85.4489 51.1175 84.7784C51.1175 84.108 51.2397 83.517 51.484 83.0057C51.7312 82.4915 52.0749 82.0909 52.5153 81.804C52.9585 81.5142 53.4755 81.3693 54.0664 81.3693C54.4073 81.3693 54.744 81.4261 55.0763 81.5398C55.4087 81.6534 55.7113 81.8381 55.984 82.0938C56.2567 82.3466 56.4741 82.6818 56.636 83.0994C56.7979 83.517 56.8789 84.0312 56.8789 84.642V85.0682H51.8335V84.1989H55.8562C55.8562 83.8295 55.7823 83.5 55.6346 83.2102C55.4897 82.9205 55.2823 82.6918 55.0124 82.5241C54.7454 82.3565 54.43 82.2727 54.0664 82.2727C53.6658 82.2727 53.3192 82.3722 53.0266 82.571C52.7369 82.767 52.5138 83.0227 52.3576 83.3381C52.2013 83.6534 52.1232 83.9915 52.1232 84.3523V84.9318C52.1232 85.4261 52.2085 85.8452 52.3789 86.1889C52.5522 86.5298 52.7923 86.7898 53.0991 86.9688C53.4059 87.1449 53.7624 87.233 54.1687 87.233C54.4329 87.233 54.6715 87.196 54.8846 87.1222C55.1005 87.0455 55.2866 86.9318 55.4428 86.7812C55.5991 86.6278 55.7198 86.4375 55.805 86.2102L56.7766 86.483C56.6744 86.8125 56.5025 87.1023 56.261 87.3523C56.0195 87.5994 55.7212 87.7926 55.3661 87.9318C55.011 88.0682 54.6119 88.1364 54.1687 88.1364ZM59.4144 84.0625V88H58.4087V81.4545H59.3803V82.4773H59.4656C59.619 82.1449 59.8519 81.8778 60.1644 81.6761C60.4769 81.4716 60.8803 81.3693 61.3746 81.3693C61.8178 81.3693 62.2056 81.4602 62.538 81.642C62.8704 81.821 63.1289 82.0938 63.3136 82.4602C63.4982 82.8239 63.5906 83.2841 63.5906 83.8409V88H62.5849V83.9091C62.5849 83.3949 62.4513 82.9943 62.1843 82.7074C61.9173 82.4176 61.5508 82.2727 61.0849 82.2727C60.7638 82.2727 60.4769 82.3423 60.2241 82.4815C59.9741 82.6207 59.7766 82.8239 59.6317 83.0909C59.4869 83.358 59.4144 83.6818 59.4144 84.0625ZM68.2749 81.4545V82.3068H64.8828V81.4545H68.2749ZM65.8714 79.8864H66.8771V86.125C66.8771 86.4091 66.9183 86.6222 67.0007 86.7642C67.0859 86.9034 67.1939 86.9972 67.3246 87.0455C67.4581 87.0909 67.5987 87.1136 67.7464 87.1136C67.8572 87.1136 67.9482 87.108 68.0192 87.0966C68.0902 87.0824 68.147 87.071 68.1896 87.0625L68.3942 87.9659C68.326 87.9915 68.2308 88.017 68.1087 88.0426C67.9865 88.071 67.8317 88.0852 67.6442 88.0852C67.3601 88.0852 67.0817 88.0241 66.8089 87.902C66.5391 87.7798 66.3146 87.5938 66.1357 87.3438C65.9595 87.0938 65.8714 86.7784 65.8714 86.3977V79.8864ZM72.4616 88.1364C71.831 88.1364 71.2869 87.9972 70.8295 87.7188C70.375 87.4375 70.0241 87.0455 69.777 86.5426C69.5327 86.0369 69.4105 85.4489 69.4105 84.7784C69.4105 84.108 69.5327 83.517 69.777 83.0057C70.0241 82.4915 70.3679 82.0909 70.8082 81.804C71.2514 81.5142 71.7685 81.3693 72.3594 81.3693C72.7003 81.3693 73.0369 81.4261 73.3693 81.5398C73.7017 81.6534 74.0043 81.8381 74.277 82.0938C74.5497 82.3466 74.767 82.6818 74.929 83.0994C75.0909 83.517 75.1719 84.0312 75.1719 84.642V85.0682H70.1264V84.1989H74.1491C74.1491 83.8295 74.0753 83.5 73.9276 83.2102C73.7827 82.9205 73.5753 82.6918 73.3054 82.5241C73.0384 82.3565 72.723 82.2727 72.3594 82.2727C71.9588 82.2727 71.6122 82.3722 71.3196 82.571C71.0298 82.767 70.8068 83.0227 70.6506 83.3381C70.4943 83.6534 70.4162 83.9915 70.4162 84.3523V84.9318C70.4162 85.4261 70.5014 85.8452 70.6719 86.1889C70.8452 86.5298 71.0852 86.7898 71.392 86.9688C71.6989 87.1449 72.0554 87.233 72.4616 87.233C72.7259 87.233 72.9645 87.196 73.1776 87.1222C73.3935 87.0455 73.5795 86.9318 73.7358 86.7812C73.892 86.6278 74.0128 86.4375 74.098 86.2102L75.0696 86.483C74.9673 86.8125 74.7955 87.1023 74.554 87.3523C74.3125 87.5994 74.0142 87.7926 73.6591 87.9318C73.304 88.0682 72.9048 88.1364 72.4616 88.1364ZM81.3381 82.9205L80.4347 83.1761C80.3778 83.0256 80.294 82.8793 80.1832 82.7372C80.0753 82.5923 79.9276 82.473 79.7401 82.3793C79.5526 82.2855 79.3125 82.2386 79.0199 82.2386C78.6193 82.2386 78.2855 82.331 78.0185 82.5156C77.7543 82.6974 77.6222 82.929 77.6222 83.2102C77.6222 83.4602 77.7131 83.6577 77.8949 83.8026C78.0767 83.9474 78.3608 84.0682 78.7472 84.1648L79.7188 84.4034C80.304 84.5455 80.7401 84.7628 81.027 85.0554C81.3139 85.3452 81.4574 85.7187 81.4574 86.1761C81.4574 86.5511 81.3494 86.8864 81.1335 87.1818C80.9205 87.4773 80.6222 87.7102 80.2386 87.8807C79.8551 88.0511 79.4091 88.1364 78.9006 88.1364C78.233 88.1364 77.6804 87.9915 77.2429 87.7017C76.8054 87.4119 76.5284 86.9886 76.4119 86.4318L77.3665 86.1932C77.4574 86.5455 77.6293 86.8097 77.8821 86.9858C78.1378 87.1619 78.4716 87.25 78.8835 87.25C79.3523 87.25 79.7244 87.1506 80 86.9517C80.2784 86.75 80.4176 86.5085 80.4176 86.2273C80.4176 86 80.3381 85.8097 80.179 85.6562C80.0199 85.5 79.7756 85.3835 79.446 85.3068L78.3551 85.0511C77.7557 84.9091 77.3153 84.6889 77.0341 84.3906C76.7557 84.0895 76.6165 83.7131 76.6165 83.2614C76.6165 82.892 76.7202 82.5653 76.9276 82.2812C77.1378 81.9972 77.4233 81.7741 77.7841 81.6122C78.1477 81.4503 78.5597 81.3693 79.0199 81.3693C79.6676 81.3693 80.1761 81.5114 80.5455 81.7955C80.9176 82.0795 81.1818 82.4545 81.3381 82.9205ZM91.2553 81.4545C91.2042 81.0227 90.9968 80.6875 90.6332 80.4489C90.2695 80.2102 89.8235 80.0909 89.2951 80.0909C88.9087 80.0909 88.5707 80.1534 88.2809 80.2784C87.994 80.4034 87.7695 80.5753 87.6076 80.794C87.4485 81.0128 87.369 81.2614 87.369 81.5398C87.369 81.7727 87.4244 81.973 87.5352 82.1406C87.6488 82.3054 87.7937 82.4432 87.9698 82.554C88.146 82.6619 88.3306 82.7514 88.5238 82.8224C88.717 82.8906 88.8945 82.946 89.0565 82.9886L89.9428 83.2273C90.1701 83.2869 90.4229 83.3693 90.7013 83.4744C90.9826 83.5795 91.2511 83.723 91.5067 83.9048C91.7653 84.0838 91.9783 84.3139 92.146 84.5952C92.3136 84.8764 92.3974 85.2216 92.3974 85.6307C92.3974 86.1023 92.2738 86.5284 92.0266 86.9091C91.7823 87.2898 91.4244 87.5923 90.9528 87.8168C90.484 88.0412 89.9144 88.1534 89.244 88.1534C88.619 88.1534 88.0778 88.0526 87.6204 87.8509C87.1658 87.6491 86.8079 87.3679 86.5465 87.0071C86.288 86.6463 86.1417 86.2273 86.1076 85.75H87.1985C87.2269 86.0795 87.3377 86.3523 87.5309 86.5682C87.7269 86.7812 87.9741 86.9403 88.2724 87.0455C88.5735 87.1477 88.8974 87.1989 89.244 87.1989C89.6474 87.1989 90.0096 87.1335 90.3306 87.0028C90.6516 86.8693 90.9059 86.6847 91.0934 86.4489C91.2809 86.2102 91.3746 85.9318 91.3746 85.6136C91.3746 85.3239 91.2937 85.0881 91.1317 84.9062C90.9698 84.7244 90.7567 84.5767 90.4925 84.4631C90.2283 84.3494 89.9428 84.25 89.636 84.1648L88.5621 83.858C87.8803 83.6619 87.3406 83.3821 86.9428 83.0185C86.5451 82.6548 86.3462 82.179 86.3462 81.5909C86.3462 81.1023 86.4783 80.6761 86.7425 80.3125C87.0096 79.946 87.3675 79.6619 87.8164 79.4602C88.2681 79.2557 88.7724 79.1534 89.3292 79.1534C89.8917 79.1534 90.3917 79.2543 90.8292 79.456C91.2667 79.6548 91.6133 79.9276 91.869 80.2741C92.1275 80.6207 92.2638 81.0142 92.2781 81.4545H91.2553ZM95.9247 88.1534C95.5099 88.1534 95.1335 88.0753 94.7955 87.919C94.4574 87.7599 94.1889 87.5312 93.9901 87.233C93.7912 86.9318 93.6918 86.5682 93.6918 86.142C93.6918 85.767 93.7656 85.4631 93.9134 85.2301C94.0611 84.9943 94.2585 84.8097 94.5057 84.6761C94.7528 84.5426 95.0256 84.4432 95.3239 84.3778C95.625 84.3097 95.9276 84.2557 96.2315 84.2159C96.6293 84.1648 96.9517 84.1264 97.1989 84.1009C97.4489 84.0724 97.6307 84.0256 97.7443 83.9602C97.8608 83.8949 97.919 83.7812 97.919 83.6193V83.5852C97.919 83.1648 97.804 82.8381 97.5739 82.6051C97.3466 82.3722 97.0014 82.2557 96.5384 82.2557C96.0582 82.2557 95.6818 82.3608 95.4091 82.571C95.1364 82.7812 94.9446 83.0057 94.8338 83.2443L93.8793 82.9034C94.0497 82.5057 94.277 82.196 94.5611 81.9744C94.848 81.75 95.1605 81.5937 95.4986 81.5057C95.8395 81.4148 96.1747 81.3693 96.5043 81.3693C96.7145 81.3693 96.956 81.3949 97.2287 81.446C97.5043 81.4943 97.7699 81.5952 98.0256 81.7486C98.2841 81.902 98.4986 82.1335 98.669 82.4432C98.8395 82.7528 98.9247 83.1676 98.9247 83.6875V88H97.919V87.1136H97.8679C97.7997 87.2557 97.6861 87.4077 97.527 87.5696C97.3679 87.7315 97.1563 87.8693 96.892 87.983C96.6278 88.0966 96.3054 88.1534 95.9247 88.1534ZM96.0781 87.25C96.4759 87.25 96.8111 87.1719 97.0838 87.0156C97.3594 86.8594 97.5668 86.6577 97.706 86.4105C97.848 86.1634 97.919 85.9034 97.919 85.6307V84.7102C97.8764 84.7614 97.7827 84.8082 97.6378 84.8509C97.4957 84.8906 97.331 84.9261 97.1435 84.9574C96.9588 84.9858 96.7784 85.0114 96.6023 85.0341C96.429 85.054 96.2884 85.071 96.1804 85.0852C95.919 85.1193 95.6747 85.1747 95.4474 85.2514C95.223 85.3253 95.0412 85.4375 94.902 85.5881C94.7656 85.7358 94.6974 85.9375 94.6974 86.1932C94.6974 86.5426 94.8267 86.8068 95.0852 86.9858C95.3466 87.1619 95.6776 87.25 96.0781 87.25ZM103.607 81.4545V82.3068H100.215V81.4545H103.607ZM101.203 79.8864H102.209V86.125C102.209 86.4091 102.25 86.6222 102.333 86.7642C102.418 86.9034 102.526 86.9972 102.657 87.0455C102.79 87.0909 102.931 87.1136 103.078 87.1136C103.189 87.1136 103.28 87.108 103.351 87.0966C103.422 87.0824 103.479 87.071 103.522 87.0625L103.726 87.9659C103.658 87.9915 103.563 88.017 103.441 88.0426C103.319 88.071 103.164 88.0852 102.976 88.0852C102.692 88.0852 102.414 88.0241 102.141 87.902C101.871 87.7798 101.647 87.5938 101.468 87.3438C101.292 87.0938 101.203 86.7784 101.203 86.3977V79.8864ZM105.12 88V81.4545H106.125V88H105.12ZM105.631 80.3636C105.435 80.3636 105.266 80.2969 105.124 80.1634C104.985 80.0298 104.915 79.8693 104.915 79.6818C104.915 79.4943 104.985 79.3338 105.124 79.2003C105.266 79.0668 105.435 79 105.631 79C105.827 79 105.995 79.0668 106.134 79.2003C106.276 79.3338 106.347 79.4943 106.347 79.6818C106.347 79.8693 106.276 80.0298 106.134 80.1634C105.995 80.2969 105.827 80.3636 105.631 80.3636ZM112.604 82.9205L111.7 83.1761C111.643 83.0256 111.56 82.8793 111.449 82.7372C111.341 82.5923 111.193 82.473 111.006 82.3793C110.818 82.2855 110.578 82.2386 110.286 82.2386C109.885 82.2386 109.551 82.331 109.284 82.5156C109.02 82.6974 108.888 82.929 108.888 83.2102C108.888 83.4602 108.979 83.6577 109.161 83.8026C109.342 83.9474 109.626 84.0682 110.013 84.1648L110.984 84.4034C111.57 84.5455 112.006 84.7628 112.293 85.0554C112.58 85.3452 112.723 85.7187 112.723 86.1761C112.723 86.5511 112.615 86.8864 112.399 87.1818C112.186 87.4773 111.888 87.7102 111.504 87.8807C111.121 88.0511 110.675 88.1364 110.166 88.1364C109.499 88.1364 108.946 87.9915 108.509 87.7017C108.071 87.4119 107.794 86.9886 107.678 86.4318L108.632 86.1932C108.723 86.5455 108.895 86.8097 109.148 86.9858C109.403 87.1619 109.737 87.25 110.149 87.25C110.618 87.25 110.99 87.1506 111.266 86.9517C111.544 86.75 111.683 86.5085 111.683 86.2273C111.683 86 111.604 85.8097 111.445 85.6562C111.286 85.5 111.041 85.3835 110.712 85.3068L109.621 85.0511C109.021 84.9091 108.581 84.6889 108.3 84.3906C108.021 84.0895 107.882 83.7131 107.882 83.2614C107.882 82.892 107.986 82.5653 108.193 82.2812C108.403 81.9972 108.689 81.7741 109.05 81.6122C109.413 81.4503 109.825 81.3693 110.286 81.3693C110.933 81.3693 111.442 81.5114 111.811 81.7955C112.183 82.0795 112.447 82.4545 112.604 82.9205ZM117.152 81.4545V82.3068H113.623V81.4545H117.152ZM114.68 88V80.5511C114.68 80.1761 114.768 79.8636 114.944 79.6136C115.12 79.3636 115.349 79.1761 115.63 79.0511C115.912 78.9261 116.208 78.8636 116.521 78.8636C116.768 78.8636 116.97 78.8835 117.126 78.9233C117.282 78.9631 117.399 79 117.475 79.0341L117.186 79.9034C117.135 79.8864 117.064 79.8651 116.973 79.8395C116.885 79.8139 116.768 79.8011 116.623 79.8011C116.291 79.8011 116.051 79.8849 115.903 80.0526C115.758 80.2202 115.686 80.4659 115.686 80.7898V88H114.68ZM121.036 88.1364C120.405 88.1364 119.861 87.9972 119.404 87.7188C118.949 87.4375 118.598 87.0455 118.351 86.5426C118.107 86.0369 117.985 85.4489 117.985 84.7784C117.985 84.108 118.107 83.517 118.351 83.0057C118.598 82.4915 118.942 82.0909 119.382 81.804C119.826 81.5142 120.343 81.3693 120.934 81.3693C121.275 81.3693 121.611 81.4261 121.944 81.5398C122.276 81.6534 122.578 81.8381 122.851 82.0938C123.124 82.3466 123.341 82.6818 123.503 83.0994C123.665 83.517 123.746 84.0312 123.746 84.642V85.0682H118.701V84.1989H122.723C122.723 83.8295 122.65 83.5 122.502 83.2102C122.357 82.9205 122.15 82.6918 121.88 82.5241C121.613 82.3565 121.297 82.2727 120.934 82.2727C120.533 82.2727 120.186 82.3722 119.894 82.571C119.604 82.767 119.381 83.0227 119.225 83.3381C119.069 83.6534 118.99 83.9915 118.99 84.3523V84.9318C118.99 85.4261 119.076 85.8452 119.246 86.1889C119.419 86.5298 119.659 86.7898 119.966 86.9688C120.273 87.1449 120.63 87.233 121.036 87.233C121.3 87.233 121.539 87.196 121.752 87.1222C121.968 87.0455 122.154 86.9318 122.31 86.7812C122.466 86.6278 122.587 86.4375 122.672 86.2102L123.644 86.483C123.542 86.8125 123.37 87.1023 123.128 87.3523C122.887 87.5994 122.588 87.7926 122.233 87.9318C121.878 88.0682 121.479 88.1364 121.036 88.1364ZM125.276 88V81.4545H126.282V88H125.276ZM125.787 80.3636C125.591 80.3636 125.422 80.2969 125.28 80.1634C125.141 80.0298 125.071 79.8693 125.071 79.6818C125.071 79.4943 125.141 79.3338 125.28 79.2003C125.422 79.0668 125.591 79 125.787 79C125.983 79 126.151 79.0668 126.29 79.2003C126.432 79.3338 126.503 79.4943 126.503 79.6818C126.503 79.8693 126.432 80.0298 126.29 80.1634C126.151 80.2969 125.983 80.3636 125.787 80.3636ZM130.97 81.4545V82.3068H127.578V81.4545H130.97ZM128.567 79.8864H129.572V86.125C129.572 86.4091 129.614 86.6222 129.696 86.7642C129.781 86.9034 129.889 86.9972 130.02 87.0455C130.153 87.0909 130.294 87.1136 130.442 87.1136C130.553 87.1136 130.643 87.108 130.714 87.0966C130.786 87.0824 130.842 87.071 130.885 87.0625L131.089 87.9659C131.021 87.9915 130.926 88.017 130.804 88.0426C130.682 88.071 130.527 88.0852 130.339 88.0852C130.055 88.0852 129.777 88.0241 129.504 87.902C129.234 87.7798 129.01 87.5938 128.831 87.3438C128.655 87.0938 128.567 86.7784 128.567 86.3977V79.8864ZM135.072 88.1364C134.481 88.1364 133.962 87.9957 133.516 87.7145C133.073 87.4332 132.727 87.0398 132.477 86.5341C132.229 86.0284 132.106 85.4375 132.106 84.7614C132.106 84.0795 132.229 83.4844 132.477 82.9759C132.727 82.4673 133.073 82.0724 133.516 81.7912C133.962 81.5099 134.481 81.3693 135.072 81.3693C135.663 81.3693 136.18 81.5099 136.623 81.7912C137.069 82.0724 137.415 82.4673 137.663 82.9759C137.913 83.4844 138.038 84.0795 138.038 84.7614C138.038 85.4375 137.913 86.0284 137.663 86.5341C137.415 87.0398 137.069 87.4332 136.623 87.7145C136.18 87.9957 135.663 88.1364 135.072 88.1364ZM135.072 87.233C135.521 87.233 135.89 87.1179 136.18 86.8878C136.469 86.6577 136.684 86.3551 136.823 85.9801C136.962 85.6051 137.032 85.1989 137.032 84.7614C137.032 84.3239 136.962 83.9162 136.823 83.5384C136.684 83.1605 136.469 82.8551 136.18 82.6222C135.89 82.3892 135.521 82.2727 135.072 82.2727C134.623 82.2727 134.254 82.3892 133.964 82.6222C133.674 82.8551 133.46 83.1605 133.32 83.5384C133.181 83.9162 133.112 84.3239 133.112 84.7614C133.112 85.1989 133.181 85.6051 133.32 85.9801C133.46 86.3551 133.674 86.6577 133.964 86.8878C134.254 87.1179 134.623 87.233 135.072 87.233ZM144.209 82.9205L143.306 83.1761C143.249 83.0256 143.165 82.8793 143.054 82.7372C142.946 82.5923 142.799 82.473 142.611 82.3793C142.424 82.2855 142.184 82.2386 141.891 82.2386C141.49 82.2386 141.157 82.331 140.89 82.5156C140.625 82.6974 140.493 82.929 140.493 83.2102C140.493 83.4602 140.584 83.6577 140.766 83.8026C140.948 83.9474 141.232 84.0682 141.618 84.1648L142.59 84.4034C143.175 84.5455 143.611 84.7628 143.898 85.0554C144.185 85.3452 144.328 85.7187 144.328 86.1761C144.328 86.5511 144.221 86.8864 144.005 87.1818C143.792 87.4773 143.493 87.7102 143.11 87.8807C142.726 88.0511 142.28 88.1364 141.772 88.1364C141.104 88.1364 140.551 87.9915 140.114 87.7017C139.676 87.4119 139.4 86.9886 139.283 86.4318L140.238 86.1932C140.328 86.5455 140.5 86.8097 140.753 86.9858C141.009 87.1619 141.343 87.25 141.755 87.25C142.223 87.25 142.596 87.1506 142.871 86.9517C143.15 86.75 143.289 86.5085 143.289 86.2273C143.289 86 143.209 85.8097 143.05 85.6562C142.891 85.5 142.647 85.3835 142.317 85.3068L141.226 85.0511C140.627 84.9091 140.186 84.6889 139.905 84.3906C139.627 84.0895 139.488 83.7131 139.488 83.2614C139.488 82.892 139.591 82.5653 139.799 82.2812C140.009 81.9972 140.294 81.7741 140.655 81.6122C141.019 81.4503 141.431 81.3693 141.891 81.3693C142.539 81.3693 143.047 81.5114 143.417 81.7955C143.789 82.0795 144.053 82.4545 144.209 82.9205Z" fill="black"/>
</svg>
