<svg width="1440" height="747" viewBox="0 0 1440 747" fill="none" xmlns="http://www.w3.org/2000/svg">
<path d="M0 0H1441V735H0V0Z" fill="#2F000B"/>
<path d="M1438 705.446C1438 705.446 1400.97 687.026 1366.99 685.741C1332.5 684.455 1303.08 685.741 1260.98 692.166C1203.66 700.734 1093.08 735.434 1034.24 716.584C975.405 697.735 972.869 696.879 942.943 684.884C909.465 671.175 841.496 643.758 757.296 645.044C667.516 646.329 504.695 716.156 437.74 712.729C430.639 712.301 404.263 709.302 384.481 704.161C365.206 699.021 336.801 687.882 298.252 684.027C282.02 682.313 256.152 679.315 226.225 680.171C218.617 680.6 194.269 681.885 165.357 687.026C136.445 692.166 109.562 700.306 85.2148 702.876C32.97 707.588 0 700.734 0 700.734V747H1438V705.446ZM1322.86 698.592C1319.31 702.876 1312.71 700.306 1301.05 700.306C1289.38 700.306 1270.11 705.446 1271.63 705.018C1273.15 704.59 1287.35 698.592 1302.06 696.879C1317.28 694.737 1325.9 694.308 1322.86 698.592ZM1229.53 710.159C1229.53 710.159 1217.35 711.015 1201.12 714.014C1184.89 717.441 1148.88 726.009 1124.53 729.008C1082.94 733.72 1044.39 729.008 1047.94 728.579C1052 728.151 1096.63 731.15 1137.21 723.867C1153.95 720.868 1184.38 714.443 1200.11 712.301C1216.85 709.73 1229.53 710.159 1229.53 710.159ZM939.392 710.587C948.015 713.586 871.93 690.453 845.554 684.455C834.902 681.885 814.106 677.601 794.831 675.888C775.049 674.174 749.688 674.174 750.195 673.746C750.195 672.889 779.614 670.319 807.005 673.746C834.395 677.173 833.381 678.458 845.554 680.6C864.829 684.027 930.769 707.588 939.392 710.587ZM1009.9 717.441C1010.91 717.441 1005.84 719.155 985.55 712.729C965.261 706.303 951.565 697.735 950.551 696.879C949.536 696.45 968.304 704.59 984.028 709.73C999.245 714.871 1009.39 717.441 1009.9 717.441ZM1435.46 721.297C1434.96 720.868 1425.83 716.584 1411.12 710.587C1396.41 704.59 1376.12 698.592 1377.13 699.021C1378.15 699.021 1394.89 701.591 1414.67 709.73C1434.45 717.87 1435.97 721.725 1435.46 721.297ZM158.763 697.307C159.271 698.164 149.126 698.164 135.938 702.448C122.75 706.732 108.547 709.302 96.3739 711.015C76.0847 714.443 37.0279 710.587 39.0568 710.159C40.5785 709.73 80.6497 711.444 102.461 707.16C113.62 705.018 114.634 705.018 131.373 700.306C148.111 695.593 158.256 696.022 158.763 697.307ZM370.279 707.588C372.308 708.017 388.032 714.443 412.886 718.726C437.74 723.439 458.03 720.868 458.03 722.153C458.03 723.439 452.957 726.009 426.581 723.439C400.205 720.868 368.25 707.16 370.279 707.588ZM363.177 718.298C364.192 717.87 380.423 723.867 392.09 725.581C403.756 726.866 401.727 727.723 401.727 728.151C401.727 728.579 396.147 729.008 388.032 727.294C379.409 725.152 362.163 718.726 363.177 718.298ZM474.768 728.151C475.275 727.294 492.521 724.724 503.173 720.44C513.825 716.156 512.303 717.87 512.811 718.298C513.318 718.726 508.753 721.725 500.637 723.867C492.521 726.437 474.261 729.008 474.768 728.151ZM331.729 699.449C331.222 698.164 333.251 697.307 341.367 700.306C349.482 703.304 354.555 705.875 352.526 705.446C350.497 705.018 347.96 703.733 339.845 702.019C331.222 700.306 332.236 700.734 331.729 699.449ZM174.995 693.88C173.98 693.88 185.647 690.453 191.733 690.024C197.82 689.596 201.878 689.596 201.878 690.881C201.878 692.166 201.371 693.023 193.762 692.595C185.647 692.166 176.009 693.88 174.995 693.88ZM772.006 656.61C771.498 656.182 759.832 657.895 733.963 657.895C708.602 657.895 664.98 668.177 646.72 672.889C628.459 677.601 697.443 656.182 730.413 655.325C763.383 654.468 772.513 657.039 772.006 656.61Z" fill="#F9F9F9"/>
</svg>
