<svg width="120" height="23" viewBox="0 0 120 23" fill="none" xmlns="http://www.w3.org/2000/svg">
<path d="M36.3458 0.626465L40.0893 7.99137L48.4613 9.17234L42.4036 14.9051L43.8332 23L36.3458 19.1782L28.8581 23L30.2882 14.9051L24.2305 9.17234L32.602 7.99137L36.3458 0.626465Z" fill="#FAC917"/>
<path d="M12.1154 0.626465L15.8588 7.99137L24.2308 9.17234L18.1731 14.9051L19.6027 23L12.1154 19.1782L4.62761 23L6.05771 14.9051L0 9.17234L8.37149 7.99137L12.1154 0.626465Z" fill="#FAC917"/>
<path d="M83.6539 0.626465L87.3974 7.99137L95.7694 9.17234L89.7117 14.9051L91.1413 23L83.6539 19.1782L76.1662 23L77.5963 14.9051L71.5386 9.17234L79.9101 7.99137L83.6539 0.626465Z" fill="#FAC917"/>
<path d="M107.884 0.626465L111.628 7.99137L120 9.17234L113.942 14.9051L115.372 23L107.884 19.1782L100.397 23L101.827 14.9051L95.769 9.17234L104.141 7.99137L107.884 0.626465Z" fill="#FAC917"/>
<path d="M59.4235 0.626465L63.1669 7.99137L71.5389 9.17234L65.4812 14.9051L66.9108 23L59.4235 19.1782L51.9357 23L53.3658 14.9051L47.3081 9.17234L55.6796 7.99137L59.4235 0.626465Z" fill="#FAC917"/>
</svg>
