<svg width="1440" height="376" viewBox="0 0 1440 376" fill="none" xmlns="http://www.w3.org/2000/svg">
<rect y="21" width="1440" height="355" fill="#400010"/>
<path d="M1442 55.4049C1442 55.4049 1404.92 79.9658 1370.89 81.6793C1336.35 83.3929 1306.89 81.6793 1264.73 73.1116C1207.33 61.6879 1096.6 15.422 1037.68 40.5541C978.762 65.6862 976.222 66.8285 946.254 82.8217C912.73 101.1 844.667 137.655 760.349 135.942C670.444 134.228 507.397 41.1253 440.349 45.6947C433.238 46.2659 406.825 50.2642 387.016 57.1184C367.714 63.9726 339.27 78.8234 300.667 83.9641C284.413 86.2488 258.508 90.2471 228.54 89.1047C220.921 88.5335 196.54 86.82 167.587 79.9658C138.635 73.1116 111.714 62.2591 87.3333 58.832C35.0159 52.5489 2 61.6879 2 61.6879V0H1442V55.4049ZM1326.7 64.5438C1323.14 58.832 1316.54 62.2591 1304.86 62.2591C1293.17 62.2591 1273.87 55.4049 1275.4 55.976C1276.92 56.5472 1291.14 64.5438 1305.87 66.8285C1321.11 69.6845 1329.75 70.2556 1326.7 64.5438ZM1233.24 49.1218C1233.24 49.1218 1221.05 47.9795 1204.79 43.9812C1188.54 39.4117 1152.48 27.988 1128.1 23.9897C1086.44 17.7067 1047.84 23.9897 1051.4 24.5609C1055.46 25.1321 1100.16 21.1338 1140.79 30.8439C1157.56 34.8422 1188.03 43.41 1203.78 46.2659C1220.54 49.693 1233.24 49.1218 1233.24 49.1218ZM942.698 48.5506C951.333 44.5524 875.143 75.3963 848.73 83.3929C838.063 86.82 817.238 92.5318 797.937 94.8166C778.127 97.1013 752.73 97.1013 753.238 97.6725C753.238 98.8148 782.698 102.242 810.127 97.6725C837.556 93.103 836.54 91.3895 848.73 88.5335C868.032 83.9641 934.064 52.5489 942.698 48.5506ZM1013.3 39.4117C1014.32 39.4117 1009.24 37.127 988.921 45.6947C968.603 54.2625 954.889 65.6862 953.873 66.8285C952.857 67.3997 971.651 56.5472 987.397 49.693C1002.63 42.8388 1012.79 39.4117 1013.3 39.4117ZM1439.46 34.271C1438.95 34.8422 1429.81 40.5541 1415.08 48.5506C1400.35 56.5472 1380.03 64.5438 1381.05 63.9726C1382.06 63.9726 1398.83 60.5455 1418.63 49.693C1438.44 38.8405 1439.97 33.6999 1439.46 34.271ZM160.984 66.2574C161.492 65.115 151.333 65.115 138.127 59.4031C124.921 53.6913 110.698 50.2642 98.5079 47.9795C78.1905 43.41 39.0794 48.5506 41.1111 49.1218C42.6349 49.693 82.7619 47.4083 104.603 53.1201C115.778 55.976 116.794 55.976 133.556 62.2591C150.317 68.5421 160.476 67.9709 160.984 66.2574ZM372.794 52.5489C374.825 51.9777 390.571 43.41 415.46 37.6981C440.349 31.4151 460.667 34.8422 460.667 33.1287C460.667 31.4151 455.587 27.988 429.175 31.4151C402.762 34.8422 370.762 53.1201 372.794 52.5489ZM365.683 38.2693C366.698 38.8405 382.952 30.8439 394.635 28.5592C406.317 26.8457 404.286 25.7033 404.286 25.1321C404.286 24.5609 398.698 23.9897 390.571 26.2745C381.937 29.1304 364.667 37.6981 365.683 38.2693ZM477.429 25.1321C477.937 26.2745 495.206 29.7016 505.873 35.4134C516.54 41.1253 515.016 38.8405 515.524 38.2693C516.032 37.6981 511.46 33.6999 503.333 30.8439C495.206 27.4168 476.921 23.9897 477.429 25.1321ZM334.19 63.4014C333.683 65.115 335.714 66.2573 343.841 62.2591C351.968 58.2608 357.048 54.8337 355.016 55.4049C352.984 55.976 350.444 57.6896 342.317 59.9743C333.683 62.2591 334.698 61.6879 334.19 63.4014ZM177.238 70.8268C176.222 70.8268 187.905 75.3963 194 75.9675C200.095 76.5387 204.159 76.5387 204.159 74.8251C204.159 73.1116 203.651 71.9692 196.032 72.5404C187.905 73.1116 178.254 70.8268 177.238 70.8268ZM775.079 120.52C774.571 121.091 762.889 118.806 736.984 118.806C711.587 118.806 667.905 105.098 649.619 98.8148C631.333 92.5318 700.413 121.091 733.429 122.233C766.444 123.376 775.587 119.949 775.079 120.52Z" fill="#F3F3F3"/>
</svg>
