<svg width="1565" height="634" viewBox="0 0 1565 634" fill="none" xmlns="http://www.w3.org/2000/svg">
<path d="M1527.67 163.105C1527.67 163.105 61.7427 605.599 837.155 340.014C750.441 340.331 1434.47 379.798 1527.67 163.105C1388.79 215.001 948.168 531.702 792.123 452.302C636.078 372.903 1513.39 263.439 1526.45 176.994C1544.19 59.6013 1348.93 6.97361 1139.4 28.9732C915.948 52.0218 466.21 341.699 441.35 336.955C434.98 344.314 311.632 350.514 259.752 329.562C209.138 308.515 143.208 253.771 45.113 242.516C112.899 360.485 352.484 415.054 134.772 306.888C116.338 297.73 105.03 286.97 45.113 242.516C44.7942 392.432 118.498 508.25 58.984 525.163C532.136 458.456 90.4155 328.115 90.4155 328.115L45.2609 255.233L44.1731 323.423L44.7973 358.713L43.9549 431.223L42.7563 534.41L1522.48 522.963L1524.47 351.945L1527.67 163.105ZM1231.12 404.985C1224.35 426.212 594.026 402.046 564.908 404.24C535.791 406.433 177.171 374.521 1267.63 333.33C245.903 298.813 720.282 336.712 756.159 325.722C793.094 312.581 1236.63 383.853 1231.12 404.985ZM648.242 421.897C648.242 421.897 558.511 399.378 519.461 416.822C480.621 436.322 1104.91 155.528 1045.61 174.497C944.096 204.933 828.502 342.737 837.155 340.014C847.074 337.195 550.515 464.478 648.242 421.897C688.557 404.358 1117.49 299.943 1155.7 286.707C1196.22 271.224 648.242 421.897 648.242 421.897ZM1155.19 511.925C1178.18 524.695 1469.67 172.12 1400.92 148.295C940.585 106.407 1319.09 121.313 1270.14 116.713C1219.93 112.209 1156.64 116.977 1157.69 114.826C1157.27 110.714 1085.16 500.627 1155.19 511.925C1225.23 523.222 1151.66 470.803 1183.09 478.794C1232.87 491.617 1132.21 499.154 1155.19 511.925ZM1200.78 286.358C479.723 338.734 989.638 333.413 935.865 306.388C882.093 279.364 1037.73 427.48 1034.78 423.559C1032.04 421.693 914.605 288.959 956.357 310.675C996.843 332.485 319.235 314.534 1200.78 286.358ZM792.123 452.302C-6.54417 503.833 959.501 429.754 919.863 403.736C880.225 377.718 14.4539 524.231 837.155 340.014C839.687 339.823 615.433 264.212 668.775 299.556C722.118 334.9 -171.023 504.87 792.123 452.302ZM83.0486 389.092C85.5299 379.627 140.4 365.847 109.573 388.887C137.631 395.369 255.524 338.168 225.976 348.68C177.008 368.943 57.0256 444.281 61.8806 441.844C65.4697 439.502 234.34 370.904 288.873 360.834C343.406 350.764 187.617 380.441 109.573 388.887C155 386 189.679 393.789 83.0486 389.092ZM225.976 348.68C231.249 350.355 273.423 390.112 337.545 405.999C401.875 423.941 451.466 395.916 452.093 402.084C452.72 408.252 413.35 376.29 346.266 368.914C279.181 361.537 220.703 347.006 225.976 348.68ZM213.475 401.415C215.798 399.168 249.79 450.235 279.743 456.266C309.487 460.24 314.285 439.398 314.494 441.454C314.702 443.51 300.985 446.615 279.894 439.917C257.328 431.258 211.152 403.661 213.475 401.415ZM496.795 427.72C497.643 423.513 539.433 407.934 563.93 385.372C562.455 383.411 588.426 362.81 563.93 385.372C565.405 387.333 556.222 392.935 537.011 404.741C518.009 418.603 495.947 431.928 496.795 427.72ZM125.793 316.865C104.075 304 123.9 310.793 125.793 316.865C147.511 329.731 185.895 343.413 180.622 341.739C175.35 340.064 168.393 334.373 147.302 327.675C124.944 321.073 127.685 322.938 125.793 316.865ZM155.973 335.674C153.442 335.865 156.182 317.758 90.4155 328.115C105.398 324.915 408.142 350.35 155.798 350.739C440.352 366.576 116.278 316.797 97.0798 316.172C190.825 330.096 158.505 335.483 155.973 335.674ZM1203.77 28.4865C1202.3 26.526 1174.57 33.6361 1110 38.5C1046.7 43.2686 942.292 104.121 899.015 130.17C855.737 156.219 1024.25 52.414 1106.12 42.1029C1187.99 31.7918 1205.25 30.4471 1203.77 28.4865Z" fill="#2F000B"/>
<rect x="133.27" y="374" width="16" height="10" fill="#2F000B"/>
<rect x="727.792" y="199" width="440.489" height="152" fill="#2F000B"/>
<rect x="471" y="333" width="761" height="167" fill="#2F000B"/>
</svg>
